<svg width="240" height="45" viewBox="0 0 240 45" fill="none" xmlns="http://www.w3.org/2000/svg">
<g clip-path="url(#clip0_832_146890)">
<path d="M181.684 14.1832H178.727V9.56952H181.684C182.183 9.54839 182.671 9.71442 183.053 10.035C183.441 10.5371 183.618 11.1706 183.546 11.801C183.613 12.4609 183.438 13.1225 183.053 13.6629C182.871 13.8358 182.656 13.9707 182.421 14.06C182.186 14.1493 181.935 14.1912 181.684 14.1832ZM185.285 14.5117C185.775 13.5533 185.998 12.4806 185.93 11.4062C185.863 10.3319 185.507 9.29548 184.901 8.40585C184.11 7.75461 183.104 7.42257 182.081 7.47491H176.4V21.4253H178.727V15.9492H181.465L183.888 21.3158H186.257L183.519 15.6069C184.197 15.3852 184.793 14.9656 185.23 14.4022L185.285 14.5117ZM224.151 17.5236C224.023 18.1129 223.669 18.6287 223.166 18.9611C221.874 19.4538 220.446 19.4538 219.154 18.9611C218.664 18.6497 218.315 18.1581 218.182 17.592C217.956 16.5538 217.86 15.4916 217.895 14.4296C217.858 13.339 217.964 12.2482 218.21 11.185C218.274 10.8898 218.397 10.6105 218.571 10.3636C218.745 10.1167 218.967 9.90719 219.223 9.74749C219.831 9.46768 220.499 9.34079 221.167 9.37786C221.849 9.34065 222.529 9.4674 223.152 9.74749C223.407 9.90562 223.626 10.1151 223.796 10.3626C223.966 10.61 224.082 10.8901 224.138 11.185C224.548 13.2963 224.548 15.467 224.138 17.5783L224.151 17.5236ZM224.439 7.913C222.364 7.16446 220.093 7.16446 218.018 7.913C217.162 8.3507 216.513 9.10819 216.211 10.0213C215.738 11.4642 215.529 12.9808 215.595 14.498C215.527 16.0108 215.736 17.5232 216.211 18.9611C216.358 19.4055 216.593 19.816 216.901 20.1686C217.209 20.5212 217.584 20.8088 218.005 21.0146C220.087 21.7451 222.356 21.7451 224.439 21.0146C224.86 20.8078 225.237 20.52 225.547 20.1676C225.857 19.8153 226.094 19.4053 226.246 18.9611C226.721 17.5232 226.93 16.0108 226.862 14.498C226.928 12.9764 226.719 11.4553 226.246 10.0076C226.099 9.55588 225.864 9.13797 225.553 8.77832C225.243 8.41867 224.864 8.12449 224.439 7.913ZM199.071 9.58321H203.082V21.439H205.423V9.56952H209.421V7.47491H199.071V9.58321ZM211.022 21.439H213.35V7.47491H211.022V21.439ZM191.267 15.9629L193.225 9.47369L195.196 16.0176L191.267 15.9629ZM191.801 7.42015L187.256 21.3706H189.666L190.72 18.0712H195.771L196.853 21.3706H199.29L194.758 7.42015H191.801ZM90.8902 35.5674L92.8479 29.0234L94.8193 35.5674H90.8902ZM91.4104 27.0246L86.8789 40.9751H89.2747L90.3425 37.6757H95.3943L96.4621 40.9751H98.9126L94.3675 27.0794L91.4104 27.0246ZM237.486 17.4414L231.133 7.47491H229.258V21.4253H231.558V11.4588L237.91 21.4253H239.786V7.47491H237.431L237.486 17.4414ZM148.718 37.2376C148.573 37.8017 148.221 38.2906 147.732 38.6066C146.441 39.0994 145.013 39.0994 143.721 38.6066C143.23 38.2953 142.881 37.8037 142.749 37.2376C142.523 36.1994 142.426 35.1371 142.461 34.0751C142.425 32.9845 142.531 31.8938 142.776 30.8305C142.922 30.2595 143.286 29.7682 143.789 29.4615C144.398 29.1817 145.065 29.0548 145.733 29.0919C146.415 29.0547 147.096 29.1814 147.719 29.4615C147.966 29.612 148.181 29.8108 148.35 30.046C148.52 30.2812 148.64 30.548 148.704 30.8305C149.115 32.9419 149.115 35.1126 148.704 37.2239L148.718 37.2376ZM148.937 27.4901C146.862 26.7416 144.591 26.7416 142.516 27.4901C141.66 27.9278 141.011 28.6853 140.709 29.5984C140.236 31.0413 140.027 32.558 140.093 34.0751C140.025 35.5879 140.234 37.1003 140.709 38.5382C140.856 38.9826 141.091 39.3931 141.399 39.7457C141.707 40.0984 142.082 40.386 142.503 40.5917C144.585 41.3222 146.854 41.3222 148.937 40.5917C149.358 40.3849 149.735 40.0971 150.045 39.7447C150.355 39.3924 150.593 38.9824 150.744 38.5382C151.219 37.1003 151.428 35.5879 151.36 34.0751C151.426 32.5535 151.218 31.0324 150.744 29.5847C150.597 29.133 150.362 28.7151 150.051 28.3554C149.741 27.9958 149.362 27.7016 148.937 27.4901ZM166.392 29.5437C166.681 29.31 167.048 29.1928 167.419 29.2151H172.69V27.2711C171.581 27.2026 170.595 27.1479 169.746 27.1205C168.897 27.0931 167.857 27.1205 166.68 27.1205C165.918 27.0979 165.175 27.3506 164.585 27.8324C164.272 28.1282 164.03 28.4915 163.878 28.8948C163.726 29.2981 163.668 29.7307 163.709 30.1597V38.2233C163.647 38.6654 163.703 39.1161 163.871 39.5296C164.039 39.9431 164.314 40.3048 164.667 40.578C165.353 40.9869 166.142 41.1911 166.94 41.1667C169.185 41.1667 171.102 41.0846 172.69 40.9203V38.9763H167.392C167.206 39.0011 167.017 38.9827 166.84 38.9227C166.662 38.8627 166.501 38.7626 166.369 38.6301C166.236 38.4977 166.136 38.3365 166.076 38.1591C166.016 37.9817 165.998 37.7929 166.022 37.6072V35.1978L171.827 35.0745V33.24L166.022 33.1031V30.6252C166.012 30.4433 166.039 30.2612 166.1 30.0896C166.161 29.918 166.256 29.7603 166.378 29.6258L166.392 29.5437ZM124.65 41.0983H126.978V27.0794H124.65V41.0983ZM118.202 33.8561H115.245V29.2425H118.202C118.701 29.2213 119.189 29.3874 119.571 29.7079C119.958 30.2107 120.135 30.8437 120.064 31.474C120.131 32.1338 119.956 32.7954 119.571 33.3359C119.389 33.5087 119.174 33.6437 118.939 33.733C118.704 33.8223 118.454 33.8641 118.202 33.8561ZM121.803 34.1847C122.293 33.2262 122.516 32.1535 122.448 31.0792C122.381 30.0048 122.026 28.9684 121.419 28.0788C120.628 27.4276 119.623 27.0955 118.599 27.1479H112.918V41.0983H115.245V35.6221H117.983L120.406 40.9888H122.775L120.037 35.2799C120.715 35.0581 121.311 34.6385 121.748 34.0751L121.803 34.1847ZM134.357 26.9425C133.374 26.9016 132.396 27.1038 131.509 27.5312C130.707 28.0148 130.116 28.7819 129.853 29.6806C129.416 31.0746 129.222 32.5332 129.278 33.993C129.22 35.5103 129.41 37.0269 129.839 38.4834C130.094 39.3639 130.671 40.1164 131.454 40.5917C132.341 41.0008 133.313 41.1932 134.288 41.153C135.739 41.1851 137.186 41.01 138.587 40.6328V38.8394C137.333 38.986 136.071 39.0546 134.809 39.0447C134.132 39.0891 133.456 38.952 132.851 38.6477C132.359 38.3055 132.02 37.7848 131.906 37.1965C131.688 36.1573 131.596 35.0954 131.632 34.0341C131.595 32.9713 131.696 31.9082 131.934 30.8716C132.064 30.3049 132.414 29.8128 132.906 29.5026C133.5 29.2072 134.16 29.0705 134.822 29.1056C135.548 29.1056 136.273 29.1056 136.972 29.2014C137.67 29.2972 138.204 29.3383 138.587 29.4068V27.6133C137.944 27.4295 137.291 27.2877 136.629 27.1889C135.878 27.069 135.118 27.0095 134.357 27.011V26.9425ZM106.771 33.3632C106.182 33.3632 105.689 33.4454 105.306 33.5002V35.2936H108.126V38.4971C107.68 38.654 107.222 38.7775 106.757 38.8668C106.247 38.9649 105.729 39.0154 105.21 39.0173C104.622 39.0593 104.037 38.9105 103.54 38.5929C103.099 38.219 102.808 37.6991 102.719 37.1281C102.527 36.1268 102.445 35.1078 102.472 34.0888C102.446 33.0835 102.529 32.0783 102.719 31.0907C102.815 30.4869 103.132 29.9404 103.608 29.5573C104.187 29.202 104.861 29.0346 105.539 29.0782C106.319 29.0782 107.099 29.0782 107.894 29.174C108.688 29.2699 109.263 29.2836 109.769 29.352V27.5449C108.254 27.1771 106.701 26.9887 105.142 26.9836C104.055 26.9117 102.973 27.1952 102.061 27.7913C101.3 28.3669 100.762 29.1898 100.542 30.1187C100.231 31.4138 100.088 32.7436 100.117 34.0751C100.09 35.3947 100.214 36.7129 100.487 38.0043C100.675 38.9172 101.156 39.7439 101.856 40.359C102.61 40.9392 103.549 41.2262 104.498 41.1667C105.208 41.1648 105.914 41.0587 106.593 40.8518C107.204 40.6636 107.796 40.416 108.359 40.1126L108.674 41.0709H110.44V33.3359C109.947 33.3359 109.317 33.3359 108.564 33.3359C107.811 33.3359 107.414 33.3359 106.826 33.3359L106.771 33.3632ZM156.261 38.6203C156.125 38.4773 156.022 38.3066 155.958 38.12C155.894 37.9333 155.872 37.7351 155.892 37.5388V27.0794H153.564V37.9084C153.522 38.34 153.57 38.7755 153.704 39.1878C153.839 39.6 154.057 39.9801 154.345 40.3042C155.004 40.8352 155.841 41.0947 156.686 41.0298H161.902V38.9215H157.274C156.912 38.9375 156.556 38.8315 156.261 38.6203ZM148.581 17.6331C148.518 17.9269 148.397 18.2052 148.225 18.4519C148.054 18.6987 147.835 18.909 147.582 19.0706C146.295 19.5638 144.871 19.5638 143.584 19.0706C143.093 18.7593 142.744 18.2677 142.612 17.7016C142.373 16.6652 142.272 15.6019 142.311 14.5391C142.27 13.4476 142.381 12.3557 142.639 11.2945C142.701 11.0002 142.822 10.7213 142.993 10.4743C143.165 10.2274 143.384 10.0175 143.639 9.85702C144.247 9.5772 144.914 9.45031 145.583 9.48738C146.265 9.44855 146.946 9.57537 147.568 9.85702C147.825 10.0144 148.047 10.2234 148.219 10.4708C148.391 10.7183 148.509 10.9988 148.567 11.2945C148.813 12.3578 148.919 13.4485 148.882 14.5391C148.914 15.5971 148.813 16.655 148.581 17.6879V17.6331ZM148.869 7.913C147.845 7.49337 146.743 7.30182 145.638 7.35169C144.546 7.30252 143.457 7.49416 142.448 7.913C141.592 8.3507 140.942 9.10819 140.641 10.0213C140.167 11.4642 139.958 12.9808 140.025 14.498C139.961 16.0096 140.165 17.5205 140.627 18.9611C140.774 19.4055 141.009 19.816 141.317 20.1686C141.625 20.5212 142 20.8088 142.42 21.0146C144.508 21.745 146.781 21.745 148.869 21.0146C149.712 20.5916 150.356 19.8542 150.662 18.9611C151.137 17.5232 151.346 16.0108 151.278 14.498C151.34 12.9776 151.137 11.4579 150.676 10.0076C150.37 9.10036 149.721 8.34866 148.869 7.913ZM121.091 7.35169C120.108 7.31075 119.13 7.51295 118.243 7.94037C117.434 8.41553 116.833 9.17796 116.559 10.0761C116.123 11.4701 115.928 12.9287 115.984 14.3885C115.933 15.902 116.127 17.4139 116.559 18.8652C116.81 19.7482 117.387 20.5023 118.175 20.9735C119.062 21.3826 120.033 21.575 121.009 21.5348C122.459 21.5669 123.907 21.3918 125.308 21.0146V19.2212C124.054 19.3678 122.792 19.4364 121.529 19.4265C120.853 19.4709 120.177 19.3338 119.571 19.0295C119.079 18.6873 118.741 18.1666 118.627 17.5783C118.408 16.5391 118.316 15.4772 118.353 14.4159C118.315 13.3531 118.417 12.29 118.654 11.2534C118.785 10.6867 119.134 10.1946 119.626 9.8844C120.219 9.58723 120.88 9.45037 121.543 9.48738C122.268 9.48738 122.994 9.48738 123.692 9.58321C124.39 9.67905 124.924 9.72012 125.308 9.78857V7.913C124.665 7.72912 124.011 7.58736 123.35 7.4886C122.598 7.36869 121.838 7.30917 121.077 7.31062L121.091 7.35169ZM135.466 17.6057C135.337 18.1951 134.983 18.7109 134.48 19.0432C133.852 19.3219 133.167 19.4486 132.481 19.4128C131.79 19.4529 131.1 19.3261 130.469 19.0432C129.978 18.7319 129.629 18.2403 129.497 17.6742C129.271 16.6359 129.174 15.5737 129.209 14.5117C129.173 13.4211 129.279 12.3304 129.524 11.2671C129.655 10.6749 130.014 10.1583 130.524 9.82964C131.137 9.55182 131.809 9.42506 132.481 9.46C133.163 9.42279 133.844 9.54955 134.466 9.82964C134.721 9.98777 134.941 10.1972 135.11 10.4447C135.28 10.6922 135.396 10.9722 135.452 11.2671C135.863 13.3785 135.863 15.5492 135.452 17.6605L135.466 17.6057ZM135.726 7.913C133.651 7.16446 131.38 7.16446 129.305 7.913C128.457 8.35029 127.813 9.10204 127.512 10.0076C127.038 11.4505 126.829 12.9672 126.896 14.4843C126.828 15.9971 127.037 17.5095 127.512 18.9474C127.659 19.3918 127.893 19.8023 128.201 20.1549C128.509 20.5075 128.885 20.7952 129.305 21.0009C131.388 21.7314 133.657 21.7314 135.74 21.0009C136.161 20.7941 136.537 20.5063 136.847 20.1539C137.157 19.8016 137.395 19.3916 137.547 18.9474C138.022 17.5095 138.23 15.9971 138.163 14.4843C138.229 12.9627 138.02 11.4416 137.547 9.99392C137.397 9.54349 137.158 9.12749 136.846 8.7702C136.533 8.41291 136.152 8.1215 135.726 7.913ZM91.1366 19.0295C91.0007 18.8865 90.8973 18.7158 90.8335 18.5292C90.7697 18.3425 90.747 18.1442 90.7669 17.948V7.47491H88.4396V18.3039C88.3961 18.7366 88.4444 19.1737 88.5812 19.5865C88.718 19.9993 88.9403 20.3786 89.2336 20.6997C89.887 21.2324 90.7207 21.4923 91.561 21.4253H96.7907V19.317H92.1497C91.7878 19.3331 91.4309 19.227 91.1366 19.0158V19.0295ZM101.692 16.0176L103.65 9.47369L105.607 16.0176H101.692ZM102.212 7.47491L97.6805 21.4253H100.131L101.199 18.126H106.251L107.319 21.4253H109.714L105.169 7.47491H102.212ZM172.785 3.80591H170.855L169.171 6.43444H170.54L172.785 3.80591ZM160.368 14.1968C160.209 14.4052 160 14.5714 159.762 14.6811C159.523 14.7909 159.262 14.8408 158.999 14.8266H155.851V9.56952H159.068C160.245 9.56952 160.834 10.432 160.834 12.157C160.892 12.8704 160.725 13.5841 160.355 14.1968H160.368ZM159.301 7.47491H153.523V21.4253H155.851V16.6611C156.275 16.6611 156.864 16.7843 157.617 16.8528C158.37 16.9212 158.986 16.9486 159.342 16.9486C161.906 16.9486 163.184 15.3468 163.175 12.1433C163.256 11.4807 163.201 10.8085 163.013 10.168C162.824 9.52759 162.507 8.93253 162.08 8.41954C161.312 7.78261 160.339 7.44683 159.342 7.47491H159.301ZM168.172 7.47491C167.411 7.45229 166.667 7.70506 166.077 8.1868C165.764 8.48258 165.522 8.84595 165.37 9.24924C165.218 9.65253 165.161 10.0851 165.201 10.5142V18.5777C165.142 19.0197 165.199 19.4694 165.367 19.8825C165.535 20.2955 165.808 20.6574 166.159 20.9325C166.85 21.341 167.643 21.5451 168.446 21.5212C170.691 21.5212 172.608 21.439 174.196 21.2747V19.3307H168.856C168.671 19.3555 168.482 19.3372 168.304 19.2771C168.127 19.2171 167.966 19.117 167.833 18.9846C167.701 18.8521 167.601 18.691 167.541 18.5136C167.481 18.3362 167.463 18.1473 167.487 17.9617V15.5248L173.306 15.4016V13.5671L167.487 13.3891V10.9522C167.474 10.7689 167.5 10.5849 167.564 10.4125C167.628 10.2401 167.728 10.0834 167.857 9.95285C167.995 9.83318 168.156 9.74245 168.33 9.68601C168.504 9.62958 168.688 9.60859 168.87 9.62428H174.155V7.68026C173.046 7.68026 172.06 7.55705 171.197 7.52967C170.335 7.50229 169.322 7.52967 168.131 7.52967" fill="#42250A"/>
<path d="M44.5346 36.3614C44.4524 36.3614 44.3429 36.3614 44.3292 36.4846C44.3126 36.6805 44.3126 36.8774 44.3292 37.0733C44.3379 37.1093 44.3379 37.1468 44.3292 37.1828C44.2334 37.443 44.3292 37.6346 44.5346 37.6209C44.6052 37.5953 44.6678 37.5514 44.7159 37.4937C44.764 37.4359 44.7959 37.3665 44.8084 37.2924C44.8048 37.0061 44.7681 36.7213 44.6989 36.4436C44.6989 36.4436 44.6167 36.3477 44.603 36.3614H44.5346ZM55.0213 27.2711C54.7475 27.2711 54.7475 26.874 54.6243 26.6687C54.6511 26.6111 54.6832 26.5561 54.7201 26.5044L54.5696 26.3401L54.3094 25.9568C54.1862 25.7925 54.0767 25.7925 54.0082 25.9568C53.9398 26.1211 53.5565 25.8199 53.5017 26.0663C53.3922 26.6002 53.0089 26.5865 52.7488 26.8193C52.4886 27.052 52.3517 27.4217 51.9136 27.5038C51.4755 27.5859 51.2291 27.9693 50.8732 28.2294L50.3666 28.3252C49.8542 28.5937 49.3684 28.91 48.9155 29.2698C48.7921 29.4155 48.6311 29.5244 48.45 29.5847C48.2446 29.6669 47.9435 29.5847 47.7792 29.7901C47.2316 30.2829 46.4102 30.146 46.0268 30.9674C45.9447 30.9674 45.8351 30.9674 45.753 30.9674L42.6042 32.9252C42.3304 33.0073 42.0019 32.9252 41.8239 33.3222C40.9595 33.7121 40.1786 34.2653 39.5239 34.9513C38.9352 35.1019 38.2781 34.9513 37.7852 35.5263C37.6675 35.5402 37.5557 35.5857 37.4617 35.6581C37.3677 35.7304 37.295 35.8268 37.2513 35.937C36.8543 35.937 36.471 35.937 36.3751 36.5805C35.9644 36.5805 35.4579 36.2108 35.1841 36.9227C34.9787 36.9227 34.8008 37.1144 34.5954 37.1418C34.4024 37.1982 34.2181 37.2811 34.0478 37.3882C33.6194 37.5848 33.1495 37.6741 32.6788 37.6483C32.6324 37.6478 32.5873 37.6642 32.5521 37.6944C32.5168 37.7247 32.4937 37.7666 32.4871 37.8126C32.4484 37.9073 32.3819 37.9881 32.2964 38.0443C32.2108 38.1006 32.1103 38.1295 32.0079 38.1275C31.7545 38.1195 31.5024 38.1662 31.2687 38.2644C30.899 38.4423 30.5294 38.5793 30.1598 38.7298C29.7901 38.8804 29.4889 39.031 29.1604 39.1542C28.8318 39.2775 28.0378 39.1542 27.586 39.5376C27.4625 39.6239 27.3102 39.6583 27.1616 39.6334C26.5239 39.6313 25.8982 39.8067 25.3545 40.1399C24.6973 40.4137 24.6562 40.1399 24.0539 40.3042H23.9033L21.2611 40.1673C21.0177 40.1561 20.7752 40.1287 20.5355 40.0852C19.5908 39.9483 17.7974 39.5239 17.5647 39.4417C17.005 39.3643 16.4682 39.1683 15.9903 38.8667C15.4427 38.4287 15.607 38.1822 15.3195 38.2096H14.7719L14.3338 38.0727C14.2976 38.0801 14.2604 38.0801 14.2243 38.0727C13.9505 37.9084 12.7731 37.1965 12.5267 37.0049C12.104 36.7119 11.6973 36.3966 11.3082 36.0602L10.61 35.4305C10.391 35.1567 9.03563 33.3359 8.74814 33.3632C8.46064 33.3906 7.55708 31.6109 7.07792 30.721C6.74159 29.9577 6.49355 29.1585 6.33863 28.3389C6.20173 27.9282 5.91427 27.8871 5.85951 27.6955C5.83201 27.372 5.83201 27.0469 5.85951 26.7234V26.6276L5.69519 25.3681V23.9991C5.62674 23.6431 5.20236 21.1241 5.24343 20.7819C5.29635 20.1265 5.40166 19.4764 5.55832 18.8378L5.76367 17.9753V17.8658C6.15816 17.1271 6.43964 16.3333 6.59875 15.5111C6.59875 14.9498 7.36543 13.9504 7.55709 13.6355C7.71178 13.3428 7.93198 13.0898 8.20054 12.8963C8.57017 12.6224 8.58387 13.1016 9.06303 12.0064C9.36105 11.3423 9.75291 10.7245 10.2267 10.1719C10.858 9.60825 11.557 9.12537 12.3076 8.7344C13.3538 8.15838 14.3012 7.41891 15.1141 6.54395C15.2236 6.31122 16.1135 6.05111 16.401 5.96897C16.4659 5.95585 16.5269 5.92771 16.579 5.88682L17.0855 5.50349C17.1426 5.46237 17.2081 5.43433 17.2772 5.42135L18.2903 5.18862C18.7815 5.13288 19.2775 5.13288 19.7688 5.18862C20.248 5.29814 21.1378 4.87374 21.617 4.84636C22.0962 4.81898 22.7533 4.84636 22.8491 4.84636C23.4434 4.79748 24.0416 4.82508 24.6289 4.9285C25.144 5.06359 25.6715 5.14616 26.2033 5.17493C26.9072 5.32058 27.5985 5.52201 28.2705 5.7773C29.1741 6.11956 28.9413 5.87313 29.7764 6.50289C30.2008 6.83145 30.4336 6.50289 30.8717 6.94097C31.0485 7.08204 31.2415 7.20154 31.4466 7.29693C31.8847 7.48859 32.0079 7.85823 32.6651 7.98144C32.7776 8.02398 32.8801 8.08922 32.9663 8.1731C33.9778 8.88252 34.858 9.76272 35.5674 10.7743C35.6579 11.025 35.8197 11.2439 36.0329 11.404L36.2519 11.801C36.2519 11.801 36.3889 12.1022 36.4025 12.1159L36.649 13.0879C36.649 13.0879 36.8269 13.7177 37.1829 13.8956L39.168 14.1694C39.168 14.1694 40.8929 13.8272 40.9203 13.7861L41.112 13.5123C41.196 13.2377 41.2193 12.9481 41.1804 12.6635L40.7561 11.404C40.7266 11.326 40.6798 11.2558 40.6191 11.1987L40.4412 10.8016C40.3944 10.771 40.3566 10.7285 40.3317 10.6784L39.743 9.61058V9.50106L39.4829 8.58381C39.4563 8.52175 39.4242 8.4622 39.387 8.40584L39.0174 7.95405L38.7709 7.65287L38.237 6.79038C38.2073 6.72413 38.1599 6.6673 38.1001 6.62609L37.2103 6.01003L35.9644 4.91481L35.1157 4.25768L33.7466 3.25828L31.1865 1.88925H31.1181L27.8872 0.739272H27.7229L26.8056 0.657123H26.6824L26.1074 0.520222H25.9842C25.6979 0.379903 25.3856 0.30065 25.067 0.28749C24.6943 0.239648 24.317 0.239648 23.9444 0.28749C22.5136 0.176061 21.0764 0.176061 19.6456 0.28749C18.9748 0.561296 16.7843 1.06784 16.4421 1.17736C16.0998 1.28688 13.3892 2.38211 13.088 2.54639L11.4999 3.42257H11.4041L10.2951 4.3672H10.213L8.93982 5.09279C8.13226 5.52357 7.35469 6.00839 6.61246 6.54395C6.32496 6.87252 5.51724 7.72132 5.38034 7.91298C5.24344 8.10465 4.23035 9.41892 4.17559 9.56951C4.12083 9.7201 2.64226 10.829 2.49167 12.1433C2.34107 13.4575 2.49169 12.1433 1.79349 13.7451C1.49681 14.3995 1.25414 15.0772 1.06791 15.7712C1.04111 15.8288 1.00902 15.8838 0.972063 15.9355C0.813785 16.1229 0.697615 16.3421 0.631477 16.5783C0.56534 16.8145 0.550782 17.0622 0.588737 17.3045C0.655673 17.8739 0.609135 18.4509 0.451825 19.0021C0.381753 19.4906 0.285797 19.975 0.164341 20.4533C0.157936 20.4803 0.157936 20.5084 0.164341 20.5354C0.0272509 21.6722 0.0272509 22.8213 0.164341 23.958C0.348878 24.5104 0.481757 25.0787 0.561329 25.6556C0.598437 26.2454 0.704123 26.8289 0.876221 27.3943C1.1018 28.7497 1.52623 30.0645 2.13575 31.296C2.447 31.6873 2.62878 32.1658 2.65594 32.665C2.6723 32.7589 2.70977 32.8479 2.76549 32.9252L3.21725 33.4728C3.7978 34.2611 4.33705 35.0791 4.83274 35.9233C4.95595 36.1013 5.61308 37.087 6.20177 37.8947C6.79045 38.7025 7.36542 38.8394 8.36481 39.6334C9.3642 40.4274 8.77552 39.3596 9.73384 40.4959C10.4457 41.3721 10.9112 41.8649 11.1029 42.125C11.1584 42.1814 11.2232 42.2277 11.2945 42.2619C12.8279 42.976 14.4411 43.5046 16.0998 43.8363C16.6282 43.7793 17.1623 43.8643 17.6468 44.0827C18.2103 44.3032 18.808 44.4237 19.4129 44.4387C19.9742 44.4387 20.3575 44.2333 20.7819 44.7399C20.7819 44.7399 20.9736 44.7399 21.0694 44.7399C21.6251 44.7877 22.1839 44.7877 22.7396 44.7399C23.0227 44.6543 23.2906 44.525 23.5336 44.3566C23.6286 44.2799 23.747 44.238 23.8691 44.238C23.9911 44.238 24.1095 44.2799 24.2045 44.3566C24.5313 44.5656 24.9045 44.6911 25.2912 44.7222C25.6779 44.7532 26.0663 44.6888 26.4223 44.5345C27.011 44.3839 27.5586 43.9869 28.1884 44.2333C28.8181 44.4798 28.7771 44.2333 28.914 43.7542C29.0509 43.275 29.1056 43.3435 29.4479 43.7542C29.7901 44.1649 30.1187 44.2333 30.3241 43.7542C30.3917 43.4897 30.474 43.2292 30.5705 42.9738C30.6663 42.8096 30.8443 42.5905 31.0496 42.7685C31.5151 43.1929 31.8026 43.1244 31.9943 42.4536C32.0476 42.3467 32.1389 42.2636 32.2503 42.2205C32.3618 42.1775 32.4853 42.1776 32.5966 42.2209C32.8568 42.3578 33.8698 42.8643 33.9657 42.4536C34.0615 42.0429 33.9657 41.7828 34.2121 41.6596C34.4585 41.5364 34.5817 41.7691 34.6228 41.8786C34.6639 41.9881 35.3484 41.8786 35.3484 41.6048C35.3416 41.5457 35.3416 41.486 35.3484 41.4268C35.3484 41.4268 34.9788 40.9887 35.4579 41.0298C35.5537 41.6596 36.8269 41.2762 36.8269 41.0298C36.8269 40.7834 36.9501 41.0298 36.8954 40.6328C36.8406 40.2358 37.1007 40.3864 37.1829 40.2905C37.2812 40.1877 37.3864 40.0916 37.4978 40.003C37.6024 39.9501 37.7126 39.9087 37.8263 39.8798C38.0318 39.8439 38.2334 39.7889 38.4287 39.7155H38.5245L38.9489 39.428C38.9489 38.9763 39.4007 39.3459 39.4555 38.8941C39.4588 38.8478 39.4716 38.8027 39.4929 38.7615C39.5142 38.7203 39.5437 38.6839 39.5796 38.6545C39.6154 38.625 39.6569 38.6031 39.7015 38.5902C39.746 38.5773 39.7927 38.5736 39.8388 38.5793C39.8388 38.7983 39.8388 38.9763 40.0441 39.0584C40.2495 39.1406 40.3317 38.9489 40.3727 38.7025C40.4686 37.9769 40.8108 37.6209 41.4543 37.5935C41.6788 37.597 41.8971 37.5203 42.0702 37.3773C42.2433 37.2343 42.3598 37.0343 42.3989 36.8132C42.7411 36.5531 43.3161 36.5394 43.6584 36.2793C44.0006 36.0192 44.8632 34.8144 44.959 34.9924C45.1917 35.4168 45.2465 35.4442 45.4655 34.9924C45.6846 34.5406 45.9857 34.9103 46.2322 34.8555C46.4512 34.4448 46.2322 33.9382 46.4101 33.4865C46.4372 33.3963 46.4954 33.3186 46.5744 33.2674C46.6217 33.2597 46.6702 33.266 46.7139 33.2855C46.7577 33.3049 46.7949 33.3367 46.8208 33.3769C46.9167 33.5001 46.9578 33.7055 47.0536 33.815C47.1035 33.8646 47.1637 33.9025 47.23 33.9262C47.2962 33.9499 47.3669 33.9586 47.4369 33.9519C47.5135 33.9295 47.5786 33.8789 47.6193 33.8103C47.6599 33.7417 47.6731 33.6602 47.656 33.5823C47.656 33.418 47.519 33.2811 47.5327 33.1031C47.5464 32.9252 47.8339 32.843 47.9845 32.7335C48.0824 32.8554 48.1652 32.9887 48.2309 33.1305C48.3815 33.5549 48.6279 33.5275 48.9018 33.3906C49.1756 33.2537 49.2577 32.7746 49.1756 32.3502C49.3946 31.9668 49.1756 31.5151 49.1756 30.899C49.2826 31.2686 49.4913 31.6006 49.778 31.8573C49.9039 31.9172 50.0462 31.9335 50.1825 31.9038C50.3188 31.8741 50.4413 31.7999 50.5309 31.693C50.5309 31.4877 50.5309 31.2823 50.5309 31.0907C50.8184 30.9674 51.1881 31.0907 51.366 30.6526C51.544 30.2145 51.5851 30.6526 51.6261 30.7484C51.6672 30.8442 51.8041 31.2139 52.0095 31.0907C52.2148 30.9674 52.3928 30.5841 52.7214 30.6936C53.0499 30.8032 53.1731 30.5157 53.269 30.1734C53.269 30.0913 53.5017 30.0776 53.6249 30.0365C54.0493 29.7353 54.816 29.7901 54.5559 28.6675C54.4737 28.5169 54.3505 28.4074 54.4189 28.2157C54.4854 28.1447 54.5588 28.0805 54.638 28.024C54.8317 27.9129 54.9923 27.7522 55.1035 27.5586C55.1236 27.4623 55.1118 27.362 55.0698 27.2731C55.0278 27.1841 54.9579 27.1113 54.8707 27.0657L55.0213 27.2711ZM37.6073 14.9772C37.6073 15.1141 37.84 15.1278 37.9495 15.1552C38.059 15.1825 38.0317 15.1552 38.0728 15.1552C38.1138 15.1552 38.0728 14.7581 38.0728 14.5665C37.9792 14.5856 37.8876 14.6131 37.7989 14.6486C37.7031 14.6486 37.5115 14.8266 37.5936 14.9909L37.6073 14.9772ZM43.056 38.0316C42.878 38.1138 43.056 38.2918 43.056 38.4287L43.2066 38.2644C43.2066 38.1138 43.2066 37.9769 43.056 38.0316ZM36.3615 14.2927C36.3615 14.4159 36.3615 14.5254 36.3615 14.6349C36.3615 14.9498 36.4983 15.1825 36.7995 15.0456C37.1007 14.9087 37.2513 14.9087 37.3745 14.6486C37.3339 14.6292 37.2895 14.6191 37.2445 14.6191C37.1995 14.6191 37.155 14.6292 37.1144 14.6486C36.868 14.5117 36.7174 13.9367 36.3478 14.3474L36.3615 14.2927ZM38.2096 41.1667C37.9632 41.0161 37.8126 40.4548 37.443 40.8655C37.4362 40.9795 37.4362 41.0938 37.443 41.2078C37.443 41.5227 37.5662 41.7417 37.8674 41.6185C38.1686 41.4953 38.3192 41.4816 38.4424 41.2215C38.4024 41.1999 38.3577 41.1886 38.3123 41.1886C38.2669 41.1886 38.2222 41.1999 38.1823 41.2215L38.2096 41.1667ZM41.9608 38.2781C41.8676 38.3303 41.7966 38.4147 41.7613 38.5156C41.726 38.6164 41.7288 38.7267 41.7691 38.8257C41.7691 38.9763 41.8786 39.1542 42.0703 39.0858C42.1455 39.0693 42.2115 39.0246 42.2548 38.961C42.298 38.8973 42.3153 38.8195 42.3031 38.7435C42.3031 38.4971 42.1935 38.3054 41.9608 38.2781Z" fill="#42250A"/>
<path d="M63.783 30.1186C63.5092 30.1186 63.5092 29.7216 63.386 29.5163C63.4128 29.4586 63.4449 29.4037 63.4818 29.352L63.3312 29.1877L63.0711 28.8044C62.9479 28.6401 62.8383 28.6401 62.7699 28.8044C62.7014 28.9686 62.3181 28.6538 62.2634 28.9002C62.1538 29.4341 61.7705 29.4204 61.5104 29.6532C61.2503 29.8859 61.0997 30.2555 60.6753 30.3377C60.2509 30.4198 59.9771 30.8031 59.6211 31.0496L59.0598 31.1865C58.5474 31.455 58.0616 31.7712 57.6087 32.1311C57.4789 32.2694 57.3199 32.377 57.1432 32.446C56.9242 32.446 56.6367 32.446 56.4587 32.6376C55.9248 33.1168 55.0897 32.9799 54.7063 33.8013C54.6105 33.8013 54.501 33.8013 54.4325 33.8013L51.2701 35.7316C51.6123 35.8412 51.8861 35.9918 51.8587 36.4983C51.8312 36.5609 51.817 36.6285 51.817 36.6968C51.817 36.7652 51.8312 36.8328 51.8587 36.8953L52.201 37.2239C52.2047 37.2511 52.2047 37.2788 52.201 37.306V37.3882C52.201 37.7715 50.9552 39.2774 50.9689 39.6744C51.3111 39.4143 51.8998 39.4006 52.2284 39.1405C52.557 38.8804 53.4468 37.6757 53.5974 37.8673C53.8302 38.2917 53.8849 38.3191 54.104 37.8673C54.323 37.4156 54.6242 37.7852 54.8843 37.7304C55.0897 37.3334 54.8843 36.8269 55.0622 36.3614C55.0713 36.3166 55.091 36.2746 55.1196 36.2388C55.1481 36.2031 55.1848 36.1747 55.2266 36.156C55.2722 36.1522 55.3181 36.1589 55.3608 36.1755C55.4035 36.1921 55.4419 36.2182 55.473 36.2519C55.5688 36.3888 55.5962 36.5941 55.7057 36.7037C55.755 36.754 55.8152 36.7925 55.8816 36.8162C55.948 36.8399 56.0189 36.8483 56.089 36.8406C56.163 36.8154 56.225 36.7637 56.263 36.6953C56.3009 36.627 56.3122 36.547 56.2944 36.4709C56.2944 36.3066 56.1712 36.1697 56.1849 35.9918C56.1986 35.8138 56.4861 35.7316 56.6367 35.6221C56.7346 35.744 56.8173 35.8773 56.8831 36.0191C57.0337 36.4435 57.2664 36.4162 57.5402 36.293C57.814 36.1697 57.9235 35.6769 57.8277 35.2525C58.0604 34.8692 57.8277 34.4037 57.8277 33.8013C58.0468 34.3079 58.1836 34.5954 58.4438 34.7596C58.5692 34.822 58.7122 34.8396 58.8491 34.8098C58.986 34.7799 59.1086 34.7043 59.1967 34.5954C59.1967 34.39 59.1967 34.1983 59.1967 33.993C59.4842 33.8698 59.8539 33.993 60.0318 33.5686C60.2098 33.1442 60.2509 33.5686 60.292 33.6644C60.333 33.7602 60.4562 34.1299 60.6753 34.0067C60.8943 33.8835 61.0586 33.5001 61.3872 33.6096C61.7158 33.7192 61.839 33.4317 61.9348 33.1031C61.9348 33.0073 62.1675 33.0073 62.3044 32.9662C62.7288 32.665 63.4955 32.7198 63.2217 31.5972C63.1532 31.4466 63.03 31.3371 63.0985 31.1454C63.165 31.0744 63.2383 31.0102 63.3175 30.9537C63.5183 30.8475 63.6846 30.686 63.7967 30.4883C63.8125 30.3922 63.7988 30.2936 63.7572 30.2055C63.7156 30.1175 63.6482 30.0442 63.564 29.9954" fill="#926A38"/>
<path d="M43.4943 34.431V34.5132V34.5953C43.4943 34.9786 42.2621 36.4983 42.2895 36.8816C42.6318 36.6215 43.2068 36.6078 43.549 36.3477C43.8913 36.0875 44.7538 34.8828 44.8496 35.0608C45.0823 35.4852 45.1371 35.5126 45.3561 35.0608C45.5752 34.609 45.8764 34.9786 46.1228 34.9239C46.3418 34.5132 46.1228 34.0203 46.3008 33.5548C46.3008 33.4727 46.3966 33.3632 46.465 33.3495C46.511 33.3386 46.5592 33.3419 46.6032 33.359C46.6472 33.3761 46.685 33.4062 46.7115 33.4453C46.8073 33.5685 46.8484 33.7739 46.9442 33.8834C46.9941 33.933 47.0543 33.9709 47.1206 33.9946C47.1868 34.0182 47.2575 34.027 47.3275 34.0203C47.4041 33.9979 47.4692 33.9473 47.5099 33.8787C47.5506 33.81 47.5637 33.7286 47.5466 33.6507C47.5466 33.4864 47.4097 33.3495 47.4234 33.1715C47.4371 32.9935 47.7245 32.9114 47.8751 32.8019C48.3132 32.4596 48.4091 33.2947 48.7787 33.2263C49.1483 33.1578 48.8746 32.6376 49.0662 32.4185C49.2853 32.0489 49.0662 31.5834 49.0662 31.0495C49.299 31.5424 49.4221 31.8299 49.6823 31.9941C49.8082 32.054 49.9505 32.0704 50.0868 32.0406C50.2231 32.0109 50.3457 31.9368 50.4353 31.8299C50.4353 31.6245 50.4353 31.4191 50.4353 31.2275C50.7091 30.9263 51.2841 30.7483 50.7364 30.0775C50.7067 29.811 50.7492 29.5415 50.8596 29.2972C50.9008 29.08 50.9008 28.8571 50.8596 28.64C50.8203 28.4965 50.7393 28.3679 50.6269 28.2704L50.1204 28.3662C49.608 28.6347 49.1221 28.951 48.6692 29.3108C48.5425 29.456 48.3829 29.5687 48.2037 29.6394C47.9984 29.6394 47.6972 29.6394 47.5192 29.8311C46.9853 30.3239 46.1502 30.187 45.7805 31.0358C45.6984 31.0358 45.5889 31.0358 45.5067 31.0358L42.3579 32.9935C42.4476 33.0036 42.5344 33.0316 42.613 33.076C42.6916 33.1203 42.7604 33.1801 42.8154 33.2516C42.8704 33.3232 42.9103 33.4052 42.9328 33.4925C42.9554 33.5799 42.9601 33.6709 42.9467 33.7602C42.9194 33.8204 42.9053 33.8858 42.9053 33.9519C42.9053 34.0179 42.9194 34.0833 42.9467 34.1435L43.2889 34.4721" fill="#926A38"/>
<path d="M59.0597 24.3413L59.3335 23.9306C59.5662 23.5473 59.265 23.4241 59.087 23.2461V23.0818L58.8406 23.1914C58.8241 23.1687 58.8025 23.1503 58.7775 23.1376C58.7525 23.1249 58.7249 23.1183 58.6968 23.1183C58.6688 23.1183 58.6412 23.1249 58.6163 23.1376C58.5913 23.1503 58.5696 23.1687 58.5531 23.1914C58.3751 23.4378 58.1835 23.6705 57.9918 23.9032C57.8772 23.8667 57.7531 23.8745 57.644 23.9253C57.535 23.976 57.449 24.0659 57.4031 24.177C57.0472 24.3413 56.7871 24.711 56.2942 24.2455C55.8014 23.78 55.596 24.2455 55.5002 24.8205C55.5002 24.9711 55.5002 25.1491 55.4317 25.2997C55.3093 25.6335 55.2727 25.9927 55.3254 26.3443C55.378 26.696 55.5181 27.0288 55.7329 27.3121C55.7329 27.3121 55.7329 27.5312 55.7329 27.6407C55.6639 27.7483 55.6369 27.8776 55.6571 28.0038C55.6773 28.1301 55.7432 28.2445 55.8424 28.3252C56.0204 28.3252 56.2668 28.4074 56.3079 28.1609C56.39 27.6955 56.7186 27.8461 56.924 27.7228C57.2799 27.1068 56.7734 26.0389 57.5948 25.683C57.7453 25.3754 57.8292 25.0395 57.8412 24.6973L58.3751 25.4913C58.1972 25.4092 58.0192 25.4913 57.8823 25.7241C57.8879 25.7743 57.876 25.8249 57.8485 25.8673C57.8211 25.9097 57.7798 25.9413 57.7317 25.9568L58.6353 26.7098C58.9837 26.585 59.2881 26.3614 59.5114 26.0663C59.6757 26.0663 59.7579 25.9294 59.8263 25.7651C59.8948 25.6008 59.7578 25.4503 59.7305 25.286C59.8537 24.6836 59.2513 24.752 59.1418 24.3687L59.0597 24.3413ZM60.3876 25.7377C60.4922 25.7389 60.5954 25.7146 60.6884 25.6669C60.7815 25.6192 60.8615 25.5495 60.9215 25.4639C60.9215 25.2312 60.9215 24.9848 60.9215 24.752C60.3876 24.93 60.3876 24.93 60.4424 25.7377H60.3876ZM61.8114 22.3562C61.8248 22.2838 61.8248 22.2096 61.8114 22.1372C61.4965 22.3699 61.1953 22.3836 60.9489 21.9318C60.8257 21.7949 60.7162 21.8086 60.634 21.9318C60.7162 22.4247 60.4013 22.7943 60.3739 23.3009C60.5245 23.5336 60.6751 23.4515 60.8394 23.3009C61.0037 23.1503 61.5376 22.8217 61.8799 22.589C61.8799 22.589 61.8799 22.589 61.8799 22.4931C61.8799 22.3973 61.8798 22.3699 61.784 22.3152L61.8114 22.3562ZM54.9526 27.2711C54.6788 27.2711 54.6788 26.874 54.5555 26.6687C54.2967 26.5009 54.0847 26.27 53.9395 25.9979C53.7615 25.9979 53.4877 25.861 53.433 26.1074C53.3234 26.6413 52.9401 26.6276 52.68 26.8603C52.4199 27.0931 52.283 27.4627 51.8449 27.5449C51.4068 27.627 51.1604 28.0103 50.8044 28.2705C50.8044 28.421 50.8044 28.5853 50.8044 28.7496C50.8044 28.9139 50.8044 29.7079 50.2294 30.1186C50.3252 30.1186 50.3663 30.3514 50.4622 30.4198C50.5604 30.4551 50.6564 30.4962 50.7496 30.543C50.955 30.6936 50.7497 30.8716 50.6401 30.9948C50.5306 31.118 50.6401 31.1865 50.558 31.2823C50.8455 31.1591 51.2151 31.2823 51.3931 30.8442C51.5711 30.4061 51.6121 30.8442 51.6532 30.9401C51.6943 31.0359 51.8312 31.4192 52.0365 31.2823C52.2419 31.1454 52.4199 30.7758 52.7485 30.8853C53.077 30.9948 53.2002 30.7073 53.2961 30.3651C53.2961 30.2829 53.5288 30.2829 53.652 30.2282C54.0764 29.927 54.8431 29.9817 54.5829 28.8591C54.5008 28.7085 54.3776 28.599 54.446 28.4074C54.5077 28.3366 54.5765 28.2724 54.6514 28.2157C54.8518 28.1088 55.0179 27.9474 55.1306 27.7502C55.1507 27.6539 55.1389 27.5537 55.0969 27.4647C55.0549 27.3758 54.985 27.303 54.8978 27.2574L54.9526 27.2711ZM47.6146 31.3645C47.6146 31.1591 47.4503 30.9948 47.286 31.1043C47.2186 31.163 47.1671 31.2375 47.136 31.3212C47.1049 31.405 47.0953 31.4951 47.108 31.5835C47.108 32.049 47.642 32.2133 47.642 31.6656C47.6087 31.6225 47.5906 31.5695 47.5906 31.515C47.5906 31.4605 47.6087 31.4076 47.642 31.3645H47.6146ZM48.833 33.1031C48.5866 32.7472 48.3539 32.3502 47.9432 32.7882C48.0411 32.9101 48.1238 33.0434 48.1896 33.1853C48.3402 33.6097 48.5866 33.5823 48.8467 33.4454C49.1068 33.3085 49.2163 32.8293 49.1342 32.4049C48.7919 32.4049 48.9562 32.8841 48.833 33.1031Z" fill="#BD934D"/>
<path d="M57.6906 24.6151C57.362 24.8204 57.3757 25.2448 57.2936 25.6145L57.7728 25.7377L58.4983 25.6419C58.4983 24.6835 58.4983 24.6835 57.6906 24.6151ZM54.1996 25.9841C54.0901 25.8198 53.9805 25.8198 53.9121 25.9841C53.9121 26.5454 54.1448 26.6549 54.5145 26.6823L54.624 26.4907L54.4734 26.3264L54.1996 25.9431V25.9841ZM63.8786 21.2336C63.7417 21.3842 63.7554 21.6306 63.6459 21.7812C63.6974 21.6944 63.7173 21.5925 63.7023 21.4928C63.6873 21.393 63.6384 21.3015 63.5638 21.2336C63.4515 21.21 63.3346 21.2273 63.2341 21.2826C63.1336 21.3379 63.0563 21.4273 63.0162 21.5348C63.0162 21.8907 62.8519 21.658 62.756 21.5348H62.1673V21.2062C62.1214 21.0662 62.0298 20.9456 61.9072 20.864C61.7861 20.8413 61.661 20.8636 61.5552 20.9266C61.4493 20.9896 61.3701 21.089 61.3322 21.2062C61.3035 21.3353 61.3128 21.4699 61.359 21.5938C61.4051 21.7177 61.4862 21.8256 61.5924 21.9044V22.0276C61.5924 22.0276 61.5924 22.0276 61.5924 22.1645C61.5914 22.2016 61.6013 22.2382 61.6207 22.2698C61.6402 22.3013 61.6683 22.3266 61.7019 22.3425L61.4281 22.4383C60.9352 22.4383 60.6066 22.9586 60.1959 23.1913C59.9409 23.0258 59.7483 22.7802 59.6483 22.4931C59.5662 22.3425 59.4703 22.3425 59.3882 22.4931L59.0596 23.0955C59.0175 23.2057 59.0175 23.3275 59.0596 23.4377C59.0935 23.5493 59.0935 23.6684 59.0596 23.78C58.9562 23.9493 58.8996 24.143 58.8954 24.3413C59.0297 24.7411 59.204 25.1264 59.4156 25.4913C59.4793 25.6079 59.5806 25.6996 59.7031 25.7514L60.2644 25.6556C60.4424 25.4091 60.4697 25.0669 60.6477 24.8204C60.6246 24.917 60.6263 25.0179 60.6526 25.1136C60.6789 25.2094 60.729 25.2969 60.7983 25.3681H61.0721C61.7429 25.3681 61.9209 25.3681 61.9346 24.2865C61.9346 23.958 61.8251 23.6294 61.7977 23.2871C61.7703 22.9449 61.9893 22.9723 62.1673 22.9449V23.6431L62.4274 23.9717L63.0162 23.3145L63.331 23.027C63.4681 23.0433 63.602 23.0802 63.728 23.1365C63.8923 23.2187 63.9334 23.5336 64.1387 23.424C64.3441 23.3145 64.4125 22.9449 64.303 22.6848C64.2244 22.4476 64.1937 22.1973 64.2125 21.9482C64.2313 21.6991 64.2993 21.4562 64.4126 21.2336C64.3793 21.1909 64.3367 21.1564 64.288 21.1327C64.2394 21.1089 64.186 21.0966 64.1319 21.0966C64.0778 21.0966 64.0244 21.1089 63.9757 21.1327C63.9271 21.1564 63.8845 21.1909 63.8512 21.2336H63.8786ZM50.8455 29.3656C50.6401 29.5573 50.3663 29.6805 50.3115 30.0638C50.6401 30.0638 50.9961 30.2966 51.1877 29.7763C51.1023 29.7397 51.0268 29.6835 50.9673 29.6121C50.9078 29.5407 50.8661 29.4562 50.8455 29.3656ZM53.8436 28.599C53.8436 28.7222 54.0901 28.7359 54.1859 28.7769C54.2817 28.818 54.2681 28.7769 54.3228 28.7769V28.1883C54.2293 28.2074 54.1376 28.2349 54.049 28.2704C53.9532 28.2704 53.7615 28.4484 53.8436 28.6263V28.599ZM52.543 28.6263C52.4061 28.6263 52.2419 28.7906 52.1734 28.7359C51.8859 28.4894 51.6669 28.6537 51.4341 28.7359C51.4341 28.9549 51.4341 29.1603 51.4341 29.3656C51.4341 29.571 51.4341 29.5162 51.4341 29.5162L52.8032 29.0508C52.7347 28.8865 52.721 28.6811 52.543 28.6127" fill="#EAC166"/>
<path d="M39.7837 36.4299H39.6468L39.5236 36.3615C39.5236 36.1698 39.5236 36.0055 39.77 36.0603C39.7907 36.1642 39.7907 36.2712 39.77 36.3752L39.7837 36.4299ZM39.77 35.677L39.4415 34.9651C39.6802 34.999 39.9088 35.0837 40.1119 35.2136C40.3151 35.3435 40.4879 35.5155 40.6188 35.718H41.1801C41.1948 35.6249 41.2177 35.5333 41.2485 35.4442C41.2485 35.3347 41.3992 35.3621 41.4539 35.4442C41.5087 35.5264 41.2349 35.6633 41.1938 35.677C41.1527 35.6906 41.317 35.8823 41.3992 35.9097C41.4619 35.9364 41.5294 35.9502 41.5977 35.9502C41.6659 35.9502 41.7334 35.9364 41.7962 35.9097C41.9468 35.8139 41.8646 35.5948 41.7962 35.4442C41.7275 35.2954 41.6449 35.1533 41.5497 35.0198C41.4539 34.8555 41.3991 34.7186 41.5497 34.6365C42.3027 34.3216 41.8646 33.7466 41.7003 33.2675C40.836 33.6574 40.055 34.2106 39.4004 34.8966C38.8117 35.0472 38.1545 34.8966 37.6617 35.4716C37.5448 35.4882 37.4343 35.5348 37.3407 35.6067C37.2472 35.6787 37.1738 35.7736 37.1278 35.8823C36.7308 35.8823 36.3474 35.8823 36.2516 36.5258C35.8409 36.5258 35.3344 36.1561 35.0605 36.868C35.4849 36.868 35.9778 37.1555 36.2516 36.5531C36.4205 36.4798 36.6015 36.438 36.7855 36.4299C37.1278 36.4299 37.1552 36.2109 37.1278 35.896C37.4016 35.896 37.6069 35.896 37.648 35.499C37.7939 35.5665 37.9528 35.6014 38.1135 35.6014C38.2742 35.6014 38.4331 35.5665 38.579 35.499C38.8254 35.3621 39.0307 35.499 39.1813 35.7317L39.3456 36.5121C39.4414 36.7174 39.5784 36.8269 39.7837 36.7722C39.8618 36.7053 39.9244 36.6224 39.9674 36.5291C40.0103 36.4357 40.0326 36.3342 40.0326 36.2314C40.0326 36.1286 40.0103 36.0271 39.9674 35.9338C39.9244 35.8404 39.8618 35.7575 39.7837 35.6906L39.77 35.677ZM41.7551 36.8543C41.6729 36.9912 41.4813 37.1281 41.4265 36.9638C41.2622 36.5121 41.1253 36.4573 40.8789 36.8406C40.6877 37.1293 40.3942 37.3347 40.0575 37.4156C39.6057 37.5115 39.6879 37.7716 39.8795 38.1138C39.9286 38.1907 39.9487 38.2825 39.9361 38.3729C39.9236 38.4632 39.8793 38.5461 39.8111 38.6067C39.8111 38.8257 39.8111 39.0037 40.0164 39.0858C40.2218 39.168 40.3039 38.9763 40.345 38.7299C40.4408 38.0043 40.7831 37.6484 41.4265 37.621C41.651 37.6244 41.8694 37.5477 42.0425 37.4047C42.2156 37.2617 42.3321 37.0617 42.3712 36.8406C42.1658 36.7448 41.9467 36.5121 41.7551 36.8406V36.8543ZM44.6164 36.3889C44.6164 36.3889 44.5342 36.293 44.5205 36.3067C44.5069 36.3204 44.3289 36.3067 44.3152 36.4299C44.2986 36.6258 44.2986 36.8227 44.3152 37.0186C44.3239 37.0546 44.3239 37.0921 44.3152 37.1281C44.2194 37.3882 44.3152 37.5799 44.5205 37.5662C44.5912 37.5406 44.6538 37.4967 44.7019 37.439C44.75 37.3812 44.7819 37.3117 44.7943 37.2376C44.784 36.952 44.7473 36.6678 44.6848 36.3889H44.6164ZM43.0557 38.0317C42.8777 38.1138 43.0557 38.2918 43.0557 38.4287L43.2063 38.2644C43.2063 38.1138 43.2063 37.9769 43.0557 38.0317ZM37.9081 36.4436C37.8274 36.4689 37.7539 36.5129 37.6936 36.5722C37.6333 36.6314 37.5879 36.7041 37.5611 36.7843C37.5344 36.8645 37.5271 36.9499 37.5398 37.0335C37.5525 37.1171 37.5849 37.1964 37.6343 37.265C37.8123 37.4567 37.9629 37.3472 38.0861 37.1555C38.0014 37.1233 37.9227 37.077 37.8534 37.0186C37.7712 36.9365 37.8534 36.8406 37.8534 36.7859C37.8534 36.7311 37.9492 36.7859 37.9629 36.7859L38.045 37.0734C38.1215 37.0231 38.1783 36.9479 38.2057 36.8606C38.2332 36.7733 38.2296 36.6792 38.1956 36.5942C38.1648 36.5293 38.1164 36.4743 38.0559 36.4356C37.9954 36.3969 37.9252 36.3759 37.8534 36.3752L37.9081 36.4436Z" fill="#6A4621"/>
<path d="M67.9044 27.2437C67.9866 27.1068 68.0824 26.9699 68.1782 26.833C68.411 26.4497 68.1782 26.3265 67.9455 26.1485L67.8771 25.9842L67.6443 26.0937C67.5485 25.9842 67.4527 25.9705 67.3568 26.0937L66.7819 26.8056C66.6691 26.7648 66.545 26.7691 66.4353 26.8175C66.3256 26.866 66.2389 26.9549 66.1931 27.0657C65.8372 27.23 65.5771 27.586 65.0842 27.0657C64.5914 26.5455 64.386 27.0657 64.2902 27.6407C64.2771 27.8026 64.2496 27.9629 64.2081 28.1199C64.0857 28.456 64.0492 28.8173 64.1017 29.1711C64.1543 29.525 64.2944 29.86 64.5093 30.146C64.5093 30.146 64.5093 30.3514 64.5093 30.4746C64.444 30.581 64.4192 30.7072 64.4393 30.8304C64.4594 30.9535 64.5231 31.0653 64.6188 31.1454C64.7967 31.1454 65.0432 31.2413 65.0842 30.9948C65.1664 30.5294 65.4949 30.68 65.714 30.5568C66.0699 29.9544 65.5634 28.8729 66.3985 28.5169C66.5379 28.2054 66.6214 27.8717 66.6449 27.5312L67.1788 28.3389C66.9872 28.2568 66.8229 28.3389 66.6723 28.5717C66.678 28.6183 66.6675 28.6655 66.6426 28.7054C66.6177 28.7453 66.5798 28.7754 66.5354 28.7907L67.4253 29.5574C67.7758 29.4295 68.0839 29.2067 68.3152 28.9139C68.4658 28.9139 68.5616 28.777 68.6163 28.6127C68.6711 28.4485 68.5479 28.2979 68.5205 28.1473C68.6574 27.5312 68.055 27.5996 67.9455 27.2163L67.9044 27.2437ZM69.1913 28.5169C69.2929 28.521 69.3939 28.4993 69.4849 28.4538C69.5759 28.4083 69.6538 28.3405 69.7116 28.2568V27.5449C69.1639 27.7092 69.1639 27.7229 69.2324 28.5169H69.1913ZM70.6014 25.1491C70.6147 25.0813 70.6147 25.0115 70.6014 24.9437C70.2728 25.1628 69.9853 25.1765 69.7389 24.7247C69.6157 24.5878 69.5062 24.6015 69.4241 24.7247C69.5062 25.2312 69.1913 25.5872 69.1502 26.0937C69.3008 26.3128 69.4514 26.2443 69.6157 26.0937C69.78 25.9431 70.3139 25.6282 70.6699 25.3955C70.6699 25.3955 70.6699 25.3955 70.6699 25.2997C70.6699 25.2038 70.6699 25.1765 70.574 25.1217L70.6014 25.1491ZM63.8658 30.0639C63.592 30.0639 63.592 29.6669 63.4551 29.4615C63.2038 29.289 62.9973 29.059 62.8527 28.7907C62.6884 28.7907 62.4009 28.6401 62.3462 28.8865C62.2366 29.4205 61.8533 29.4068 61.5932 29.6395C61.3331 29.8722 61.1825 30.2419 60.7581 30.324C60.3337 30.4062 60.0599 30.7895 59.704 31.0359C59.704 31.2002 59.704 31.3645 59.704 31.5151C59.704 31.6657 59.7039 32.4871 59.1289 32.8841C59.2248 32.8841 59.2522 33.1168 59.3617 33.1853C59.4712 33.2537 59.5534 33.1853 59.6355 33.3085C59.7177 33.4317 59.6355 33.6508 59.526 33.7603C59.4165 33.8698 59.526 33.9519 59.4438 34.0478C59.7313 33.9246 60.101 34.0478 60.279 33.6234C60.4569 33.199 60.498 33.6234 60.539 33.7192C60.5801 33.815 60.7033 34.1847 60.9224 34.0615C61.1414 33.9383 61.3057 33.5549 61.6343 33.6644C61.9629 33.774 62.0861 33.4865 62.1819 33.1579C62.1819 33.0621 62.4146 33.0621 62.5515 33.021C62.9759 32.7198 63.7426 32.7746 63.4688 31.652C63.4003 31.5014 63.2771 31.3919 63.3456 31.2002C63.412 31.1292 63.4854 31.065 63.5646 31.0085C63.7603 30.8953 63.925 30.7354 64.0438 30.5431C64.0597 30.447 64.0459 30.3484 64.0043 30.2603C63.9627 30.1723 63.8953 30.099 63.811 30.0502L63.8658 30.0639ZM56.5004 34.1573C56.5004 33.9656 56.3362 33.8013 56.1719 33.9109C56.1046 33.9665 56.0529 34.0387 56.0217 34.1202C55.9905 34.2018 55.9809 34.29 55.9939 34.3763C55.9939 34.8418 56.5141 35.0061 56.5278 34.4722C56.4911 34.4279 56.4709 34.3722 56.4709 34.3147C56.4709 34.2572 56.4911 34.2015 56.5278 34.1573H56.5004ZM57.7052 35.9233C57.4588 35.5537 57.226 35.1704 56.8153 35.5948C56.9132 35.7167 56.996 35.85 57.0617 35.9918C57.2123 36.4162 57.445 36.3888 57.7188 36.2656C57.9927 36.1424 58.1022 35.6495 58.0064 35.2251C57.6641 35.2251 57.8284 35.7043 57.7052 35.9233Z" fill="#BD934D"/>
<path d="M66.5481 27.49C66.2195 27.6954 66.2469 28.1198 66.1647 28.4757L66.6302 28.5989L67.3558 28.5168C67.3558 27.5585 67.3558 27.5585 66.5481 27.49ZM63.0707 28.8591C62.9475 28.6948 62.838 28.6948 62.7695 28.8591C62.7695 29.4204 63.0023 29.5299 63.3582 29.5573L63.4814 29.3656L63.3308 29.2013L63.0707 28.818V28.8591ZM72.7635 24.1633C72.6266 24.3139 72.6539 24.5603 72.5307 24.7109C72.5848 24.6249 72.6063 24.5223 72.5912 24.4218C72.5762 24.3214 72.5255 24.2296 72.4486 24.1633C72.3364 24.1396 72.2194 24.157 72.1189 24.2123C72.0184 24.2676 71.9411 24.357 71.901 24.4645C71.901 24.8204 71.7367 24.5877 71.6408 24.4645H71.0522V24.1222C71.0046 23.9867 70.913 23.8711 70.7921 23.7936C70.5456 23.7936 70.3129 23.7936 70.2034 24.1222C70.178 24.2513 70.1889 24.3848 70.2348 24.5081C70.2807 24.6313 70.3598 24.7394 70.4635 24.8204V24.9573C70.4635 24.9573 70.4635 24.9573 70.4635 25.0805C70.4627 25.1159 70.4712 25.1509 70.488 25.1821C70.5048 25.2133 70.5293 25.2396 70.5593 25.2585L70.2992 25.3407C69.8063 25.4091 69.4778 25.8609 69.0534 26.1073C68.8001 25.9339 68.6084 25.6846 68.5058 25.3954C68.4236 25.2448 68.3415 25.2448 68.2593 25.3954L67.9171 25.9978C67.8974 26.1164 67.9217 26.2381 67.9855 26.34C68.0264 26.4505 68.0264 26.5719 67.9855 26.6823C67.8821 26.8516 67.8254 27.0453 67.8212 27.2436C67.9509 27.643 68.1206 28.0283 68.3278 28.3936C68.3906 28.511 68.4922 28.6029 68.6153 28.6537L69.1903 28.5579C69.3682 28.3251 69.3956 27.9829 69.5736 27.7228C69.5487 27.8182 69.5482 27.9184 69.5721 28.014C69.5961 28.1097 69.6436 28.1979 69.7105 28.2704H69.9843C70.6552 28.2704 70.8468 28.2704 70.8605 27.1888C70.8605 26.8603 70.751 26.5317 70.7373 26.2031C70.7236 25.8746 70.9289 25.8883 71.1069 25.8472V26.5454C71.2011 26.6536 71.288 26.7679 71.367 26.8876L71.9694 26.2305L72.2706 25.943C72.4077 25.9593 72.5416 25.9962 72.6676 26.0525C72.8456 26.1347 72.873 26.4496 73.092 26.3537C73.2053 26.2689 73.2843 26.1462 73.3145 26.0079C73.3447 25.8696 73.324 25.7251 73.2563 25.6008C73.1749 25.3665 73.1426 25.1179 73.1615 24.8706C73.1803 24.6233 73.2499 24.3825 73.3658 24.1633C73.1605 23.9716 72.9688 23.9579 72.8045 24.1633H72.7635ZM59.6755 32.1995C59.4565 32.3911 59.1827 32.5144 59.1416 32.8977C59.4702 32.8977 59.8261 33.1304 60.0041 32.6239C59.9214 32.5817 59.8491 32.5218 59.7923 32.4484C59.7355 32.3751 59.6957 32.2901 59.6755 32.1995ZM62.6737 31.4465C62.6737 31.5834 62.9201 31.5971 63.016 31.6245C63.1118 31.6519 63.0981 31.6245 63.1392 31.6245V31.0358C63.0501 31.055 62.963 31.0825 62.8791 31.1179C62.7695 31.1179 62.5779 31.2959 62.66 31.4602L62.6737 31.4465ZM61.3594 31.4602C61.2225 31.4602 61.0583 31.6245 60.9898 31.556C60.9213 31.4876 60.4832 31.4876 60.2505 31.556V32.1721C60.2463 32.2222 60.2463 32.2726 60.2505 32.3227L61.6195 31.8709C61.5511 31.7066 61.5237 31.5013 61.3594 31.4328" fill="#EAC166"/>
<path d="M77.8019 31.6246C77.906 31.6235 78.0085 31.5982 78.1012 31.5507C78.1938 31.5032 78.2742 31.4347 78.3358 31.3508C78.3358 31.1044 78.3358 30.6389 78.3358 30.6389C77.7745 30.8169 77.7745 30.8169 77.8293 31.6246H77.8019ZM76.5834 30.2556C76.6793 30.1187 76.7751 29.9817 76.8573 29.8448C77.1037 29.4615 76.8572 29.3383 76.6245 29.1603C76.559 29.2021 76.4904 29.2387 76.4192 29.2699C76.337 29.1603 76.1864 29.0645 76.0906 29.1603L75.4882 29.8175C75.3717 29.7802 75.2456 29.7877 75.1343 29.8383C75.0229 29.8889 74.9344 29.979 74.8858 30.0913C74.5436 30.2419 74.2698 30.6115 73.7769 30.0913C73.2841 29.571 73.0787 30.0913 72.9829 30.6663C72.9829 30.8169 72.9829 30.9948 72.9144 31.1454C72.7902 31.4804 72.7514 31.8411 72.8016 32.1949C72.8518 32.5487 72.9894 32.8844 73.2019 33.1716C73.2019 33.1716 73.2019 33.377 73.2019 33.5002C73.1306 33.6047 73.1022 33.7326 73.1225 33.8575C73.1429 33.9824 73.2106 34.0946 73.3115 34.171C73.4894 34.171 73.7359 34.2668 73.7769 34.0067C73.818 33.7466 74.1877 33.7055 74.393 33.5823C74.7627 32.9662 74.2424 31.8847 75.0775 31.5425C75.2204 31.2321 75.304 30.8978 75.3239 30.5567L75.8578 31.3508C75.6799 31.2686 75.5019 31.3508 75.3513 31.5972C75.357 31.6439 75.3465 31.6911 75.3216 31.7309C75.2967 31.7708 75.2588 31.8009 75.2144 31.8163C75.2144 31.8163 75.8031 32.3091 76.1043 32.5829C76.4595 32.4568 76.7692 32.2281 76.9942 31.9258C77.1584 31.9258 77.2406 31.7889 77.309 31.6383C77.3775 31.4877 77.309 31.3234 77.2132 31.1591C77.3364 30.5431 76.7477 30.6115 76.6245 30.2282" fill="#BD934D"/>
<path d="M70.395 31.8847C70.2718 31.7204 70.1622 31.7204 70.0938 31.8847C70.0938 32.446 70.3265 32.5555 70.6825 32.5829L70.8057 32.3912L70.6551 32.2269L70.395 31.8436V31.8847ZM73.8723 30.4746C73.5438 30.6799 73.5711 31.1043 73.489 31.474L73.9545 31.5972L74.68 31.5013C74.68 30.543 74.6801 30.543 73.8723 30.4746ZM80.649 27.1615C80.4436 26.9698 80.2383 26.9562 80.074 27.1615C79.9097 27.3669 79.9645 27.5585 79.855 27.7091C79.904 27.6217 79.9225 27.5204 79.9076 27.4213C79.8927 27.3221 79.8453 27.2307 79.7728 27.1615C79.6589 27.1399 79.541 27.158 79.4389 27.2128C79.3367 27.2677 79.2565 27.3558 79.2115 27.4627C79.2115 27.8186 79.0609 27.5859 78.9651 27.4627H78.3764C78.3764 27.3532 78.3764 27.2437 78.3764 27.1204C78.3341 26.9821 78.2413 26.8648 78.1163 26.7919C77.9966 26.7621 77.87 26.7796 77.7629 26.8408C77.6558 26.902 77.5764 27.0022 77.5413 27.1204C77.5089 27.2495 77.5164 27.3853 77.5629 27.51C77.6093 27.6346 77.6925 27.7423 77.8014 27.8187C77.7856 27.9138 77.7856 28.011 77.8014 28.1061C77.8046 28.1423 77.8161 28.1772 77.8351 28.2081C77.8541 28.239 77.8801 28.265 77.9109 28.2841L77.6372 28.3799C77.1443 28.3799 76.8294 28.9002 76.405 29.1329C76.1476 28.964 75.9547 28.7132 75.8574 28.421C75.7753 28.2841 75.6931 28.2704 75.5973 28.421L75.2687 29.0234C75.2458 29.0775 75.2339 29.1357 75.2339 29.1945C75.2339 29.2533 75.2458 29.3115 75.2687 29.3657C75.296 29.4781 75.296 29.5955 75.2687 29.7079C75.1635 29.8764 75.1066 30.0706 75.1044 30.2692C75.2309 30.6655 75.4007 31.0466 75.611 31.4055C75.6777 31.5232 75.7777 31.6185 75.8985 31.6793L76.4735 31.5835C76.6514 31.3371 76.6788 30.9948 76.8568 30.7484C76.8319 30.8438 76.8314 30.944 76.8553 31.0397C76.8793 31.1353 76.9268 31.2235 76.9937 31.296H77.2675C77.9383 31.296 78.1163 31.296 78.13 30.2145C78.1092 29.8837 78.068 29.5545 78.0068 29.2288C78.0068 28.9276 78.2121 28.9139 78.3901 28.8728V29.571C78.4722 29.6805 78.5681 29.7901 78.6502 29.9133L79.2389 29.2561L79.5538 28.9686C79.6909 28.9849 79.8248 29.0218 79.9508 29.0782C80.1151 29.1603 80.1562 29.4752 80.3615 29.3657C80.5669 29.2561 80.6353 28.9002 80.5258 28.6264C80.3907 28.171 80.4348 27.6813 80.649 27.2573V27.1615ZM66.9587 35.2936C66.7533 35.4852 66.4796 35.5947 66.4248 35.9918C66.7534 35.9918 67.1093 36.2108 67.301 35.7043C67.2155 35.6677 67.14 35.6114 67.0805 35.54C67.021 35.4686 66.9793 35.3842 66.9587 35.2936ZM68.6563 34.5817C68.5331 34.5817 68.3551 34.7459 68.2867 34.6912C68.2182 34.6364 67.7802 34.609 67.5474 34.6912C67.5474 34.8965 67.5474 35.1156 67.5474 35.3209C67.5474 35.5263 67.5474 35.4578 67.5474 35.4578L68.9164 35.0061C68.848 34.8418 68.8343 34.6364 68.6563 34.568V34.5817ZM69.9569 34.568C69.9569 34.7049 70.2033 34.7049 70.2991 34.7459C70.395 34.787 70.3813 34.7459 70.436 34.7459V34.1573C70.3475 34.1784 70.2606 34.2058 70.1759 34.2394C70.0801 34.2394 69.8884 34.4174 69.9569 34.5817" fill="#EAC166"/>
</g>
<defs>
<clipPath id="clip0_832_146890">
<rect width="239.84" height="45" fill="white"/>
</clipPath>
</defs>
</svg>
