<?xml version="1.0" encoding="UTF-8"?>
<svg width="288px" height="96px" viewBox="0 0 288 96" version="1.1" xmlns="http://www.w3.org/2000/svg" xmlns:xlink="http://www.w3.org/1999/xlink">
    <!-- Generator: sketchtool 64 (101010) - https://sketch.com -->
    <title>DACFADC0-7F6C-4A5F-8B6E-D8AFB3ED67C5</title>
    <desc>Created with sketchtool.</desc>
    <defs>
        <polygon id="path-1" points="0 95.3286713 286.596923 95.3286713 286.596923 0.179916084 0 0.179916084"></polygon>
    </defs>
    <g id="Desktop" stroke="none" stroke-width="1" fill="none" fill-rule="evenodd">
        <g id="Dktp_VerifierProtectionBanque" transform="translate(-80.000000, -23.000000)">
            <g id="Organisme/Header">
                <g id="Brand/Logo">
                    <g>
                        <g transform="translate(80.000000, 23.000000)">
                            <g transform="translate(-0.000000, 0.000000)">
                                <polygon id="Fill-1" fill="#ECECEC" points="0 0.671328671 0 95.8200839 94.2323916 95.8200839 94.2323916 0.729734266 0 0.729734266"></polygon>
                                <polygon id="Fill-2" fill="#FFFFFF" points="94.2321902 0.671328671 94.2321902 95.8200839 286.596722 95.8200839 286.596722 0.729734266 94.2321902 0.729734266"></polygon>
                                <polygon id="Fill-3" fill="#FF8533" points="268.499245 67.5462713 110.832336 67.5462713 110.832336 65.6974322 270.384336 65.6974322"></polygon>
                                <polygon id="Fill-4" fill="#4B575F" points="110.923838 17.4483692 118.374243 17.4483692 118.374243 19.0501594 112.682719 19.0501594 112.682719 21.7811245 117.73111 21.7811245 117.73111 23.3829147 112.682719 23.3829147 112.682719 27.458551 110.923838 27.458551"></polygon>
                                <g id="Group-82" transform="translate(0.000000, 0.491413)">
                                    <path d="M128.48593,21.9906462 L128.48593,21.961779 C128.48593,20.0169399 127.070098,18.4010517 125.082294,18.4010517 C123.095161,18.4010517 121.707524,19.9887441 121.707524,21.9335832 L121.707524,21.961779 C121.707524,23.9066182 123.123357,25.5084084 125.111161,25.5084084 C127.098965,25.5084084 128.48593,23.934814 128.48593,21.9906462 M119.862713,21.9906462 L119.862713,21.961779 C119.862713,19.1448839 122.036476,16.7851636 125.111161,16.7851636 C128.185846,16.7851636 130.330741,19.1160168 130.330741,21.9335832 L130.330741,21.961779 C130.330741,24.7786741 128.156979,27.1383944 125.082294,27.1383944 C122.00828,27.1383944 119.862713,24.8075413 119.862713,21.9906462" id="Fill-5" fill="#4B575F"></path>
                                    <polygon id="Fill-7" fill="#4B575F" points="132.463418 16.9569566 134.094076 16.9569566 139.455978 23.8783552 139.455978 16.9569566 141.186663 16.9569566 141.186663 26.9671385 139.713768 26.9671385 134.193432 19.8456839 134.193432 26.9671385 132.463418 26.9671385"></polygon>
                                    <path d="M145.521566,18.5586126 L145.521566,25.365214 L147.494601,25.365214 C149.597203,25.365214 150.97007,23.9493818 150.97007,21.9904448 L150.97007,21.9615776 C150.97007,20.0026406 149.597203,18.5586126 147.494601,18.5586126 L145.521566,18.5586126 Z M143.762685,16.9568224 L147.494601,16.9568224 C150.641119,16.9568224 152.81421,19.1164867 152.81421,21.9333818 L152.81421,21.9615776 C152.81421,24.7791441 150.641119,26.9670042 147.494601,26.9670042 L143.762685,26.9670042 L143.762685,16.9568224 Z" id="Fill-9" fill="#4B575F"></path>
                                    <path d="M154.275021,25.508207 L155.333035,24.2494657 C156.291021,25.079228 157.263776,25.551172 158.49365,25.551172 C159.57986,25.551172 160.266629,25.0362629 160.266629,24.2924308 L160.266629,24.264235 C160.266629,23.5492699 159.866517,23.1632559 158.007608,22.7342769 C155.876811,22.2193678 154.675804,21.5903329 154.675804,19.7455217 L154.675804,19.7166545 C154.675804,18.0007385 156.105734,16.8138294 158.092867,16.8138294 C159.551664,16.8138294 160.710378,17.2569063 161.725427,18.0718993 L160.781538,19.4018014 C159.880615,18.7298014 158.979692,18.3726545 158.064671,18.3726545 C157.034853,18.3726545 156.434685,18.9016615 156.434685,19.5595636 L156.434685,19.5877594 C156.434685,20.3604587 156.89186,20.7035077 158.82193,21.1606825 C160.939301,21.6762629 162.02551,22.4335217 162.02551,24.0923748 L162.02551,24.121242 C162.02551,25.994249 160.553287,27.1099972 158.450685,27.1099972 C156.920056,27.1099972 155.476028,26.5809902 154.275021,25.508207" id="Fill-11" fill="#4B575F"></path>
                                    <path d="M170.150266,18.5586126 L170.150266,25.365214 L172.123301,25.365214 C174.225902,25.365214 175.598769,23.9493818 175.598769,21.9904448 L175.598769,21.9615776 C175.598769,20.0026406 174.225902,18.5586126 172.123301,18.5586126 L170.150266,18.5586126 Z M168.391385,16.9568224 L172.123301,16.9568224 C175.269818,16.9568224 177.442909,19.1164867 177.442909,21.9333818 L177.442909,21.9615776 C177.442909,24.7791441 175.269818,26.9670042 172.123301,26.9670042 L168.391385,26.9670042 L168.391385,16.9568224 Z" id="Fill-13" fill="#4B575F"></path>
                                    <polygon id="Fill-15" fill="#4B575F" points="179.57572 16.9569566 186.99793 16.9569566 186.99793 18.5298797 181.334601 18.5298797 181.334601 21.132621 186.354126 21.132621 186.354126 22.7055441 181.334601 22.7055441 181.334601 25.3935441 187.069091 25.3935441 187.069091 26.9671385 179.57572 26.9671385"></polygon>
                                    <path d="M193.006255,21.9906462 L193.006255,21.961779 C193.006255,19.1589818 195.15115,16.7851636 198.168101,16.7851636 C199.912884,16.7851636 200.985667,17.2712056 202.015485,18.1439329 L200.899737,19.473835 C200.127709,18.8159329 199.369779,18.4010517 198.09694,18.4010517 C196.252129,18.4010517 194.851066,20.0169399 194.851066,21.9335832 L194.851066,21.961779 C194.851066,24.0207441 196.209164,25.5366042 198.254031,25.5366042 C199.19859,25.5366042 200.055877,25.2365203 200.670814,24.7786741 L200.670814,22.9056671 L198.111038,22.9056671 L198.111038,21.3757091 L202.372632,21.3757091 L202.372632,25.5795692 C201.385779,26.4234294 199.970618,27.1383944 198.196968,27.1383944 C195.06522,27.1383944 193.006255,24.9075692 193.006255,21.9906462" id="Fill-17" fill="#4B575F"></path>
                                    <path d="M210.72631,22.9913958 L208.995625,18.9875916 L207.279709,22.9913958 L210.72631,22.9913958 Z M208.209499,16.8849902 L209.839485,16.8849902 L214.244073,26.9670042 L212.385164,26.9670042 L211.369443,24.550221 L206.635905,24.550221 L205.606758,26.9670042 L203.804241,26.9670042 L208.209499,16.8849902 Z" id="Fill-19" fill="#4B575F"></path>
                                    <path d="M220.294691,21.918814 C221.553432,21.918814 222.353656,21.2615832 222.353656,20.2458629 L222.353656,20.2169958 C222.353656,19.1448839 221.581628,18.558814 220.280593,18.558814 L217.720817,18.558814 L217.720817,21.918814 L220.294691,21.918814 Z M215.961936,16.9570238 L220.423586,16.9570238 C221.681656,16.9570238 222.668509,17.3289399 223.312313,17.9579748 C223.84132,18.5010797 224.141404,19.2449119 224.141404,20.1169678 L224.141404,20.145835 C224.141404,21.7905902 223.155222,22.776772 221.767586,23.1775552 L224.471027,26.9672056 L222.382523,26.9672056 L219.922775,23.4776392 L217.720817,23.4776392 L217.720817,26.9672056 L215.961936,26.9672056 L215.961936,16.9570238 Z" id="Fill-21" fill="#4B575F"></path>
                                    <path d="M232.366187,22.9913958 L230.635502,18.9875916 L228.919586,22.9913958 L232.366187,22.9913958 Z M229.849376,16.8849902 L231.479362,16.8849902 L235.88395,26.9670042 L234.025041,26.9670042 L233.00932,24.550221 L228.275782,24.550221 L227.246635,26.9670042 L225.444117,26.9670042 L229.849376,16.8849902 Z" id="Fill-23" fill="#4B575F"></path>
                                    <polygon id="Fill-25" fill="#4B575F" points="237.601745 16.9569566 239.232403 16.9569566 244.594305 23.8783552 244.594305 16.9569566 246.32499 16.9569566 246.32499 26.9671385 244.852095 26.9671385 239.331759 19.8456839 239.331759 26.9671385 237.601745 26.9671385"></polygon>
                                    <polygon id="Fill-27" fill="#4B575F" points="251.360694 18.5870769 248.18598 18.5870769 248.18598 16.9570909 256.308386 16.9570909 256.308386 18.5870769 253.134344 18.5870769 253.134344 26.9666014 251.360694 26.9666014"></polygon>
                                    <mask id="mask-2" fill="white">
                                        <use xlink:href="#path-1"></use>
                                    </mask>
                                    <g id="Clip-30"></g>
                                    <polygon id="Fill-29" fill="#4B575F" mask="url(#mask-2)" points="258.269538 26.9672727 260.02842 26.9672727 260.02842 16.9570909 258.269538 16.9570909"></polygon>
                                    <polygon id="Fill-31" fill="#4B575F" mask="url(#mask-2)" points="262.702523 16.9569566 270.124733 16.9569566 270.124733 18.5298797 264.461404 18.5298797 264.461404 21.132621 269.480929 21.132621 269.480929 22.7055441 264.461404 22.7055441 264.461404 25.3935441 270.195894 25.3935441 270.195894 26.9671385 262.702523 26.9671385"></polygon>
                                    <path d="M112.682853,34.0817455 L112.682853,40.8890182 L114.655888,40.8890182 C116.75849,40.8890182 118.131357,39.473186 118.131357,37.5135776 L118.131357,37.4853818 C118.131357,35.5264448 116.75849,34.0817455 114.655888,34.0817455 L112.682853,34.0817455 Z M110.923972,32.4799552 L114.655888,32.4799552 C117.802406,32.4799552 119.975497,34.6396196 119.975497,37.4565147 L119.975497,37.4853818 C119.975497,40.3022769 117.802406,42.4901371 114.655888,42.4901371 L110.923972,42.4901371 L110.923972,32.4799552 Z" id="Fill-32" fill="#4B575F" mask="url(#mask-2)"></path>
                                    <polygon id="Fill-33" fill="#4B575F" mask="url(#mask-2)" points="122.108308 32.4801566 129.530517 32.4801566 129.530517 34.0530797 123.867189 34.0530797 123.867189 36.655821 128.886713 36.655821 128.886713 38.2287441 123.867189 38.2287441 123.867189 40.9174154 129.601678 40.9174154 129.601678 42.4903385 122.108308 42.4903385"></polygon>
                                    <path d="M131.019122,41.0316755 L132.077136,39.7729343 C133.035793,40.6026965 134.007877,41.0746406 135.237751,41.0746406 C136.323961,41.0746406 137.01073,40.5597315 137.01073,39.8158993 L137.01073,39.7877035 C137.01073,39.0727385 136.610618,38.6867245 134.751709,38.2577455 C132.620912,37.7428364 131.419905,37.1138014 131.419905,35.2689902 L131.419905,35.2401231 C131.419905,33.524207 132.849835,32.3372979 134.836968,32.3372979 C136.295765,32.3372979 137.454478,32.7803748 138.469527,33.5953678 L137.525639,34.9252699 C136.624716,34.2532699 135.723793,33.8961231 134.808772,33.8961231 C133.778954,33.8961231 133.178786,34.4251301 133.178786,35.0830322 L133.178786,35.1118993 C133.178786,35.8839273 133.635961,36.2269762 135.566031,36.684151 C137.683401,37.1997315 138.769611,37.9569902 138.769611,39.6158434 L138.769611,39.6447105 C138.769611,41.5183888 137.297387,42.6334657 135.194786,42.6334657 C133.664157,42.6334657 132.220129,42.1044587 131.019122,41.0316755" id="Fill-34" fill="#4B575F" mask="url(#mask-2)"></path>
                                    <path d="M146.894366,34.0817455 L146.894366,40.8890182 L148.867401,40.8890182 C150.970003,40.8890182 152.34287,39.473186 152.34287,37.5135776 L152.34287,37.4853818 C152.34287,35.5264448 150.970003,34.0817455 148.867401,34.0817455 L146.894366,34.0817455 Z M145.135485,32.4799552 L148.867401,32.4799552 C152.013919,32.4799552 154.18701,34.6396196 154.18701,37.4565147 L154.18701,37.4853818 C154.18701,40.3022769 152.013919,42.4901371 148.867401,42.4901371 L145.135485,42.4901371 L145.135485,32.4799552 Z" id="Fill-35" fill="#4B575F" mask="url(#mask-2)"></path>
                                    <path d="M160.952929,29.5774657 L162.526523,30.2635636 L160.69581,31.6505287 L159.351138,31.6505287 L160.952929,29.5774657 Z M156.32009,32.4802909 L163.741628,32.4802909 L163.741628,34.053214 L158.078971,34.053214 L158.078971,36.6559552 L163.097824,36.6559552 L163.097824,38.2288783 L158.078971,38.2288783 L158.078971,40.9175497 L163.81346,40.9175497 L163.81346,42.4904727 L156.32009,42.4904727 L156.32009,32.4802909 Z" id="Fill-36" fill="#4B575F" mask="url(#mask-2)"></path>
                                    <path d="M169.70645,37.685572 C171.036352,37.685572 171.866115,36.9424112 171.866115,35.8978238 L171.866115,35.869628 C171.866115,34.6968168 171.022255,34.0818797 169.70645,34.0818797 L167.661583,34.0818797 L167.661583,37.685572 L169.70645,37.685572 Z M165.902702,32.4800895 L169.849443,32.4800895 C172.195066,32.4800895 173.653863,33.8106629 173.653863,35.8266629 L173.653863,35.8548587 C173.653863,38.1004531 171.851345,39.272593 169.649387,39.272593 L167.661583,39.272593 L167.661583,42.4902713 L165.902702,42.4902713 L165.902702,32.4800895 Z" id="Fill-37" fill="#4B575F" mask="url(#mask-2)"></path>
                                    <path d="M179.43219,29.5774657 L181.062848,29.5774657 L182.792862,31.5075357 L181.334064,31.5075357 L180.233085,30.6784448 L179.132106,31.5075357 L177.702176,31.5075357 L179.43219,29.5774657 Z M183.636722,37.5139133 L183.636722,37.4850462 C183.636722,35.540207 182.220218,33.9249902 180.233085,33.9249902 C178.245281,33.9249902 176.858316,35.5120112 176.858316,37.4568503 L176.858316,37.4850462 C176.858316,39.4298853 178.273477,41.0316755 180.261281,41.0316755 C182.249085,41.0316755 183.636722,39.4587524 183.636722,37.5139133 L183.636722,37.5139133 Z M175.013505,37.5139133 L175.013505,37.4850462 C175.013505,34.668151 177.186596,32.3084308 180.261281,32.3084308 C183.335966,32.3084308 185.481533,34.6399552 185.481533,37.4568503 L185.481533,37.4850462 C185.481533,40.3026126 183.307099,42.6623329 180.233085,42.6623329 C177.1584,42.6623329 175.013505,40.3314797 175.013505,37.5139133 L175.013505,37.5139133 Z" id="Fill-38" fill="#4B575F" mask="url(#mask-2)"></path>
                                    <polygon id="Fill-39" fill="#4B575F" mask="url(#mask-2)" points="190.073757 34.1106126 186.899043 34.1106126 186.899043 32.4799552 195.021449 32.4799552 195.021449 34.1106126 191.847407 34.1106126 191.847407 42.4901371 190.073757 42.4901371"></polygon>
                                    <path d="M196.210171,41.0316755 L197.268185,39.7729343 C198.226842,40.6026965 199.198926,41.0746406 200.4288,41.0746406 C201.51501,41.0746406 202.201779,40.5597315 202.201779,39.8158993 L202.201779,39.7877035 C202.201779,39.0727385 201.801667,38.6867245 199.942758,38.2577455 C197.811961,37.7428364 196.610954,37.1138014 196.610954,35.2689902 L196.610954,35.2401231 C196.610954,33.524207 198.040884,32.3372979 200.028017,32.3372979 C201.486814,32.3372979 202.645527,32.7803748 203.660576,33.5953678 L202.716688,34.9252699 C201.815765,34.2532699 200.914842,33.8961231 199.999821,33.8961231 C198.970003,33.8961231 198.369835,34.4251301 198.369835,35.0830322 L198.369835,35.1118993 C198.369835,35.8839273 198.82701,36.2269762 200.75708,36.684151 C202.87445,37.1997315 203.96066,37.9569902 203.96066,39.6158434 L203.96066,39.6447105 C203.96066,41.5183888 202.488436,42.6334657 200.385835,42.6334657 C198.855206,42.6334657 197.411178,42.1044587 196.210171,41.0316755" id="Fill-40" fill="#4B575F" mask="url(#mask-2)"></path>
                                    <polygon id="Fill-41" fill="#4B575F" mask="url(#mask-2)" points="210.3264 32.4801566 217.74861 32.4801566 217.74861 34.0530797 212.085281 34.0530797 212.085281 36.655821 217.104806 36.655821 217.104806 38.2287441 212.085281 38.2287441 212.085281 40.9174154 217.819771 40.9174154 217.819771 42.4903385 210.3264 42.4903385"></polygon>
                                    <polygon id="Fill-42" fill="#4B575F" mask="url(#mask-2)" points="222.369029 34.1106126 219.194316 34.1106126 219.194316 32.4799552 227.316722 32.4799552 227.316722 34.1106126 224.14268 34.1106126 224.14268 42.4901371 222.369029 42.4901371"></polygon>
                                    <path d="M112.682853,49.6055497 L112.682853,56.412151 L114.655888,56.412151 C116.75849,56.412151 118.131357,54.9963189 118.131357,53.0373818 L118.131357,53.0085147 C118.131357,51.0495776 116.75849,49.6055497 114.655888,49.6055497 L112.682853,49.6055497 Z M110.923972,48.0037594 L114.655888,48.0037594 C117.802406,48.0037594 119.975497,50.1634238 119.975497,52.9803189 L119.975497,53.0085147 C119.975497,55.8260811 117.802406,58.0139413 114.655888,58.0139413 L110.923972,58.0139413 L110.923972,48.0037594 Z" id="Fill-43" fill="#4B575F" mask="url(#mask-2)"></path>
                                    <polygon id="Fill-44" fill="#4B575F" mask="url(#mask-2)" points="122.108308 48.0039608 129.530517 48.0039608 129.530517 49.5768839 123.867189 49.5768839 123.867189 52.1796252 128.886713 52.1796252 128.886713 53.7525483 123.867189 53.7525483 123.867189 56.4405483 129.601678 56.4405483 129.601678 58.0141427 122.108308 58.0141427"></polygon>
                                    <path d="M140.314808,52.9658182 C141.57355,52.9658182 142.373773,52.3085874 142.373773,51.2928671 L142.373773,51.264 C142.373773,50.1918881 141.601745,49.6058182 140.30071,49.6058182 L137.740934,49.6058182 L137.740934,52.9658182 L140.314808,52.9658182 Z M135.982053,48.004028 L140.443703,48.004028 C141.701773,48.004028 142.688627,48.3759441 143.332431,49.004979 C143.861438,49.5480839 144.161522,50.2919161 144.161522,51.163972 L144.161522,51.1928392 C144.161522,52.8375944 143.17534,53.8237762 141.787703,54.2245594 L144.491144,58.0142098 L142.402641,58.0142098 L139.942892,54.5246434 L137.740934,54.5246434 L137.740934,58.0142098 L135.982053,58.0142098 L135.982053,48.004028 Z" id="Fill-45" fill="#4B575F" mask="url(#mask-2)"></path>
                                    <path d="M150.955771,45.1010014 L152.529365,45.7870993 L150.698652,47.1740643 L149.35398,47.1740643 L150.955771,45.1010014 Z M146.322931,48.0038266 L153.74447,48.0038266 L153.74447,49.5767497 L148.081813,49.5767497 L148.081813,52.1794909 L153.100666,52.1794909 L153.100666,53.752414 L148.081813,53.752414 L148.081813,56.4410853 L153.816302,56.4410853 L153.816302,58.0140084 L146.322931,58.0140084 L146.322931,48.0038266 Z" id="Fill-46" fill="#4B575F" mask="url(#mask-2)"></path>
                                    <path d="M155.233544,56.5552112 L156.291558,55.2964699 C157.249544,56.1262322 158.222299,56.5981762 159.452173,56.5981762 C160.538383,56.5981762 161.225152,56.0832671 161.225152,55.339435 L161.225152,55.3112392 C161.225152,54.5962741 160.825041,54.2102601 158.966131,53.7812811 C156.835334,53.266372 155.634327,52.6373371 155.634327,50.7925259 L155.634327,50.7636587 C155.634327,49.0477427 157.064257,47.8608336 159.05139,47.8608336 C160.510187,47.8608336 161.668901,48.3039105 162.68395,49.1189035 L161.740062,50.4488056 C160.839138,49.7768056 159.938215,49.4196587 159.023194,49.4196587 C157.993376,49.4196587 157.393208,49.9486657 157.393208,50.6065678 L157.393208,50.6347636 C157.393208,51.4074629 157.850383,51.7505119 159.780453,52.2076867 C161.897824,52.7232671 162.984034,53.4805259 162.984034,55.139379 L162.984034,55.1682462 C162.984034,57.0412531 161.51181,58.1570014 159.409208,58.1570014 C157.878579,58.1570014 156.434551,57.6279944 155.233544,56.5552112" id="Fill-47" fill="#4B575F" mask="url(#mask-2)"></path>
                                    <path d="M173.23878,53.0375832 L173.23878,53.0087161 C173.23878,51.0638769 171.822948,49.4479888 169.835815,49.4479888 C167.848011,49.4479888 166.460375,51.0356811 166.460375,52.9805203 L166.460375,53.0087161 C166.460375,54.9535552 167.876207,56.5553455 169.864011,56.5553455 C171.851815,56.5553455 173.23878,54.981751 173.23878,53.0375832 M164.615564,53.0375832 L164.615564,53.0087161 C164.615564,50.191821 166.789326,47.8321007 169.864011,47.8321007 C172.938697,47.8321007 175.083592,50.1629538 175.083592,52.9805203 L175.083592,53.0087161 C175.083592,55.8256112 172.909829,58.1853315 169.835815,58.1853315 C166.76113,58.1853315 164.615564,55.8544783 164.615564,53.0375832" id="Fill-48" fill="#4B575F" mask="url(#mask-2)"></path>
                                    <polygon id="Fill-49" fill="#4B575F" mask="url(#mask-2)" points="177.216269 48.0039608 178.97515 48.0039608 178.97515 56.4123524 184.237695 56.4123524 184.237695 58.0141427 177.216269 58.0141427"></polygon>
                                    <path d="M185.912056,53.7666462 L185.912056,48.0039608 L187.670937,48.0039608 L187.670937,53.6954853 C187.670937,55.5543944 188.629594,56.5412476 190.202517,56.5412476 C191.761343,56.5412476 192.719329,55.6114573 192.719329,53.7666462 L192.719329,48.0039608 L194.47821,48.0039608 L194.47821,53.6813874 C194.47821,56.6694713 192.79049,58.1712336 190.17365,58.1712336 C187.570909,58.1712336 185.912056,56.6694713 185.912056,53.7666462" id="Fill-50" fill="#4B575F" mask="url(#mask-2)"></path>
                                    <polygon id="Fill-51" fill="#4B575F" mask="url(#mask-2)" points="199.356352 49.6340811 196.181639 49.6340811 196.181639 48.0040951 204.304045 48.0040951 204.304045 49.6340811 201.130003 49.6340811 201.130003 58.0136056 199.356352 58.0136056"></polygon>
                                    <polygon id="Fill-52" fill="#4B575F" mask="url(#mask-2)" points="206.265063 58.0142098 208.023944 58.0142098 208.023944 48.004028 206.265063 48.004028"></polygon>
                                    <path d="M218.877986,53.0375832 L218.877986,53.0087161 C218.877986,51.0638769 217.462154,49.4479888 215.47435,49.4479888 C213.487217,49.4479888 212.09958,51.0356811 212.09958,52.9805203 L212.09958,53.0087161 C212.09958,54.9535552 213.515413,56.5553455 215.503217,56.5553455 C217.491021,56.5553455 218.877986,54.981751 218.877986,53.0375832 M210.254769,53.0375832 L210.254769,53.0087161 C210.254769,50.191821 212.428531,47.8321007 215.503217,47.8321007 C218.577902,47.8321007 220.722797,50.1629538 220.722797,52.9805203 L220.722797,53.0087161 C220.722797,55.8256112 218.549035,58.1853315 215.47435,58.1853315 C212.400336,58.1853315 210.254769,55.8544783 210.254769,53.0375832" id="Fill-53" fill="#4B575F" mask="url(#mask-2)"></path>
                                    <polygon id="Fill-54" fill="#4B575F" mask="url(#mask-2)" points="222.855474 48.0039608 224.486131 48.0039608 229.848034 54.9253594 229.848034 48.0039608 231.578719 48.0039608 231.578719 58.0141427 230.105824 58.0141427 224.585488 50.8926881 224.585488 58.0141427 222.855474 58.0141427"></polygon>
                                    <path d="M43.2147692,16.719642 L25.8481678,16.719642 L25.8481678,26.0269427 L40.0387133,26.023586 C39.4653986,28.7988587 40.0387133,31.4814881 40.0387133,31.4814881 L25.8481678,31.4828308 L25.8481678,45.3692643 L19.8572308,45.3692643 L19.8572308,11.2644252 L49.0210909,11.2644252 C45.2435245,13.5294881 43.2147692,16.719642 43.2147692,16.719642" id="Fill-55" fill="#4B575F" mask="url(#mask-2)"></path>
                                    <path d="M60.1546741,45.9532531 C49.4839049,45.9532531 42.467849,38.3531413 42.467849,28.364442 C42.467849,18.7671273 49.7759329,10.6796308 60.0559888,10.6796308 C66.0012755,10.6796308 69.6546462,12.3344559 73.1623385,15.308442 L69.3612755,19.8385678 C66.7316811,17.5976727 64.1484084,16.1851972 59.8129678,16.1851972 C53.5273175,16.1851972 48.752828,21.6410853 48.752828,28.2670993 C48.752828,35.3314909 53.3816392,40.4980364 60.3466741,40.4980364 C63.5616671,40.4980364 66.4866462,39.4735888 68.5825343,37.9161063 L68.5825343,31.530428 L59.8613035,31.530428 L61.6853035,26.3189035 L74.3801287,26.3189035 L74.3801287,40.6417007 C71.0174434,43.5163301 66.1932755,45.9532531 60.1546741,45.9532531" id="Fill-56" fill="#4B575F" mask="url(#mask-2)"></path>
                                    <path d="M32.3194406,55.6554294 L25.5947413,55.6554294 L25.5947413,78.8484923 L32.3194406,78.8484923 C39.4825175,78.8484923 45.5258182,74.0236531 45.5258182,67.3002965 C45.5258182,60.5755972 39.4825175,55.6554294 32.3194406,55.6554294 M32.3194406,84.3050517 L19.6038042,84.3050517 L19.6038042,50.1981986 L32.3194406,50.1981986 C43.0385455,50.1981986 51.8087832,57.5559608 51.8087832,67.2022825 C51.8087832,76.8506182 43.0385455,84.3050517 32.3194406,84.3050517" id="Fill-57" fill="#4B575F" mask="url(#mask-2)"></path>
                                    <path d="M67.139379,71.3923133 C71.9138685,70.0785231 75.2765538,66.6668308 75.2765538,61.0169287 C75.2765538,54.3398937 70.4537287,50.1998098 62.6099245,50.1998098 L43.4260364,50.1998098 C46.125449,51.5693203 48.4428755,53.4282294 50.249421,55.6536839 L62.1211972,55.6563692 C66.5573371,55.6563692 69.1896168,57.6052364 69.1896168,61.356621 C69.1896168,64.8622993 66.4579804,67.1072224 62.1702042,67.1072224 L54.3982322,67.0971524 C54.3982322,67.1320615 54.4049455,67.1669706 54.4049455,67.202551 C54.4049455,69.0171524 54.1196308,70.7572364 53.6282182,72.4134042 L60.9027357,72.4160895 L69.2822601,84.304649 L76.3473231,84.304649 L67.139379,71.3923133 Z" id="Fill-58" fill="#4B575F" mask="url(#mask-2)"></path>
                                    <polygon id="Fill-59" fill="#FF8533" mask="url(#mask-2)" points="33.9505678 68.8151497 32.0379524 72.8672895 10.8038266 72.8672895 12.6855608 68.8151497"></polygon>
                                    <polygon id="Fill-60" fill="#FF8533" mask="url(#mask-2)" points="36.6522629 61.8560224 34.7403189 65.9068196 13.508207 65.9068196 15.3906126 61.8560224"></polygon>
                                    <path d="M113.084039,84.5163189 L111.870277,74.5551441 C111.807172,74.0274797 111.698417,73.705242 111.544011,73.5877594 C111.390277,73.4696056 111.094221,73.4004587 110.658529,73.3796476 L110.704179,72.8546685 C110.971368,72.8754797 111.253326,72.8915916 111.551396,72.9016615 C111.849466,72.9124028 112.173046,72.9177734 112.521466,72.9177734 C112.865857,72.9177734 113.192123,72.9124028 113.502277,72.9016615 C113.812431,72.8915916 114.107144,72.8754797 114.388431,72.8546685 L114.34278,73.3796476 C113.954081,73.3796476 113.676822,73.4279832 113.511676,73.5246545 C113.345857,73.6213259 113.253214,73.7871441 113.233074,74.0227804 C113.225018,74.1113958 113.232403,74.281242 113.255228,74.5316476 C113.259256,74.5947524 113.264627,74.6464448 113.27134,74.6887385 L114.076934,82.2277594 L117.754473,75.2137175 C117.905522,74.9156476 118.024347,74.6558434 118.114305,74.4336336 C118.203592,74.2114238 118.251927,74.0482909 118.261326,73.944235 C118.27878,73.740151 118.227759,73.6005147 118.107592,73.5246545 C117.987424,73.4487944 117.694053,73.4004587 117.22748,73.3796476 L117.265745,72.8546685 C117.492655,72.8754797 117.729634,72.8915916 117.97534,72.9016615 C118.221046,72.9124028 118.483536,72.9177734 118.762137,72.9177734 C119.04141,72.9177734 119.301214,72.9124028 119.540878,72.9016615 C119.781885,72.8915916 120.008794,72.8754797 120.225634,72.8546685 L120.172599,73.3796476 C119.862445,73.3957594 119.604655,73.4884028 119.399899,73.658249 C119.195815,73.8280951 118.927284,74.2208224 118.594305,74.8377734 L113.481466,84.3283469 L113.084039,84.5163189 Z" id="Fill-61" fill="#FF8533" mask="url(#mask-2)"></path>
                                    <path d="M124.659894,78.6307133 C124.70353,78.1238601 124.629013,77.7264336 124.43567,77.4397762 C124.240985,77.1517762 123.949628,77.0081119 123.560929,77.0081119 C123.272257,77.0081119 122.986943,77.0906853 122.706327,77.2551608 C122.425041,77.4196364 122.17195,77.6532587 121.946383,77.9566993 C121.539558,78.5105455 121.194495,79.1919441 120.911866,80.0022378 C120.629236,80.8118601 120.450663,81.6322238 120.378159,82.4626573 C120.333852,82.9748811 120.409712,83.3736503 120.606411,83.6582937 C120.803782,83.9429371 121.098495,84.0852587 121.491894,84.0852587 C121.776537,84.0852587 122.057152,84.004028 122.335083,83.8422378 C122.613684,83.6804476 122.863418,83.4508531 123.082943,83.1527832 C123.489768,82.6096783 123.834831,81.9302937 124.120817,81.1153007 C124.406803,80.2996364 124.586719,79.4718881 124.659894,78.6307133 M123.524677,76.5771189 C124.302076,76.5771189 124.897544,76.8308811 125.311083,77.3377343 C125.725292,77.8445874 125.894467,78.5313566 125.818607,79.3987133 C125.691726,80.8460979 125.207698,82.0605315 124.367194,83.0426853 C123.526691,84.0255105 122.565348,84.5162517 121.484509,84.5162517 C120.697041,84.5162517 120.1056,84.2510769 119.707502,83.7213986 C119.310747,83.1903776 119.153656,82.4552727 119.236229,81.5147413 C119.294635,80.8460979 119.455083,80.2063217 119.717572,79.5947413 C119.980733,78.9831608 120.327138,78.4427413 120.756789,77.9728112 C121.159586,77.5176503 121.597964,77.1719161 122.072593,76.9342657 C122.547222,76.6959441 123.03125,76.5771189 123.524677,76.5771189" id="Fill-62" fill="#FF8533" mask="url(#mask-2)"></path>
                                    <path d="M128.633421,77.5414154 L127.482764,77.5414154 L127.523043,77.0869259 L128.762987,77.0869259 L129.545085,74.4687441 L130.613841,74.4687441 L129.884106,77.0869259 L131.670512,77.0869259 L131.630903,77.5414154 L129.747155,77.5414154 L128.436722,82.1883524 C128.377645,82.4031776 128.331994,82.5844364 128.299099,82.7334713 C128.265533,82.8825063 128.245393,83.0067021 128.236666,83.1060587 C128.215855,83.3457231 128.252778,83.5383944 128.346764,83.6813874 C128.442092,83.8250517 128.575687,83.8968839 128.750232,83.8968839 C129.038903,83.8968839 129.345029,83.7364364 129.666596,83.4155413 C129.988834,83.0939748 130.319127,82.6220308 130.658148,82.0010517 L130.904526,82.1729119 C130.54805,82.9462825 130.145253,83.5303385 129.696806,83.9244084 C129.249029,84.3191497 128.765673,84.5165203 128.247407,84.5165203 C127.819099,84.5165203 127.502903,84.3990378 127.299491,84.1634014 C127.096078,83.9284364 127.014176,83.5813594 127.053785,83.1214993 C127.069897,82.9435972 127.091379,82.7831497 127.118903,82.6394853 C127.146428,82.495821 127.183351,82.3581986 127.229673,82.2279608 L128.633421,77.5414154 Z" id="Fill-63" fill="#FF8533" mask="url(#mask-2)"></path>
                                    <path d="M132.549952,84.3753399 L134.20075,78.8348643 C134.264526,78.6200392 134.314876,78.4293818 134.351799,78.262221 C134.38805,78.0950601 134.412218,77.9540811 134.422288,77.8392839 C134.440414,77.6352 134.415575,77.4747524 134.349113,77.3572699 C134.281309,77.2397874 134.178596,77.1807105 134.038959,77.1807105 C133.784526,77.1807105 133.515994,77.3008783 133.234036,77.541214 C132.951407,77.7815497 132.627155,78.1655497 132.261952,78.693214 L131.982008,78.4817455 C132.375407,77.8547245 132.789617,77.3807664 133.223295,77.0592 C133.657645,76.7383049 134.099379,76.577186 134.547827,76.577186 C134.891547,76.577186 135.145309,76.669158 135.307771,76.8517594 C135.472246,77.0343608 135.538036,77.3008783 135.507827,77.6506406 C135.493057,77.823172 135.45882,78.0245706 135.406456,78.254165 C135.353421,78.4844308 135.28226,78.7428923 135.192973,79.030221 C135.632694,78.215228 136.061673,77.6056615 136.481253,77.200179 C136.900162,76.7953678 137.311687,76.5932979 137.715155,76.5932979 C137.989729,76.5932979 138.195827,76.6819133 138.33412,76.8598154 C138.473085,77.0370462 138.528806,77.2854378 138.501281,77.6043189 C138.479127,77.8547245 138.41468,78.0480671 138.307938,78.1836755 C138.201869,78.3199552 138.058876,78.3877594 137.878959,78.3877594 C137.684945,78.3877594 137.543966,78.303172 137.457365,78.1333259 C137.370092,77.9634797 137.341225,77.7110601 137.370092,77.3767385 L137.387547,77.1726545 C136.971323,77.204207 136.499379,77.5962629 135.969701,78.348151 C135.440694,79.1007105 135.0144,80.0123748 134.69082,81.0838154 L133.715379,84.3753399 L132.549952,84.3753399 Z" id="Fill-64" fill="#FF8533" mask="url(#mask-2)"></path>
                                    <path d="M140.349583,80.041242 C141.4848,80.0258014 142.342087,79.8418573 142.919429,79.4887385 C143.496772,79.1362909 143.816996,78.6045986 143.879429,77.8943329 C143.903597,77.6170741 143.848548,77.4029203 143.714283,77.2512 C143.580017,77.100151 143.377947,77.0242909 143.108073,77.0242909 C142.544157,77.0242909 142.03059,77.2773818 141.569387,77.784235 C141.107513,78.2910881 140.701359,79.0436476 140.349583,80.041242 M140.213303,80.4648503 C140.116632,80.7468084 140.038087,81.0408503 139.975653,81.3463049 C139.913891,81.6517594 139.867569,81.9719832 139.838031,82.3063049 C139.789695,82.860151 139.853471,83.2663049 140.029359,83.5247664 C140.204576,83.7838993 140.506674,83.9127944 140.933639,83.9127944 C141.376716,83.9127944 141.816436,83.7536895 142.254143,83.4348084 C142.690506,83.1165986 143.095989,82.6587524 143.468576,82.0632839 L143.742478,82.2747524 C143.348408,83.017242 142.882506,83.5757874 142.344101,83.9524028 C141.805024,84.3283469 141.199485,84.5163189 140.526814,84.5163189 C139.859513,84.5163189 139.360716,84.2954517 139.030422,83.8543888 C138.7008,83.4126545 138.571234,82.7896615 138.641052,81.9854098 C138.704828,81.2583608 138.890115,80.5574937 139.198926,79.8807944 C139.507066,79.2040951 139.925303,78.5784168 140.45431,78.0037594 C140.883961,77.5385287 141.350534,77.1847385 141.854702,76.9417175 C142.359541,76.6986965 142.873779,76.577186 143.396744,76.577186 C143.899569,76.577186 144.280213,76.6926545 144.540017,76.922249 C144.798478,77.1518434 144.909919,77.4760951 144.872996,77.8943329 C144.803178,78.693214 144.366143,79.3148643 143.563234,79.7592839 C142.760324,80.2037035 141.643905,80.4386685 140.213303,80.4648503" id="Fill-65" fill="#FF8533" mask="url(#mask-2)"></path>
                                    <path d="M155.186954,78.4035357 C155.192996,78.3880951 155.199038,78.3692979 155.202394,78.3484867 C155.206422,78.3276755 155.21045,78.2988084 155.213807,78.2625566 C155.239989,77.9644867 155.145331,77.6758154 154.93252,77.3965427 C154.719038,77.1165986 154.463262,76.9769622 154.165863,76.9769622 C153.837583,76.9769622 153.495877,77.1273399 153.142087,77.4274238 C152.788968,77.728179 152.461359,78.1504448 152.160604,78.6935497 C151.808157,79.3205706 151.519485,79.9630322 151.295933,80.6216056 C151.071709,81.2795077 150.936772,81.8722909 150.891122,82.4006266 C150.849499,82.8705566 150.892464,83.2203189 151.018674,83.4505846 C151.144884,83.680179 151.354338,83.7956476 151.647709,83.7956476 C152.009555,83.7956476 152.435849,83.5459133 152.928604,83.0471161 C153.421359,82.5476476 153.914115,81.8568503 154.408884,80.9740531 L155.186954,78.4035357 Z M154.008772,82.2119832 C153.50259,82.9853538 153.006478,83.5626965 152.519765,83.9440112 C152.033052,84.3253259 151.550366,84.5159832 151.071709,84.5159832 C150.548744,84.5159832 150.168772,84.3347245 149.931122,83.9715357 C149.694143,83.6083469 149.606199,83.0746406 149.667961,82.3690741 C149.720996,81.7628643 149.85929,81.1465846 150.083513,80.5195636 C150.307737,79.8925427 150.601108,79.3044587 150.962954,78.7559832 C151.416772,78.0665287 151.916241,77.5308084 152.460017,77.1494937 C153.003793,76.768179 153.538171,76.5775217 154.061136,76.5775217 C154.429695,76.5775217 154.729779,76.6553958 154.963401,76.8124867 C155.197024,76.9689063 155.364185,77.207228 155.464884,77.5254378 L155.772352,76.5775217 L156.908241,76.5775217 L155.155401,82.095172 C155.100352,82.2623329 155.056716,82.428151 155.021807,82.5926266 C154.987569,82.7571021 154.964073,82.912179 154.951317,83.0585287 C154.933192,83.2679832 154.959373,83.4324587 155.031877,83.5526266 C155.103038,83.6727944 155.208436,83.7325427 155.348073,83.7325427 C155.557527,83.7325427 155.779737,83.6096895 156.015373,83.3646545 C156.251681,83.1189483 156.48866,82.7665007 156.728324,82.3059692 L157.067345,82.4469483 C156.749807,83.1162629 156.385947,83.6284867 155.976436,83.9836196 C155.566255,84.3387524 155.139961,84.5159832 154.696884,84.5159832 C154.372632,84.5159832 154.135653,84.4132699 153.983933,84.207172 C153.832213,84.0004028 153.774478,83.6989762 153.808716,83.3015497 C153.822143,83.1552 153.844968,82.9920671 153.878534,82.8114797 C153.911429,82.6315636 153.955066,82.4315077 154.008772,82.2119832 L154.008772,82.2119832 Z" id="Fill-66" fill="#FF8533" mask="url(#mask-2)"></path>
                                    <path d="M158.617712,84.3753399 L160.268509,78.8348643 C160.332285,78.6200392 160.382635,78.4293818 160.419558,78.262221 C160.45581,78.0950601 160.479978,77.9540811 160.490048,77.8392839 C160.508173,77.6352 160.483334,77.4747524 160.416873,77.3572699 C160.349069,77.2397874 160.246355,77.1807105 160.106719,77.1807105 C159.852285,77.1807105 159.583754,77.3008783 159.301796,77.541214 C159.019166,77.7815497 158.694915,78.1655497 158.329712,78.693214 L158.049768,78.4817455 C158.443166,77.8547245 158.857376,77.3807664 159.291055,77.0592 C159.725404,76.7383049 160.167138,76.577186 160.615586,76.577186 C160.959306,76.577186 161.213069,76.669158 161.37553,76.8517594 C161.540006,77.0343608 161.605796,77.3008783 161.575586,77.6506406 C161.560817,77.823172 161.526579,78.0245706 161.474215,78.254165 C161.42118,78.4844308 161.35002,78.7428923 161.260733,79.030221 C161.700453,78.215228 162.129432,77.6056615 162.549013,77.200179 C162.967922,76.7953678 163.379446,76.5932979 163.782915,76.5932979 C164.057488,76.5932979 164.263586,76.6819133 164.40188,76.8598154 C164.540845,77.0370462 164.596565,77.2854378 164.569041,77.6043189 C164.546887,77.8547245 164.482439,78.0480671 164.375698,78.1836755 C164.269628,78.3199552 164.126635,78.3877594 163.946719,78.3877594 C163.752705,78.3877594 163.611726,78.303172 163.525124,78.1333259 C163.437852,77.9634797 163.408985,77.7110601 163.437852,77.3767385 L163.455306,77.1726545 C163.039083,77.204207 162.567138,77.5962629 162.03746,78.348151 C161.508453,79.1007105 161.082159,80.0123748 160.758579,81.0838154 L159.783138,84.3753399 L158.617712,84.3753399 Z" id="Fill-67" fill="#FF8533" mask="url(#mask-2)"></path>
                                    <path d="M170.303664,78.1603133 L170.307692,78.1133203 C170.32649,77.8944671 170.225119,77.6628587 170.001566,77.4198378 C169.779357,77.1768168 169.520895,77.0553063 169.228867,77.0553063 C168.891189,77.0553063 168.550154,77.195614 168.205762,77.4748867 C167.861371,77.7541594 167.535776,78.1549427 167.228308,78.6779077 C166.889958,79.2579357 166.610014,79.8628028 166.388476,80.4918378 C166.167608,81.1215441 166.036699,81.6713622 165.995077,82.1419636 C165.956811,82.575642 166.011189,82.9113063 166.156196,83.1489566 C166.301874,83.386607 166.523413,83.5054322 166.820811,83.5054322 C167.167888,83.5054322 167.551888,83.3040336 167.972811,82.9019077 C168.393063,82.4997818 168.905958,81.8412084 169.509483,80.9268587 L170.303664,78.1603133 Z M171.888,76.7182993 C171.379133,78.3274741 170.88772,80.0219077 170.416448,81.8009287 C169.943832,83.5799497 169.68,84.5553902 169.625622,84.7279217 C169.265119,85.8302434 168.77572,86.6412084 168.156755,87.1614881 C167.538462,87.6810965 166.755692,87.9409007 165.809119,87.9409007 C165.151217,87.9409007 164.64235,87.7925371 164.282517,87.4944671 C163.922685,87.1963972 163.764923,86.799642 163.807888,86.3028587 C163.827357,86.0840056 163.892476,85.9034182 164.004587,85.7624392 C164.116699,85.6214601 164.251636,85.5509706 164.411413,85.5509706 C164.551049,85.5509706 164.654434,85.6019916 164.722909,85.7033622 C164.791385,85.8054042 164.817566,85.9504112 164.801455,86.1383832 C164.790042,86.2639217 164.757147,86.3881175 164.700755,86.5109706 C164.645706,86.6338238 164.564476,86.7627189 164.457734,86.8989986 C164.551049,87.0816 164.722238,87.2252643 164.970629,87.3299916 C165.219021,87.4340476 165.519105,87.4870825 165.87021,87.4870825 C166.648951,87.4870825 167.292755,87.0708587 167.803636,86.2404252 C168.315189,85.4099916 168.785119,83.9861035 169.214769,81.9694322 C168.685762,82.7528727 168.18428,83.3288727 167.710993,83.6974322 C167.237706,84.0659916 166.763077,84.2499357 166.287776,84.2499357 C165.766825,84.2499357 165.370741,84.0451804 165.099524,83.6349986 C164.828979,83.2241455 164.72358,82.669628 164.784671,81.9694322 C164.832336,81.4310266 164.963245,80.8785231 165.178741,80.3119217 C165.394909,79.744649 165.685594,79.1948308 166.050797,78.6624671 C166.495888,78.0038937 166.989315,77.4916699 167.530406,77.1257958 C168.071497,76.760593 168.601175,76.5773203 169.117427,76.5773203 C169.445706,76.5773203 169.726993,76.6451245 169.960615,76.7814042 C170.194909,76.9170126 170.389594,77.1257958 170.543329,77.4077538 L170.739357,76.7182993 L171.888,76.7182993 Z" id="Fill-68" fill="#FF8533" mask="url(#mask-2)"></path>
                                    <path d="M174.100229,80.041242 C175.235446,80.0258014 176.092733,79.8418573 176.670076,79.4887385 C177.247418,79.1362909 177.567642,78.6045986 177.630076,77.8943329 C177.654243,77.6170741 177.599194,77.4029203 177.464929,77.2512 C177.330663,77.100151 177.128593,77.0242909 176.858719,77.0242909 C176.294803,77.0242909 175.781236,77.2773818 175.320034,77.784235 C174.858159,78.2910881 174.452006,79.0436476 174.100229,80.041242 M173.96395,80.4648503 C173.867278,80.7468084 173.788733,81.0408503 173.726299,81.3463049 C173.664537,81.6517594 173.618215,81.9719832 173.588677,82.3063049 C173.540341,82.860151 173.604117,83.2663049 173.780006,83.5247664 C173.955222,83.7838993 174.25732,83.9127944 174.684285,83.9127944 C175.127362,83.9127944 175.567083,83.7536895 176.004789,83.4348084 C176.441152,83.1165986 176.846635,82.6587524 177.219222,82.0632839 L177.493124,82.2747524 C177.099055,83.017242 176.633152,83.5757874 176.094747,83.9524028 C175.55567,84.3283469 174.950131,84.5163189 174.27746,84.5163189 C173.610159,84.5163189 173.111362,84.2954517 172.781069,83.8543888 C172.451446,83.4126545 172.32188,82.7896615 172.391698,81.9854098 C172.455474,81.2583608 172.640761,80.5574937 172.949572,79.8807944 C173.257712,79.2040951 173.67595,78.5784168 174.204285,78.0037594 C174.634607,77.5385287 175.10118,77.1847385 175.605348,76.9417175 C176.110187,76.6986965 176.624425,76.577186 177.14739,76.577186 C177.650215,76.577186 178.03153,76.6926545 178.290663,76.922249 C178.549124,77.1518434 178.660565,77.4760951 178.623642,77.8943329 C178.553824,78.693214 178.116789,79.3148643 177.31388,79.7592839 C176.510971,80.2037035 175.394551,80.4386685 173.96395,80.4648503" id="Fill-69" fill="#FF8533" mask="url(#mask-2)"></path>
                                    <path d="M179.68461,84.3753399 L181.323994,78.8348643 C181.387099,78.6200392 181.437449,78.4293818 181.474372,78.262221 C181.511295,78.0950601 181.534792,77.9540811 181.544862,77.8392839 C181.562987,77.6352 181.538148,77.4747524 181.471687,77.3572699 C181.405225,77.2397874 181.303183,77.1807105 181.16489,77.1807105 C180.913141,77.1807105 180.647966,77.3008783 180.367351,77.541214 C180.087407,77.7815497 179.766512,78.1655497 179.403994,78.693214 L179.125393,78.4817455 C179.515435,77.8547245 179.926288,77.3807664 180.35661,77.0592 C180.786931,76.7383049 181.224638,76.577186 181.669057,76.577186 C182.009421,76.577186 182.261169,76.669158 182.422288,76.8517594 C182.584078,77.0343608 182.649197,77.3008783 182.618987,77.6506406 C182.604218,77.823172 182.570652,78.0245706 182.518288,78.254165 C182.465924,78.4844308 182.395435,78.7428923 182.306148,79.030221 C182.954652,78.1474238 183.530652,77.5177175 184.032806,77.1417734 C184.534288,76.7658294 185.036442,76.577186 185.537924,76.577186 C185.978987,76.577186 186.315994,76.6939972 186.549617,76.9262769 C186.781897,77.1585566 186.880582,77.4807944 186.84433,77.8943329 C186.826876,78.0977455 186.76847,78.3474797 186.668442,78.642193 C186.570428,78.9375776 186.415351,79.3282909 186.205225,79.8143329 L185.033757,82.4627245 C184.953869,82.6459972 184.890764,82.8145007 184.845113,82.968235 C184.799463,83.1226406 184.77261,83.2548923 184.76254,83.3643189 C184.749113,83.5214098 184.784694,83.642249 184.869281,83.7288503 C184.953869,83.8147804 185.075379,83.8577455 185.234484,83.8577455 C185.46475,83.8577455 185.706428,83.7375776 185.958176,83.497242 C186.209924,83.2569063 186.514036,82.8547804 186.870512,82.2908643 L187.176638,82.4627245 C186.791966,83.1736615 186.395883,83.6959552 185.987715,84.0302769 C185.580218,84.3645986 185.141169,84.5317594 184.67191,84.5317594 C184.293281,84.5317594 184.005952,84.4290462 183.810596,84.2222769 C183.613225,84.016179 183.530652,83.730193 183.562876,83.3643189 C183.576302,83.2125986 183.606512,83.0494657 183.653505,82.874249 C183.701169,82.6990322 183.768302,82.5204587 183.85289,82.3378573 L185.147883,79.3047944 C185.290876,78.9651021 185.402987,78.6737455 185.483547,78.4307245 C185.563435,78.1877035 185.609085,78.0037594 185.620498,77.878221 C185.641309,77.6432559 185.607071,77.4720671 185.52047,77.3653259 C185.433869,77.2579133 185.284162,77.204207 185.072022,77.204207 C184.859883,77.204207 184.624917,77.2840951 184.366456,77.4432 C184.107994,77.6029762 183.840134,77.831228 183.562204,78.1292979 C183.097645,78.6408503 182.729757,79.1268923 182.457869,79.5867524 C182.18598,80.0466126 181.96847,80.5454098 181.808022,81.0838154 L180.839295,84.3753399 L179.68461,84.3753399 Z" id="Fill-70" fill="#FF8533" mask="url(#mask-2)"></path>
                                    <path d="M190.320269,77.5414154 L189.169611,77.5414154 L189.209891,77.0869259 L190.449835,77.0869259 L191.231933,74.4687441 L192.300688,74.4687441 L191.570954,77.0869259 L193.357359,77.0869259 L193.317751,77.5414154 L191.434003,77.5414154 L190.123569,82.1883524 C190.064492,82.4031776 190.018842,82.5844364 189.985947,82.7334713 C189.95238,82.8825063 189.932241,83.0067021 189.923513,83.1060587 C189.902031,83.3457231 189.939625,83.5383944 190.033611,83.6813874 C190.12894,83.8250517 190.262534,83.8968839 190.43708,83.8968839 C190.725751,83.8968839 191.031877,83.7364364 191.353443,83.4155413 C191.675681,83.0939748 192.005975,82.6220308 192.344996,82.0010517 L192.591373,82.1729119 C192.234898,82.9462825 191.832101,83.5303385 191.383653,83.9244084 C190.935877,84.3191497 190.45252,84.5165203 189.934255,84.5165203 C189.505947,84.5165203 189.189751,84.3990378 188.986338,84.1634014 C188.782926,83.9284364 188.701024,83.5813594 188.741303,83.1214993 C188.756744,82.9435972 188.778227,82.7831497 188.805751,82.6394853 C188.833276,82.495821 188.870199,82.3581986 188.91652,82.2279608 L190.320269,77.5414154 Z" id="Fill-71" fill="#FF8533" mask="url(#mask-2)"></path>
                                    <path d="M199.644822,80.041242 C200.780039,80.0258014 201.637326,79.8418573 202.214669,79.4887385 C202.792011,79.1362909 203.112235,78.6045986 203.174669,77.8943329 C203.198836,77.6170741 203.143787,77.4029203 203.009522,77.2512 C202.875256,77.100151 202.673186,77.0242909 202.403312,77.0242909 C201.839396,77.0242909 201.325829,77.2773818 200.864627,77.784235 C200.402752,78.2910881 199.996599,79.0436476 199.644822,80.041242 M199.508543,80.4648503 C199.411871,80.7468084 199.333326,81.0408503 199.270892,81.3463049 C199.20913,81.6517594 199.162808,81.9719832 199.13327,82.3063049 C199.084934,82.860151 199.14871,83.2663049 199.324599,83.5247664 C199.499815,83.7838993 199.801913,83.9127944 200.228878,83.9127944 C200.671955,83.9127944 201.111676,83.7536895 201.549382,83.4348084 C201.985745,83.1165986 202.391228,82.6587524 202.763815,82.0632839 L203.037717,82.2747524 C202.643648,83.017242 202.177745,83.5757874 201.63934,83.9524028 C201.100263,84.3283469 200.494724,84.5163189 199.822053,84.5163189 C199.154752,84.5163189 198.655955,84.2954517 198.325662,83.8543888 C197.996039,83.4126545 197.866473,82.7896615 197.936291,81.9854098 C198.000067,81.2583608 198.185354,80.5574937 198.494165,79.8807944 C198.802305,79.2040951 199.220543,78.5784168 199.748878,78.0037594 C200.1792,77.5385287 200.645773,77.1847385 201.149941,76.9417175 C201.65478,76.6986965 202.169018,76.577186 202.691983,76.577186 C203.194808,76.577186 203.576123,76.6926545 203.835256,76.922249 C204.093717,77.1518434 204.205158,77.4760951 204.168235,77.8943329 C204.098417,78.693214 203.661382,79.3148643 202.858473,79.7592839 C202.055564,80.2037035 200.939144,80.4386685 199.508543,80.4648503" id="Fill-72" fill="#FF8533" mask="url(#mask-2)"></path>
                                    <path d="M205.233768,83.2231385 C205.284117,83.5003972 205.439866,83.718579 205.69967,83.8776839 C205.959474,84.0367888 206.291782,84.1166769 206.695922,84.1166769 C207.138999,84.1166769 207.504201,83.9857678 207.79153,83.724621 C208.077516,83.4634741 208.240649,83.1190825 208.277572,82.6907748 C208.326579,82.131558 207.978831,81.6005371 207.23567,81.0990545 L207.165852,81.0527329 C206.473712,80.5875021 206.044062,80.2061874 205.874887,79.9081175 C205.707055,79.6100476 205.642607,79.2367888 205.682215,78.7876699 C205.73995,78.1290965 205.997069,77.5960615 206.452901,77.188565 C206.910076,76.7810685 207.482719,76.5776559 208.169488,76.5776559 C208.782411,76.5776559 209.284565,76.7340755 209.675278,77.047586 C210.066663,77.3610965 210.243222,77.7370406 210.204285,78.1760895 C210.184817,78.4063552 210.123726,78.587614 210.023027,78.7205371 C209.920985,78.8541315 209.795446,78.920593 209.64574,78.920593 C209.501404,78.920593 209.391978,78.8642014 209.31746,78.7520895 C209.242943,78.6399776 209.212733,78.4922853 209.228845,78.3096839 C209.238243,78.2049566 209.26711,78.0888168 209.315446,77.960593 C209.363782,77.8323692 209.431586,77.6981035 209.518859,77.5571245 C209.381236,77.3637818 209.194607,77.2160895 208.959642,77.1140476 C208.724677,77.0126769 208.460173,76.9609846 208.166131,76.9609846 C207.747894,76.9609846 207.405516,77.0791385 207.141684,77.3141035 C206.875838,77.5490685 206.726803,77.8652643 206.691894,78.2620196 C206.667055,78.544649 206.716062,78.7896839 206.836901,78.9991385 C206.95774,79.2079217 207.198747,79.4428867 207.559922,79.7040336 C207.643838,79.7671385 207.775418,79.8557538 207.955334,79.970551 C208.435334,80.2894322 208.783083,80.558635 208.997236,80.7781594 C209.153656,80.9399497 209.262411,81.134635 209.324173,81.3622154 C209.386607,81.5891245 209.404733,81.8489287 209.379222,82.141628 C209.318803,82.8317538 209.036173,83.3996979 208.531334,83.8461315 C208.026495,84.2932364 207.40753,84.5161175 206.67511,84.5161175 C205.99774,84.5161175 205.470747,84.3462713 205.094131,84.006579 C204.718187,83.667558 204.554383,83.2177678 204.60339,82.6592224 C204.627558,82.3819636 204.694691,82.1651245 204.80546,82.0087049 C204.916229,81.851614 205.053852,81.7730685 205.218999,81.7730685 C205.357964,81.7730685 205.468062,81.8267748 205.548621,81.9341874 C205.62918,82.0409287 205.661404,82.1812364 205.645964,82.3530965 C205.637236,82.4578238 205.599642,82.5806769 205.531838,82.7216559 C205.464705,82.862635 205.365348,83.0297958 205.233768,83.2231385" id="Fill-73" fill="#FF8533" mask="url(#mask-2)"></path>
                                    <path d="M213.017622,77.5414154 L211.866965,77.5414154 L211.907245,77.0869259 L213.147189,77.0869259 L213.929287,74.4687441 L214.998042,74.4687441 L214.268308,77.0869259 L216.054713,77.0869259 L216.015105,77.5414154 L214.131357,77.5414154 L212.820923,82.1883524 C212.761846,82.4031776 212.716196,82.5844364 212.683301,82.7334713 C212.649734,82.8825063 212.629594,83.0067021 212.620867,83.1060587 C212.600056,83.3457231 212.636979,83.5383944 212.730965,83.6813874 C212.826294,83.8250517 212.959888,83.8968839 213.134434,83.8968839 C213.423105,83.8968839 213.729231,83.7364364 214.050797,83.4155413 C214.373035,83.0939748 214.703329,82.6220308 215.04235,82.0010517 L215.288727,82.1729119 C214.932252,82.9462825 214.529455,83.5303385 214.081007,83.9244084 C213.633231,84.3191497 213.149874,84.5165203 212.631608,84.5165203 C212.203301,84.5165203 211.887105,84.3990378 211.683692,84.1634014 C211.48028,83.9284364 211.398378,83.5813594 211.437986,83.1214993 C211.454098,82.9435972 211.47558,82.7831497 211.503105,82.6394853 C211.530629,82.495821 211.567552,82.3581986 211.613874,82.2279608 L213.017622,77.5414154 Z" id="Fill-74" fill="#FF8533" mask="url(#mask-2)"></path>
                                    <path d="M222.961007,82.7215888 C223.057007,83.0404699 223.206713,83.2834909 223.408783,83.4506517 C223.610853,83.6178126 223.856559,83.7010573 224.145902,83.7010573 C224.468811,83.7010573 224.787021,83.5862601 225.098517,83.3566657 C225.410014,83.1264 225.691972,82.797449 225.94372,82.3691413 C226.25186,81.8569175 226.50965,81.2795748 226.715748,80.6371133 C226.921175,79.9946517 227.049399,79.3830713 227.10042,78.8030434 C227.142713,78.322372 227.09035,77.9538126 226.946685,77.6980364 C226.801678,77.4422601 226.570741,77.3140364 226.250517,77.3140364 C225.86786,77.3140364 225.461706,77.5443021 225.032727,78.0034909 C224.603748,78.463351 224.155301,79.1481063 223.686713,80.0570853 L222.961007,82.7215888 Z M222.875077,78.8345958 C222.934154,78.6150713 222.980476,78.420386 223.016056,78.2505399 C223.050294,78.0806937 223.072448,77.938372 223.083189,77.8235748 C223.100643,77.6147916 223.077147,77.4590434 223.011357,77.3570014 C222.945566,77.2549594 222.835469,77.2046098 222.681063,77.2046098 C222.466909,77.2046098 222.21449,77.3281343 221.923804,77.5765259 C221.632448,77.8249175 221.311552,78.1968336 220.959105,78.6936168 L220.671105,78.4821483 C221.069874,77.8544559 221.484084,77.3804979 221.912392,77.0589315 C222.341371,76.7380364 222.778406,76.5775888 223.222154,76.5775888 C223.565203,76.5775888 223.820308,76.6675469 223.986126,76.8474629 C224.152615,77.0280503 224.221091,77.2905399 224.190881,77.6356028 C224.18014,77.7557706 224.153287,77.9121902 224.112336,78.1055329 C224.069371,78.2988755 224.014993,78.5210853 223.949203,78.7714909 C224.450685,77.993421 224.925986,77.4328615 225.373762,77.0904839 C225.822881,76.7487776 226.305566,76.5775888 226.824503,76.5775888 C227.352168,76.5775888 227.746909,76.8044979 228.009399,77.2589874 C228.269874,77.7141483 228.365874,78.3458685 228.294713,79.1554909 C228.232951,79.866428 228.076531,80.5431273 227.826126,81.1855888 C227.575049,81.8280503 227.244084,82.4000224 226.831217,82.9021762 C226.468699,83.3405538 226.076643,83.6748755 225.652364,83.9051413 C225.228755,84.1347357 224.787692,84.2495329 224.329175,84.2495329 C223.970685,84.2495329 223.661874,84.176358 223.402741,84.0306797 C223.14428,83.8843301 222.942881,83.6674909 222.798545,83.3801622 L222.019133,86.1386517 C221.974825,86.3058126 221.942601,86.4340364 221.925818,86.5226517 C221.908364,86.6112671 221.89628,86.6871273 221.890238,86.7495608 C221.870098,86.9851972 221.922462,87.1429594 222.047329,87.2241902 C222.172196,87.305421 222.530685,87.3457007 223.12414,87.3457007 L223.017399,87.7921343 C222.695832,87.7659524 222.393734,87.7464839 222.111105,87.7337287 C221.828476,87.7203021 221.557259,87.7142601 221.298126,87.7142601 C221.044364,87.7142601 220.780531,87.7203021 220.507972,87.7337287 C220.234741,87.7464839 219.948755,87.7659524 219.646657,87.7921343 L219.75407,87.3457007 L219.88028,87.3457007 C220.314629,87.3457007 220.610014,87.066428 220.768448,86.5072112 C220.783217,86.4494769 220.797315,86.3997986 220.812084,86.3581762 L222.875077,78.8345958 Z" id="Fill-75" fill="#FF8533" mask="url(#mask-2)"></path>
                                    <path d="M229.609376,84.3753399 L231.260173,78.8348643 C231.32395,78.6200392 231.374299,78.4293818 231.411222,78.262221 C231.447474,78.0950601 231.471642,77.9540811 231.481712,77.8392839 C231.499838,77.6352 231.474999,77.4747524 231.408537,77.3572699 C231.340733,77.2397874 231.23802,77.1807105 231.098383,77.1807105 C230.84395,77.1807105 230.575418,77.3008783 230.29346,77.541214 C230.010831,77.7815497 229.686579,78.1655497 229.321376,78.693214 L229.041432,78.4817455 C229.434831,77.8547245 229.849041,77.3807664 230.282719,77.0592 C230.717069,76.7383049 231.158803,76.577186 231.60725,76.577186 C231.950971,76.577186 232.204733,76.669158 232.367194,76.8517594 C232.53167,77.0343608 232.59746,77.3008783 232.56725,77.6506406 C232.552481,77.823172 232.518243,78.0245706 232.46588,78.254165 C232.412845,78.4844308 232.341684,78.7428923 232.252397,79.030221 C232.692117,78.215228 233.121097,77.6056615 233.540677,77.200179 C233.959586,76.7953678 234.37111,76.5932979 234.774579,76.5932979 C235.049152,76.5932979 235.25525,76.6819133 235.393544,76.8598154 C235.532509,77.0370462 235.588229,77.2854378 235.560705,77.6043189 C235.538551,77.8547245 235.474103,78.0480671 235.367362,78.1836755 C235.261292,78.3199552 235.118299,78.3877594 234.938383,78.3877594 C234.744369,78.3877594 234.60339,78.303172 234.516789,78.1333259 C234.429516,77.9634797 234.400649,77.7110601 234.429516,77.3767385 L234.446971,77.1726545 C234.030747,77.204207 233.558803,77.5962629 233.029124,78.348151 C232.500117,79.1007105 232.073824,80.0123748 231.750243,81.0838154 L230.774803,84.3753399 L229.609376,84.3753399 Z" id="Fill-76" fill="#FF8533" mask="url(#mask-2)"></path>
                                    <path d="M241.24028,78.6307133 C241.283916,78.1238601 241.209399,77.7264336 241.016056,77.4397762 C240.821371,77.1517762 240.530014,77.0081119 240.141315,77.0081119 C239.852643,77.0081119 239.567329,77.0906853 239.286713,77.2551608 C239.005427,77.4196364 238.752336,77.6532587 238.526769,77.9566993 C238.119944,78.5105455 237.774881,79.1919441 237.492252,80.0022378 C237.209622,80.8118601 237.031049,81.6322238 236.958545,82.4626573 C236.914238,82.9748811 236.990098,83.3736503 237.186797,83.6582937 C237.384168,83.9429371 237.678881,84.0852587 238.07228,84.0852587 C238.356923,84.0852587 238.637538,84.004028 238.915469,83.8422378 C239.19407,83.6804476 239.443804,83.4508531 239.663329,83.1527832 C240.070154,82.6096783 240.415217,81.9302937 240.701203,81.1153007 C240.987189,80.2996364 241.167105,79.4718881 241.24028,78.6307133 M240.105063,76.5771189 C240.882462,76.5771189 241.47793,76.8308811 241.891469,77.3377343 C242.305678,77.8445874 242.474853,78.5313566 242.398993,79.3987133 C242.272112,80.8460979 241.788084,82.0605315 240.94758,83.0426853 C240.107077,84.0255105 239.145734,84.5162517 238.064895,84.5162517 C237.277427,84.5162517 236.685986,84.2510769 236.287888,83.7213986 C235.891133,83.1903776 235.734042,82.4552727 235.816615,81.5147413 C235.875021,80.8460979 236.035469,80.2063217 236.297958,79.5947413 C236.561119,78.9831608 236.907524,78.4427413 237.337175,77.9728112 C237.739972,77.5176503 238.17835,77.1719161 238.652979,76.9342657 C239.127608,76.6959441 239.611636,76.5771189 240.105063,76.5771189" id="Fill-77" fill="#FF8533" mask="url(#mask-2)"></path>
                                    <path d="M245.213874,77.5414154 L244.063217,77.5414154 L244.103497,77.0869259 L245.343441,77.0869259 L246.125538,74.4687441 L247.194294,74.4687441 L246.464559,77.0869259 L248.250965,77.0869259 L248.211357,77.5414154 L246.327608,77.5414154 L245.017175,82.1883524 C244.958098,82.4031776 244.912448,82.5844364 244.879552,82.7334713 C244.845986,82.8825063 244.825846,83.0067021 244.817119,83.1060587 C244.796308,83.3457231 244.833231,83.5383944 244.927217,83.6813874 C245.022545,83.8250517 245.15614,83.8968839 245.330685,83.8968839 C245.619357,83.8968839 245.925483,83.7364364 246.247049,83.4155413 C246.569287,83.0939748 246.89958,82.6220308 247.238601,82.0010517 L247.484979,82.1729119 C247.128503,82.9462825 246.725706,83.5303385 246.277259,83.9244084 C245.829483,84.3191497 245.346126,84.5165203 244.82786,84.5165203 C244.399552,84.5165203 244.083357,84.3990378 243.879944,84.1634014 C243.676531,83.9284364 243.594629,83.5813594 243.634238,83.1214993 C243.65035,82.9435972 243.671832,82.7831497 243.699357,82.6394853 C243.726881,82.495821 243.763804,82.3581986 243.810126,82.2279608 L245.213874,77.5414154 Z" id="Fill-78" fill="#FF8533" mask="url(#mask-2)"></path>
                                    <path d="M255.256884,74.2339804 L252.721947,75.7075469 L252.063373,75.7075469 L254.455989,73.3954909 C254.640604,73.2229594 254.805751,73.095407 254.952772,73.0114909 C255.099793,72.9275748 255.23473,72.8859524 255.360269,72.8859524 C255.524073,72.8859524 255.656996,72.946372 255.758366,73.0665399 C255.859737,73.1860364 255.903373,73.340442 255.88659,73.528414 C255.875849,73.6539524 255.824828,73.7680783 255.733527,73.869449 C255.642227,73.9714909 255.483122,74.0930014 255.256884,74.2339804 M250.330674,80.0409734 C251.466562,80.0255329 252.323178,79.8415888 252.90052,79.4891413 C253.478534,79.1360224 253.798087,78.6043301 253.86052,77.8940643 C253.884688,77.6174769 253.829639,77.4026517 253.695373,77.2516028 C253.561108,77.0998825 253.359038,77.0240224 253.089164,77.0240224 C252.525248,77.0240224 252.011681,77.2777846 251.550478,77.7846378 C251.088604,78.2908196 250.683122,79.043379 250.330674,80.0409734 M250.194394,80.4645818 C250.097723,80.7465399 250.019178,81.0405818 249.956744,81.3460364 C249.894982,81.6521622 249.84866,81.9717147 249.819122,82.3060364 C249.770786,82.8605538 249.834562,83.2667077 250.011122,83.5251692 C250.185667,83.7836308 250.487765,83.9125259 250.91473,83.9125259 C251.357807,83.9125259 251.797527,83.753421 252.235234,83.4352112 C252.671597,83.1163301 253.07708,82.6591552 253.450338,82.0636867 L253.723569,82.2751552 C253.329499,83.0169734 252.864269,83.5761902 252.325192,83.9521343 C251.786115,84.3280783 251.180576,84.5160503 250.507905,84.5160503 C249.840604,84.5160503 249.341807,84.2958545 249.011513,83.8541203 C248.681891,83.412386 248.552324,82.789393 248.622143,81.9851413 C248.685919,81.2587636 248.871206,80.5572252 249.180017,79.8805259 C249.488157,79.2038266 249.906394,78.5788196 250.435401,78.0034909 C250.865052,77.5389315 251.331625,77.1851413 251.835793,76.9421203 C252.340632,76.698428 252.85487,76.5775888 253.377835,76.5775888 C253.88066,76.5775888 254.261975,76.692386 254.521108,76.9219804 C254.779569,77.1522462 254.89101,77.4758266 254.854087,77.8940643 C254.784269,78.6936168 254.347905,79.3152671 253.544324,79.7590154 C252.741415,80.203435 251.624996,80.4384 250.194394,80.4645818" id="Fill-79" fill="#FF8533" mask="url(#mask-2)"></path>
                                    <path d="M261.010439,78.1603133 L261.014467,78.1133203 C261.033264,77.8944671 260.931894,77.6628587 260.708341,77.4198378 C260.486131,77.1768168 260.22767,77.0553063 259.935642,77.0553063 C259.597964,77.0553063 259.256929,77.195614 258.912537,77.4748867 C258.568145,77.7541594 258.242551,78.1549427 257.935083,78.6779077 C257.596733,79.2579357 257.316789,79.8628028 257.09525,80.4918378 C256.874383,81.1215441 256.743474,81.6713622 256.701852,82.1419636 C256.663586,82.575642 256.717964,82.9113063 256.862971,83.1489566 C257.008649,83.386607 257.230187,83.5054322 257.527586,83.5054322 C257.874663,83.5054322 258.258663,83.3040336 258.679586,82.9019077 C259.099838,82.4997818 259.612733,81.8412084 260.216257,80.9268587 L261.010439,78.1603133 Z M262.594775,76.7182993 C262.085908,78.3274741 261.594495,80.0219077 261.123222,81.8009287 C260.650607,83.5799497 260.386775,84.5553902 260.332397,84.7279217 C259.971894,85.8302434 259.482495,86.6412084 258.86353,87.1614881 C258.245236,87.6810965 257.462467,87.9409007 256.515894,87.9409007 C255.857992,87.9409007 255.349124,87.7925371 254.989292,87.4944671 C254.62946,87.1963972 254.471698,86.799642 254.514663,86.3028587 C254.534131,86.0840056 254.59925,85.9034182 254.711362,85.7624392 C254.823474,85.6214601 254.958411,85.5509706 255.118187,85.5509706 C255.257824,85.5509706 255.361208,85.6019916 255.429684,85.7033622 C255.498159,85.8054042 255.524341,85.9504112 255.508229,86.1383832 C255.496817,86.2639217 255.463922,86.3881175 255.40753,86.5109706 C255.352481,86.6338238 255.27125,86.7627189 255.164509,86.8989986 C255.257824,87.0816 255.429013,87.2252643 255.677404,87.3299916 C255.925796,87.4340476 256.22588,87.4870825 256.576985,87.4870825 C257.355726,87.4870825 257.99953,87.0708587 258.510411,86.2404252 C259.021964,85.4099916 259.491894,83.9861035 259.921544,81.9694322 C259.392537,82.7528727 258.891055,83.3288727 258.417768,83.6974322 C257.944481,84.0659916 257.469852,84.2499357 256.994551,84.2499357 C256.4736,84.2499357 256.077516,84.0451804 255.806299,83.6349986 C255.535754,83.2241455 255.430355,82.669628 255.491446,81.9694322 C255.53911,81.4310266 255.67002,80.8785231 255.885516,80.3119217 C256.101684,79.744649 256.392369,79.1948308 256.757572,78.6624671 C257.202663,78.0038937 257.69609,77.4916699 258.23718,77.1257958 C258.778271,76.760593 259.30795,76.5773203 259.824201,76.5773203 C260.152481,76.5773203 260.433768,76.6451245 260.66739,76.7814042 C260.901684,76.9170126 261.096369,77.1257958 261.250103,77.4077538 L261.446131,76.7182993 L262.594775,76.7182993 Z" id="Fill-80" fill="#FF8533" mask="url(#mask-2)"></path>
                                    <path d="M269.73308,74.2339804 L267.198143,75.7075469 L266.539569,75.7075469 L268.932856,73.3954909 C269.116129,73.2229594 269.281947,73.095407 269.428968,73.0114909 C269.575989,72.9275748 269.711597,72.8859524 269.835793,72.8859524 C269.999597,72.8859524 270.133192,72.946372 270.234562,73.0665399 C270.335933,73.1860364 270.379569,73.340442 270.362786,73.528414 C270.352045,73.6539524 270.301024,73.7680783 270.209723,73.869449 C270.118422,73.9714909 269.959317,74.0930014 269.73308,74.2339804 M264.80687,80.0409734 C265.942758,80.0255329 266.799373,79.8415888 267.376716,79.4891413 C267.95473,79.1360224 268.274283,78.6043301 268.336716,77.8940643 C268.360884,77.6174769 268.305835,77.4026517 268.171569,77.2516028 C268.037303,77.0998825 267.835234,77.0240224 267.565359,77.0240224 C267.001443,77.0240224 266.487877,77.2777846 266.026674,77.7846378 C265.5648,78.2908196 265.159317,79.043379 264.80687,80.0409734 M264.67059,80.4645818 C264.573919,80.7465399 264.495373,81.0405818 264.43294,81.3460364 C264.371178,81.6521622 264.324856,81.9717147 264.295317,82.3060364 C264.246982,82.8605538 264.310758,83.2667077 264.487317,83.5251692 C264.661863,83.7836308 264.963961,83.9125259 265.390926,83.9125259 C265.834003,83.9125259 266.273723,83.753421 266.711429,83.4352112 C267.147793,83.1163301 267.553276,82.6591552 267.926534,82.0636867 L268.199765,82.2751552 C267.805695,83.0169734 267.340464,83.5761902 266.801387,83.9521343 C266.26231,84.3280783 265.656772,84.5160503 264.984101,84.5160503 C264.3168,84.5160503 263.818003,84.2958545 263.487709,83.8541203 C263.158087,83.412386 263.02852,82.789393 263.098338,81.9851413 C263.162115,81.2587636 263.347401,80.5572252 263.656213,79.8805259 C263.964352,79.2038266 264.38259,78.5788196 264.910926,78.0034909 C265.341248,77.5389315 265.807821,77.1851413 266.311989,76.9421203 C266.816828,76.698428 267.331066,76.5775888 267.854031,76.5775888 C268.356856,76.5775888 268.738842,76.692386 268.997303,76.9219804 C269.255765,77.1522462 269.367206,77.4758266 269.330283,77.8940643 C269.260464,78.6936168 268.824101,79.3152671 268.02052,79.7590154 C267.217611,80.203435 266.101192,80.4384 264.67059,80.4645818" id="Fill-81" fill="#FF8533" mask="url(#mask-2)"></path>
                                </g>
                            </g>
                        </g>
                    </g>
                </g>
            </g>
        </g>
    </g>
</svg>