<svg xmlns="http://www.w3.org/2000/svg" width="490.1" height="190.5" viewBox="0 0 490.1 190.5">
  <path fill="#30b200" d="M475.1,145c-5-6.7-21.4-2.5-36.6,9.4c-15.2,11.9-18.5,33.8-18.5,33.8s21.2,2.5,36.4-9.2c0.1-0.1,0.2-0.1,0.3-0.2c3.1-2.5,6-5.1,8.5-7.7C474.6,161,479.1,150.3,475.1,145z"/>
  <path fill="#92c500" d="M454.1,120.1c-7.1,7.4-26.8-0.2-44-16.8c-17.2-16.6-18.2-43.4-18.2-43.4s0.1,0,0.2,0c2.2,0,27.4,0.9,43.8,16.7c4.2,4.1,7.9,8.3,10.9,12.5C456.2,102.1,459.5,114.5,454.1,120.1z M436.4,132.9c-6.8-0.9-16.1,0.2-25.5,3.6c-15.7,5.7-21.8,21.7-21.8,21.7s0.1,0.1,0.4,0.1c2.8,0.9,20.2,6.2,34.6,1.1c0.4-0.1,0.8-0.3,1.1-0.4c11.2-4.3,19.2-10.6,21-16c0.6-1.9,0.6-3.6-0.3-5.2C444.5,135.1,441.1,133.5,436.4,132.9z"/>
  <path fill="#e32313" d="M465,171.1c1,7,2,10.8,2,10.8c-3.6-1.1-7.2-2.1-10.7-3c0.1-0.1,0.2-0.1,0.3-0.2C459.7,176.3,462.5,173.7,465,171.1z M173.2,101.9c7.5-4.2,10.4-9.5,10.7-13l0-0.6c0-1.4-0.4-2.5-1.2-3.1c-3.2-2.5-13.3-1.2-20.9,5.9c-4.9,4.6-7.7,9.5-8.4,14.8c0.6,0,1.3,0,1.3,0C158.5,106,165.3,106.3,173.2,101.9z M329.8,121.5l0.2,2.3c0.4,1.8,1.3,3.2,2.6,4.3c1.4,1.2,3.2,1.7,5.1,1.7c7.3-0.3,18.8-7.9,18.7-27.3v-0.3l-10,3C335.3,108.5,329.9,113.8,329.8,121.5zM446.3,142.9c0.6-1.9,0.6-3.6-0.3-5.2c-1.5-2.6-4.9-4.2-9.5-4.8c-6.2-2.3-15.5-2.3-26.1,0.4c-16.9,4.5-27.5,22.7-27.5,22.7s2.6,1.1,6.6,2.2c2.8,0.9,20.2,6.2,34.6,1.1c0.4-0.1,0.8-0.3,1.1-0.4c-3.5,4.7-6,9.6-7.7,13.5c-43.6,1.2-91.8,18.1-185.6,18.1c-127,0-172.5-30.9-232-12.1C0,178.5,4.1,75.9,4.1,0H460c0,43.1,1.5,101.5,2.7,139.1C458.3,138.9,452.5,140.2,446.3,142.9zM121.8,98.1c3.8-44.7,11.3-71.1,11.4-71.4l0.2-0.7l-0.7,0.2c-0.2,0-17,4.5-24.7,10.4l-0.1,0.1c-1.5,1.1-2.7,2.1-4,5.3c-3.1,17-5.3,35.1-6.8,54l-31.6-2.3c0.3-6.7,0.6-12.8,0.7-18c0.4-13.3,0-21.5-1.6-22.7c-7.7-5.8-19-7-21.3-7.2c0.2,10,0.3,20.3,0.1,30.6c-0.1,5.1-0.2,10.1-0.4,15c-5-0.6-10-1.8-13.7-3.7c-0.4-0.2-0.9-0.7-1.5-0.1c-0.6,0.6,0.9,5.2,1.8,7.3c1.5,3.5,5.4,9.9,12.5,14.5c-0.9,14.4-2.2,28.4-3.8,41.9c7.9-0.4,16.1-0.9,24.4-1.2c0.8-10.8,1.3-24.4,1.8-35.2c0,0,0.1-1.7,0.1-2.3l0-0.1l31.5,1c-0.4,8.9-0.6,18-0.6,27.1c0,2.8,0,5.6,0.1,8.4c8.2-0.3,16.5-0.6,24.9-0.9C120,142.2,119.6,124,121.8,98.1zM385.6,143.1c-0.2-0.3-1.1-2-1.1-2c-0.9-1.7-2.1-4.2-2.6-6.5c-0.7-3-1.1-6.5-1.1-10.2V94.4c0-2.7-0.3-5.2-0.8-7.5c-1.2-5.2-3.7-9.4-7.4-12.6c-6.9-6-14.3-8.1-25.6-7.3c-10.8,0.7-21.7,4.7-30.1,11c0,0-1.5,1.1-1.5,1.1c0.1,0,6.2,10.4,6.8,11.4c0.3-0.2,1.7-1.3,1.7-1.3c5.4-4.3,13.5-6.7,18.7-6.9c3.3-0.1,6.5,0.8,8.8,2.6c1.3,1,2.3,2.4,3,4.1c-0.1,0.2-17.6,5.3-17.6,5.3c-20.6,5.9-30.7,14.5-31.4,27.1c-2,1.8-8.9,8-15.2,5.5c-2.3-0.9-3.7-3.1-4.2-6.7c-0.2-1.8-0.3-3.8-0.3-6.1c0-6.4,0.9-14.7,2.6-24.5c16,0.1,23.5-10.3,25.5-15.6c0.8-2.2,1.6-4.2,2.3-5c0.2-0.2,0.7-0.8,0.2-1.5c-0.5-0.7-1.2-0.4-1.6-0.2c-6.4,2.6-14.5,2.3-21.7,1.6H293c2.6-12.4,7.8-24.9,7.9-24.9c0.2-0.5,0.4-1,0.5-1.3c0.1-0.3,0.1-0.6-0.2-0.8c-0.2-0.1-1.5,0.2-1.5,0.2l-8.1,2c-3.8,0.9-10.9,2.2-13.7,3.1c-4.8,1.5-5.5,8-6.4,10.8c-0.7,3.1-1.7,6.8-2.4,10.4c-0.4,0-0.6,0-0.6,0c-2.3-0.1-4,0-5.5,0.1l-1.6,0.1c-12.5,1-18.1,5.8-24.2,10.9l-0.6,0.5c0,0-0.1,0.1-0.1,0.1c0.3-1.8,1.6-10.6,1.6-10.6l-26.5,2.6l0.3,1.6c0,0,0.3,1.7,0.3,7.3c0,10.6-1,14.7-1.2,15.4c0,0-0.6,1.9-0.6,1.9c-6.5,17.5-22,29.6-40.4,31.6c-5.2,0.6-10.2-0.7-13.5-3.4c-3.1-2.5-3.9-7.2-3.9-9.9c0-0.3,0-0.5,0-0.7c16.7,1.2,29.4-3.9,34.3-7.1c10.2-6.8,14.6-12.9,14.6-20.5l-0.1-1.8c-0.6-5.6-3.5-10-8.5-12.9c-5.1-3-10.3-4.2-16.9-3.7c-14,1.1-26.5,6.8-35.1,16.1c-8.8,9.6-12.7,20.7-11.5,33.1c0.9,8.9,4.5,15.9,10.9,20.8c17.1,13.2,46.3,7.1,62.9-6.9c1.7-1.4,3.3-3.1,5-4.8c-0.1,1.6-0.5,5.6-0.5,5.6l-1.1,9.4c0,0-0.2,1.2-0.2,1.2l-0.1,0.5l25.2-0.9l-0.2-1.5c0-0.1-1.3-13.5,1.8-34.9c0.9-6.1,3.9-12.4,7.7-16.1c4.4-4.2,10.2-5.5,15.3-6.2c2.6-0.3,6-0.1,9.5,0.5c-0.1,0.8-1.3,8.9-1.3,8.9c-1.4,10.4-2.2,16.6-2.2,21.8c0,2.2,0.1,4.4,0.4,6.8c0.9,7.5,3.9,13,9,16.6c5.1,3.6,12.2,4.8,19,3.1c6.7-1.6,13.3-4.6,18.4-7.8c1.1,1.7,2.4,3.2,4,4.6c4.9,4.2,11.4,6.4,18.6,6.1c8-0.3,15.6-5.1,22-9.7c0,0,1.3-1,1.3-1c0-0.1,0-0.3,0-0.3s0.1,0.1,0.1,0.2c0,0,0.1,0,0.1,0s0,0.1,0,0.1c0,0,0.1,0.1,0.1,0.1c0.1,0.1,5.3,7.5,16.8,8.7c0.1,0,4.9,0.3,8.3-0.1C380.3,143.9,384.8,143.2,385.6,143.1z M454.1,120.1c5.4-5.5,2-18-7.3-30.9c-2.5-4-5.7-8.3-9.7-12.8c-18.7-20.9-36.1-22.6-45.4-24.9c0,0-0.1,3.3,0.4,8.4c-0.1,0-0.2,0-0.2,0s1,26.8,18.2,43.4C427.3,119.9,447,127.4,454.1,120.1zM490.1,172.9c0,1.3-0.3,2.6-1,3.9c-0.7,1.2-1.6,2.2-2.9,2.9c-1.2,0.7-2.5,1-3.9,1c-1.4,0-2.6-0.3-3.9-1c-1.2-0.7-2.2-1.7-2.9-2.9c-0.7-1.2-1-2.5-1-3.9c0-1.4,0.4-2.7,1.1-3.9c0.7-1.3,1.7-2.2,2.9-2.9c1.2-0.7,2.5-1,3.8-1c1.3,0,2.6,0.3,3.8,1c1.2,0.7,2.2,1.6,2.9,2.9C489.7,170.2,490.1,171.5,490.1,172.9z M488.8,172.9c0-1.1-0.3-2.2-0.9-3.3c-0.6-1-1.4-1.8-2.4-2.4c-1-0.6-2.1-0.8-3.2-0.8c-1.1,0-2.2,0.3-3.2,0.8c-1,0.6-1.9,1.4-2.4,2.4c-0.6,1-0.9,2.1-0.9,3.3c0,1.1,0.3,2.2,0.9,3.2c0.6,1,1.4,1.8,2.4,2.4c1,0.6,2.1,0.9,3.2,0.9c1.1,0,2.2-0.3,3.2-0.9c1-0.6,1.8-1.4,2.4-2.4C488.5,175.1,488.8,174,488.8,172.9zM484.9,175.6l1,1.6h-1.7l-0.7-1.3c-0.6-1-1.1-1.7-1.4-2c-0.2-0.2-0.6-0.3-1.1-0.3h-0.8v3.6h-1.4v-8.4h2.9c1,0,1.7,0.1,2.1,0.2c0.4,0.2,0.8,0.4,1.1,0.8c0.3,0.4,0.4,0.8,0.4,1.2c0,0.6-0.2,1.1-0.7,1.6c-0.4,0.5-1,0.7-1.7,0.8c0.3,0.1,0.5,0.3,0.7,0.4C484,174.2,484.4,174.8,484.9,175.6z M483.4,172.1c0.3-0.2,0.4-0.5,0.4-0.9c0-0.2-0.1-0.5-0.2-0.7c-0.1-0.2-0.3-0.3-0.6-0.4c-0.2-0.1-0.7-0.1-1.4-0.1h-1.5v2.5h1.6C482.6,172.5,483.1,172.4,483.4,172.1z"/>
</svg>
