<svg xmlns="http://www.w3.org/2000/svg" viewBox="0 0 198.4 198.4" width="114" height="114"><style type="text/css">
	.st0{fill:#71B60B;}
	.st1{fill:#FFFFFF;}
</style><rect x="104.9" y="19.8" class="st0" width="14.2" height="14.2"/><rect x="5.7" y="5.7" class="st0" width="14.2" height="14.2"/><rect x="76.5" y="5.7" class="st0" width="14.2" height="14.2"/><rect x="133.2" y="5.7" class="st0" width="14.2" height="14.2"/><rect x="175.7" y="5.7" class="st0" width="14.2" height="14.2"/><polygon class="st0" points="175.7 48.2 175.7 62.4 175.7 62.4 161.6 62.4 161.6 62.4 161.6 48.2 161.6 34 147.4 34 133.2 34 133.2 48.2 147.4 48.2 147.4 62.4 147.4 62.4 133.2 62.4 133.2 62.4 119.1 62.4 119.1 62.4 119.1 48.2 104.9 48.2 104.9 34 90.7 34 90.7 48.2 76.5 48.2 76.5 62.4 76.5 62.4 62.4 62.4 62.4 62.4 62.4 62.4 62.4 48.2 62.4 48.2 68.1 48.2 76.5 48.2 76.5 19.8 62.4 19.8 62.4 34 60.9 34 60.9 34 48.2 34 48.2 62.4 34 62.4 34 62.4 34 48.2 34 48.2 34 34 34 34 39.8 34 48.2 34 48.2 5.7 34 5.7 34 19.8 32.6 19.8 32.6 19.8 19.8 19.8 19.8 34 5.7 34 5.7 62.4 5.7 73.1 5.7 76.5 5.7 76.5 5.7 90.7 5.7 90.7 5.7 104.9 5.7 104.9 5.7 119.1 5.7 119.1 5.7 133.2 5.7 147.4 5.7 161.6 5.7 161.6 5.7 175.7 5.7 175.7 5.7 189.9 19.8 189.9 19.8 189.9 34 189.9 34 189.9 48.2 189.9 189.9 189.9 189.9 189.3 189.9 175.7 189.9 175.1 189.9 161.6 189.9 161.6 189.9 147.4 189.9 133.2 189.9 119.1 189.9 119.1 189.9 104.9 189.9 104.9 189.9 90.7 189.9 90.7 189.9 76.5 189.9 76.5 189.9 66.4 189.9 62.4 189.9 48.2 "/><path class="st1" d="M25.3 80.4h7.9v25.5h-5.3V87.8h-0.1l-6.3 18.1h-4.3L11 88h-0.1v17.9H5.7V80.4h7.9l6 17.6h0.1L25.3 80.4zM54.5 96.2c0 1.9-0.4 3.3-1.1 4.2 -0.8 0.9-2.1 1.3-4.1 1.3 -1.1 0-2.1-0.2-2.7-0.5 -0.7-0.3-1.2-0.7-1.6-1.3 -0.4-0.5-0.6-1.1-0.8-1.8 -0.1-0.7-0.2-1.4-0.2-2V80.3h-5.6v15.9c0 3.5 0.9 6.1 2.8 7.7 1.9 1.7 4.6 2.5 8 2.5 3.4 0 6.1-0.8 8-2.5 1.9-1.7 2.9-4.2 2.9-7.7V80.3h-5.6V96.2zM81.7 92.6c-0.8-0.5-1.7-0.9-2.5-1.2 -0.8-0.3-1.5-0.4-2-0.5 -1.6-0.4-2.9-0.7-3.9-1 -1-0.3-1.8-0.5-2.3-0.8 -0.6-0.3-0.9-0.5-1.1-0.9 -0.2-0.3-0.3-0.7-0.3-1.2 0-0.5 0.1-1 0.4-1.4 0.2-0.4 0.5-0.7 0.9-0.9 0.4-0.2 0.8-0.4 1.2-0.5 0.5-0.1 0.9-0.1 1.4-0.1 0.7 0 1.3 0.1 1.9 0.2 0.6 0.1 1.1 0.3 1.6 0.6 0.4 0.3 0.8 0.7 1.1 1.2 0.3 0.5 0.4 1.1 0.5 1.9H84c0-1.5-0.3-2.7-0.8-3.8 -0.6-1-1.3-1.9-2.3-2.6 -1-0.7-2-1.2-3.3-1.4 -1.2-0.3-2.5-0.4-3.8-0.4 -1.1 0-2.3 0.2-3.4 0.5 -1.1 0.3-2.2 0.8-3.1 1.4 -0.9 0.6-1.6 1.4-2.2 2.4 -0.6 1-0.8 2.1-0.8 3.4 0 1.2 0.2 2.2 0.7 3 0.4 0.8 1 1.5 1.7 2.1 0.7 0.5 1.5 1 2.4 1.3 0.9 0.3 1.8 0.6 2.8 0.9 0.9 0.3 1.8 0.5 2.8 0.7 0.9 0.2 1.7 0.5 2.4 0.8 0.7 0.3 1.3 0.6 1.7 1.1 0.4 0.4 0.7 1 0.7 1.7 0 0.6-0.2 1.2-0.5 1.6 -0.3 0.4-0.8 0.7-1.3 1 -0.5 0.2-1 0.4-1.6 0.5 -0.6 0.1-1.1 0.1-1.6 0.1 -0.7 0-1.5-0.1-2.1-0.3 -0.7-0.2-1.3-0.5-1.8-0.8 -0.5-0.4-0.9-0.8-1.2-1.4 -0.3-0.6-0.5-1.3-0.5-2.2h-5.4c0 1.6 0.3 2.9 0.9 4.1 0.6 1.1 1.4 2.1 2.4 2.8 1 0.7 2.2 1.3 3.5 1.6 1.3 0.3 2.7 0.5 4.1 0.5 1.7 0 3.3-0.2 4.6-0.6 1.3-0.4 2.4-1 3.3-1.7 0.9-0.7 1.6-1.6 2-2.6 0.5-1 0.7-2.1 0.7-3.3 0-1.4-0.3-2.6-0.9-3.5C83.3 93.8 82.6 93.1 81.7 92.6zM93.8 94.9h12.4v-4.4H93.8V85h13.5v-4.7H88.1v25.5h19.4v-4.7H93.8V94.9zM127.4 96.2c0 1.9-0.4 3.3-1.1 4.2 -0.8 0.9-2.2 1.3-4.1 1.3 -1.1 0-2.1-0.2-2.7-0.5 -0.7-0.3-1.2-0.7-1.6-1.3 -0.4-0.5-0.6-1.1-0.8-1.8 -0.1-0.7-0.2-1.4-0.2-2V80.3h-5.6v15.9c0 3.5 0.9 6.1 2.8 7.7 0.6 0.5 1.2 0.9 1.9 1.2 0 0 7.8-0.9 10.6 0.7 0.2-0.1 0.3-0.1 0.5-0.2 1.2-0.4 2.2-1 3.1-1.8 1.9-1.7 2.9-4.2 2.9-7.7V80.3h-5.6V96.2zM151.8 97.9L151.8 97.9l-6-17.6h-7.9v25.5h5.3V87.9h0.1l6.3 17.9h4.3l6.3-18.1h0.1v18.1l2.4-0.5 2.8-0.2V80.3h-7.9L151.8 97.9zM189 94.5c-0.6-0.9-1.3-1.6-2.2-2.2 -0.8-0.5-1.7-0.9-2.5-1.2 -0.8-0.2-1.5-0.4-2-0.5 -1.6-0.4-2.9-0.7-3.9-1 -1-0.3-1.8-0.5-2.3-0.8 -0.6-0.3-0.9-0.6-1.1-0.9 -0.2-0.3-0.3-0.7-0.3-1.2 0-0.5 0.1-1 0.4-1.4 0.2-0.4 0.5-0.7 0.9-0.9 0.4-0.2 0.8-0.4 1.2-0.5 0.5-0.1 0.9-0.1 1.4-0.1 0.7 0 1.3 0.1 1.9 0.2 0.6 0.1 1.1 0.3 1.6 0.6 0.5 0.3 0.8 0.7 1.1 1.2 0.3 0.5 0.4 1.1 0.5 1.9h5.4c0-1.5-0.3-2.7-0.8-3.8 -0.6-1-1.3-1.9-2.3-2.6 -0.9-0.7-2-1.1-3.3-1.4 -1.2-0.3-2.5-0.4-3.8-0.4 -1.1 0-2.3 0.2-3.4 0.5 -1.1 0.3-2.2 0.8-3.1 1.4 -0.9 0.6-1.6 1.4-2.2 2.4 -0.6 1-0.8 2.1-0.8 3.4 0 1.2 0.2 2.2 0.7 3 0.4 0.8 1 1.5 1.7 2.1 0.7 0.5 1.5 1 2.4 1.3 0.9 0.3 1.8 0.6 2.8 0.9 0.9 0.3 1.9 0.5 2.8 0.7 0.9 0.2 1.7 0.5 2.4 0.8 0.7 0.3 1.3 0.6 1.7 1.1 0.4 0.4 0.7 1 0.7 1.7 0 0.6-0.2 1.2-0.5 1.6 -0.3 0.4-0.8 0.7-1.2 1 -0.5 0.2-1 0.4-1.6 0.5 -0.6 0.1-1.1 0.1-1.6 0.1 -0.7 0-1.5-0.1-2.1-0.3 -0.7-0.2-1.3-0.5-1.8-0.8 -0.5-0.4-0.9-0.9-1.2-1.4 -0.3-0.6-0.5-1.3-0.5-2.2h-5.4c0 1.6 0.3 2.9 0.9 4.1 0.6 1.1 1.4 2.1 2.4 2.8 1 0.7 2.2 1.3 3.5 1.6 1.3 0.3 2.7 0.5 4.1 0.5 1.7 0 3.3-0.2 4.6-0.6 1.3-0.4 2.4-1 3.3-1.7 0.9-0.7 1.6-1.6 2-2.6 0.5-1 0.7-2.1 0.7-3.3C189.9 96.6 189.6 95.4 189 94.5zM22.8 180.1L22.8 180.1l-7.4-21.6H5.7v31.4h6.5v-22.1h0.1l7.7 22.1h5.3l7.7-22.3h0.1v22.3h6.5v-31.4h-9.7L22.8 180.1zM144.2 176.4h15.2V171h-15.2v-6.7h16.6v-5.8h-23.5v31.4h23.9v-5.8h-16.9V176.4zM114.9 176.4h15.2V171h-15.2v-6.7h16.6v-5.8c0 0-1.9 0-3.3 0 0 0-0.3 0.1-1 0.2 -4.4 1.7-14.3-0.2-14.3-0.2h-5v31.4h23.9v-5.8h-17V176.4zM99.8 173.5c-1-0.7-2.1-1.2-3.1-1.5 -1-0.3-1.9-0.5-2.4-0.6 -2-0.5-3.6-0.9-4.8-1.2 -1.2-0.3-2.2-0.6-2.9-1 -0.7-0.3-1.2-0.7-1.4-1.1 -0.2-0.4-0.4-0.9-0.4-1.5 0-0.7 0.1-1.2 0.4-1.7 0.3-0.4 0.7-0.8 1.1-1.1 0.5-0.3 1-0.5 1.5-0.6 0.6-0.1 1.1-0.2 1.7-0.2 0.9 0 1.6 0.1 2.4 0.2 0.7 0.1 1.4 0.4 1.9 0.7 0.6 0.4 1 0.8 1.3 1.5 0.3 0.6 0.5 1.4 0.6 2.3h6.7c0-1.8-0.3-3.4-1-4.6 -0.7-1.3-1.6-2.3-2.8-3.1 -1.2-0.8-2.5-1.4-4-1.8 -1.5-0.4-3.1-0.5-4.7-0.5 -1.4 0-2.8 0.2-4.2 0.6 -1.4 0.4-2.7 1-3.8 1.8 -1.1 0.8-2 1.8-2.7 3 -0.7 1.2-1 2.6-1 4.2 0 1.4 0.3 2.7 0.8 3.7 0.5 1 1.3 1.9 2.1 2.5 0.9 0.7 1.9 1.2 3 1.7 1.1 0.4 2.3 0.8 3.4 1.1 1.1 0.3 2.3 0.6 3.4 0.9 1.1 0.3 2.1 0.6 3 0.9 0.9 0.3 1.6 0.8 2.1 1.3 0.5 0.5 0.8 1.2 0.8 2.1 0 0.8-0.2 1.4-0.6 2 -0.4 0.5-0.9 0.9-1.5 1.2 -0.6 0.3-1.3 0.5-2 0.6 -0.7 0.1-1.4 0.2-2 0.2 -0.9 0-1.8-0.1-2.6-0.3 -0.9-0.2-1.6-0.6-2.2-1 -0.6-0.5-1.1-1-1.5-1.8 -0.4-0.7-0.6-1.6-0.6-2.7h-6.7c0 1.9 0.3 3.6 1.1 5 0.7 1.4 1.7 2.6 3 3.5 1.2 0.9 2.5 1.5 4 1.9h10.9c0 0 0 0 0 0 1.6-0.5 3-1.2 4.1-2.1 1.1-0.9 1.9-2 2.5-3.2 0.6-1.2 0.8-2.6 0.8-4 0-1.8-0.4-3.2-1.1-4.3C101.7 175.1 100.8 174.2 99.8 173.5zM66.2 178.1c0 2.3-0.5 4.1-1.4 5.2 -0.9 1.1-2.6 1.6-5.1 1.6 -1.4 0-2.5-0.2-3.4-0.6 -0.8-0.4-1.5-0.9-2-1.5 -0.5-0.6-0.8-1.4-0.9-2.2 -0.1-0.8-0.2-1.7-0.2-2.5v-19.5h-6.9v19.5c0 4.3 1.2 7.5 3.5 9.5 1.2 1.1 2.7 1.8 4.4 2.3h11c1.7-0.5 3.2-1.3 4.4-2.4 2.4-2.1 3.6-5.2 3.6-9.5v-19.5h-6.9V178.1zM188.8 176.3c-0.7-1.1-1.6-2-2.7-2.7 -1-0.7-2.1-1.2-3.1-1.5 -1-0.3-1.9-0.5-2.4-0.6 -2-0.5-3.6-0.9-4.8-1.2 -1.2-0.3-2.2-0.6-2.9-1 -0.7-0.3-1.2-0.7-1.4-1.1 -0.2-0.4-0.4-0.9-0.4-1.5 0-0.7 0.1-1.2 0.4-1.7 0.3-0.4 0.7-0.8 1.1-1.1 0.5-0.3 1-0.5 1.5-0.6 0.6-0.1 1.1-0.2 1.7-0.2 0.9 0 1.6 0.1 2.4 0.2 0.7 0.1 1.4 0.4 1.9 0.7 0.6 0.4 1 0.8 1.3 1.5 0.3 0.6 0.5 1.4 0.6 2.3h6.7c0-1.8-0.3-3.4-1-4.6 -0.7-1.3-1.6-2.3-2.8-3.1 -1.2-0.8-2.5-1.4-4-1.8 -1-0.2-2-0.4-3-0.5l-8.5 1.5c-0.4 0.2-0.8 0.5-1.2 0.7 -1.1 0.8-2 1.8-2.7 3 -0.7 1.2-1 2.6-1 4.2 0 1.4 0.3 2.7 0.8 3.7 0.5 1 1.3 1.9 2.1 2.5 0.9 0.7 1.9 1.2 3 1.7 1.1 0.4 2.3 0.8 3.4 1.1 1.1 0.3 2.3 0.6 3.4 0.9 1.1 0.3 2.1 0.6 3 0.9 0.9 0.4 1.6 0.8 2.1 1.3 0.5 0.5 0.8 1.2 0.8 2.1 0 0.8-0.2 1.4-0.6 2 -0.4 0.5-0.9 0.9-1.5 1.2 -0.6 0.3-1.3 0.5-2 0.6 -0.7 0.1-1.4 0.2-2 0.2 -0.9 0-1.8-0.1-2.6-0.3 -0.9-0.2-1.6-0.6-2.2-1 -0.6-0.5-1.1-1.1-1.5-1.8 -0.4-0.7-0.6-1.6-0.6-2.7h-6.7c0 1.9 0.3 3.6 1.1 5 0.7 1.4 1.7 2.6 3 3.5 1.2 0.9 2.5 1.5 4 1.9h10.9c0 0 0 0 0 0 1.6-0.5 3-1.2 4.1-2.1 1.1-0.9 1.9-2 2.5-3.2 0.6-1.2 0.8-2.6 0.8-4C189.9 178.9 189.5 177.4 188.8 176.3zM36.2 118.6c0.6 1.1 0.9 2.5 0.9 4.3 0 1.7-0.3 3.1-0.9 4.2 -0.6 1.1-1.4 2-2.4 2.6 -1 0.6-2.1 1-3.4 1.2 -1.2 0.2-2.5 0.3-3.9 0.3h-9.4v-16.6l9.4 0c1.3 0 2.6 0.1 3.9 0.3 1.3 0.2 2.4 0.6 3.4 1.2C34.8 116.7 35.6 117.5 36.2 118.6zM36.1 122.9c0-1.6-0.3-2.9-0.8-3.8 -0.5-1-1.2-1.7-2-2.2 -0.9-0.5-1.9-0.9-3-1.1 -1.2-0.2-2.4-0.3-3.7-0.3l-8.4 0v14.6h8.4c1.3 0 2.5-0.1 3.7-0.3 1.2-0.2 2.2-0.5 3-1.1 0.8-0.5 1.5-1.2 2-2.2C35.8 125.7 36.1 124.5 36.1 122.9zM43.9 134.7c-1.5 1.6-3.4 2.9-5.8 3.9 -2.4 1-5.2 1.5-8.5 1.5H18.1v18.7H5.7v-53.1h24c3.3 0 6.1 0.5 8.5 1.5 2.3 1 4.3 2.3 5.8 3.9 1.5 1.6 2.6 3.4 3.2 5.5 0.7 2 1 4.2 1 6.4 0 2.1-0.3 4.3-1 6.3C46.5 131.3 45.4 133.1 43.9 134.7zM43.2 134c1.4-1.5 2.4-3.2 3-5.2 0.6-2 1-4 1-6 0-2.1-0.3-4.1-1-6 -0.6-1.9-1.6-3.6-3-5.1 -1.4-1.5-3.2-2.7-5.4-3.6 -2.2-0.9-4.9-1.4-8.1-1.4h-23v51.1h10.4V139h12.5c3.2 0 5.9-0.5 8.1-1.4C40 136.7 41.8 135.5 43.2 134zM70.5 118.4l6.7 19.4 0.2 0.7H62.5l7.1-20.1H70 70.5zM76 137.6L70 120.3l-6.1 17.3H76zM76.4 105.6l19.8 53.1h-13l-3.9-11.6H60.6l-4.1 11.6H43.9l20.1-53.1H76 76.4zM94.8 157.7l-19.1-51.1h-11l-19.3 51.1h10.4l4.1-11.6H80l3.9 11.6H94.8zM140.8 135.3c1.3 2 1.9 4.5 1.9 7.5 0 2.4-0.5 4.7-1.4 6.8 -1 2.1-2.4 3.9-4.3 5.5 -1.9 1.5-4.2 2.7-6.9 3.5 -2.8 0.8-5.9 1.3-9.5 1.3 0 0 0 0 0 0 -2.9 0-5.7-0.4-8.4-1.1 -2.8-0.7-5.2-1.9-7.3-3.4 -2.1-1.6-3.8-3.5-5.1-5.9 -1.2-2.3-1.8-5.1-1.8-8.2 0-0.1 0-0.3 0-0.4l0-0.5H110v0.5c0 1.7 0.3 3.1 0.9 4.2l-0.4 0.2 0.4-0.2c0.6 1.2 1.4 2.1 2.4 2.8 1 0.7 2.2 1.2 3.5 1.6 1.4 0.4 2.8 0.5 4.2 0.5 1 0 2.1-0.1 3.2-0.3 1.1-0.2 2.2-0.5 3.1-0.9 1-0.5 1.7-1.1 2.4-1.9 0.6-0.7 0.9-1.7 0.9-2.9 0-1.3-0.4-2.3-1.2-3.1 -0.8-0.8-2-1.5-3.4-2.1 -1.4-0.6-3.1-1.1-4.9-1.5 -1.9-0.4-3.7-0.9-5.6-1.5 -2-0.5-3.9-1.1-5.7-1.8 -1.9-0.7-3.6-1.7-5.1-2.8 -1.5-1.2-2.7-2.6-3.7-4.4 -1-1.8-1.4-3.9-1.4-6.3 0-2.7 0.6-5.2 1.8-7.2 1.2-2 2.7-3.7 4.6-5.1 1.9-1.4 4-2.3 6.4-3 2.4-0.6 4.8-1 7.1-1 2.8 0 5.4 0.3 8 0.9 2.6 0.6 4.8 1.6 6.8 3 2 1.4 3.6 3.2 4.8 5.4 1.2 2.2 1.8 4.9 1.8 7.9v0.5H129l0-0.5c-0.1-1.5-0.4-2.7-0.9-3.7 -0.5-1-1.2-1.7-2-2.2 -0.9-0.5-1.9-0.9-3-1.2 -1.2-0.2-2.4-0.4-3.8-0.4 -0.9 0-1.8 0.1-2.7 0.3 -0.9 0.2-1.6 0.5-2.3 1 -0.7 0.4-1.3 1-1.7 1.7 -0.4 0.6-0.6 1.5-0.6 2.5 0 1 0.2 1.7 0.5 2.2 0.3 0.5 1 1 2.1 1.6 1.1 0.5 2.7 1 4.7 1.6 2 0.5 4.6 1.2 7.9 2 1 0.2 2.4 0.6 4.1 1.1 1.8 0.5 3.5 1.4 5.3 2.5C138 131.8 139.5 133.3 140.8 135.3zM141.8 142.7c0-2.8-0.6-5.1-1.8-6.9 -1.2-1.8-2.6-3.3-4.3-4.3 -1.7-1.1-3.3-1.9-5-2.4 -1.7-0.5-3.1-0.9-4-1 -3.3-0.8-5.9-1.5-7.9-2 -2-0.5-3.6-1.1-4.8-1.6 -1.2-0.6-2-1.2-2.5-1.9 -0.5-0.7-0.7-1.7-0.7-2.7 0-1.2 0.3-2.2 0.8-3.1 0.5-0.8 1.2-1.4 2-2 0.8-0.5 1.7-0.9 2.7-1.1 1-0.2 1.9-0.3 2.9-0.3 1.4 0 2.8 0.1 4 0.4 1.2 0.3 2.4 0.7 3.3 1.3 1 0.6 1.8 1.5 2.4 2.6 0.6 1 0.9 2.2 1 3.6H140c-0.1-2.7-0.6-5-1.6-7 -1.1-2-2.6-3.7-4.5-5 -1.9-1.3-4.1-2.3-6.5-2.9 -2.5-0.6-5-0.9-7.7-0.9 -2.3 0-4.6 0.3-6.9 0.9 -2.3 0.6-4.3 1.6-6.1 2.8 -1.8 1.3-3.2 2.9-4.3 4.8 -1.1 1.9-1.6 4.1-1.6 6.7 0 2.3 0.4 4.3 1.3 5.8 0.9 1.6 2 3 3.4 4 1.4 1.1 3 2 4.8 2.7 1.8 0.7 3.7 1.3 5.6 1.8 1.9 0.5 3.8 1 5.6 1.5 1.9 0.4 3.5 1 5 1.6 1.5 0.6 2.7 1.4 3.7 2.3 1 1 1.5 2.3 1.5 3.8 0 1.4-0.4 2.6-1.1 3.6 -0.7 0.9-1.6 1.6-2.7 2.1 -1.1 0.5-2.2 0.8-3.4 1 -1.2 0.2-2.3 0.3-3.4 0.3 -1.5 0-3-0.2-4.5-0.6 -1.5-0.4-2.8-1-3.9-1.8 -1.1-0.8-2-1.9-2.7-3.1 -0.6-1.2-0.9-2.6-1-4.2H98.9c0 2.9 0.6 5.5 1.7 7.6 1.2 2.3 2.8 4.1 4.8 5.6 2 1.5 4.3 2.5 7 3.2 2.7 0.7 5.4 1 8.2 1 3.5 0 6.6-0.4 9.2-1.2 2.6-0.8 4.8-1.9 6.6-3.4 1.8-1.4 3.1-3.1 4-5.1C141.3 147.2 141.8 145 141.8 142.7zM189.9 142.7c0 2.4-0.5 4.7-1.4 6.8 -1 2.1-2.4 3.9-4.3 5.5 -1.9 1.5-4.2 2.7-6.9 3.5 -2.8 0.8-5.9 1.3-9.5 1.3 -2.9 0-5.7-0.4-8.5-1.1 -2.8-0.7-5.2-1.9-7.3-3.4 -2.1-1.5-3.8-3.5-5.1-5.9 -1.2-2.3-1.8-5-1.8-8.1 0-0.1 0-0.3 0-0.4l0-0.5h12.1v0.5c0 1.7 0.3 3.1 0.9 4.2l0 0c0.6 1.2 1.4 2.1 2.4 2.8 1 0.7 2.2 1.2 3.5 1.6 1.4 0.4 2.8 0.5 4.2 0.5 1 0 2.1-0.1 3.2-0.2 1.1-0.2 2.2-0.5 3.1-0.9 1-0.5 1.7-1.1 2.4-1.9 0.6-0.8 0.9-1.7 0.9-2.9 0-1.3-0.4-2.3-1.2-3.1 -0.8-0.8-2-1.5-3.4-2.1 -1.4-0.6-3.1-1.1-4.9-1.5 -1.9-0.4-3.7-0.9-5.6-1.5 -2-0.5-3.9-1.1-5.7-1.8 -1.9-0.7-3.6-1.7-5.1-2.8 -1.5-1.2-2.7-2.6-3.7-4.4 -0.9-1.8-1.4-3.9-1.4-6.3 0-2.7 0.6-5.2 1.8-7.2 1.2-2 2.7-3.7 4.6-5.1 1.9-1.4 4-2.3 6.4-3 2.4-0.6 4.7-1 7.1-1 2.8 0 5.4 0.3 8 0.9 2.6 0.6 4.8 1.6 6.8 3 2 1.4 3.6 3.2 4.8 5.4 1.2 2.2 1.8 4.9 1.8 7.9v0.5h-12.1l0-0.5c-0.1-1.5-0.4-2.7-0.9-3.7 -0.5-1-1.2-1.7-2.1-2.2 -0.9-0.5-1.9-0.9-3-1.2 -1.2-0.2-2.4-0.4-3.8-0.4 -0.9 0-1.8 0.1-2.7 0.3 -0.9 0.2-1.6 0.5-2.3 1 -0.7 0.5-1.3 1-1.7 1.7 -0.4 0.6-0.6 1.4-0.6 2.5 0 1 0.2 1.7 0.5 2.2 0.3 0.5 1 1.1 2.1 1.6 1.1 0.5 2.6 1 4.7 1.6 2 0.5 4.6 1.2 7.9 2 1 0.2 2.3 0.6 4.1 1.1 1.8 0.5 3.5 1.4 5.3 2.5 1.8 1.2 3.3 2.7 4.6 4.6C189.3 137.2 189.9 139.7 189.9 142.7zM188.9 142.7c0-2.8-0.6-5.1-1.8-6.9 -1.2-1.8-2.6-3.3-4.3-4.3 -1.7-1.1-3.3-1.9-5-2.4 -1.7-0.5-3.1-0.9-4-1.1 -3.3-0.8-5.9-1.5-7.9-2 -2-0.5-3.6-1.1-4.8-1.6 -1.2-0.6-2-1.2-2.5-1.9 -0.5-0.7-0.7-1.7-0.7-2.7 0-1.2 0.3-2.2 0.8-3 0.5-0.8 1.2-1.4 2-2 0.8-0.5 1.7-0.9 2.7-1.1 1-0.2 1.9-0.3 2.9-0.3 1.4 0 2.8 0.1 4 0.4 1.2 0.3 2.4 0.7 3.3 1.3 1 0.6 1.8 1.5 2.4 2.6 0.5 1 0.9 2.2 1 3.6h10.1c-0.1-2.7-0.6-5-1.6-7 -1.1-2-2.6-3.7-4.5-5 -1.9-1.3-4.1-2.3-6.5-2.9 -2.5-0.6-5-0.9-7.7-0.9 -2.3 0-4.6 0.3-6.9 0.9 -2.3 0.6-4.3 1.6-6.1 2.8 -1.8 1.3-3.2 2.9-4.3 4.8 -1.1 1.9-1.6 4.1-1.6 6.7 0 2.3 0.4 4.3 1.3 5.8 0.9 1.6 2 3 3.4 4 1.4 1.1 3 2 4.8 2.7 1.8 0.7 3.7 1.3 5.6 1.8 1.9 0.5 3.7 1 5.6 1.5 1.9 0.4 3.5 1 5 1.6 1.5 0.6 2.7 1.4 3.7 2.3 1 1 1.5 2.3 1.5 3.8 0 1.4-0.4 2.6-1.1 3.6 -0.7 0.9-1.6 1.6-2.7 2.1 -1.1 0.5-2.2 0.8-3.4 1 -1.2 0.2-2.3 0.3-3.4 0.3 -1.5 0-3-0.2-4.5-0.6 -1.5-0.4-2.8-1-3.8-1.8 -1.1-0.8-2-1.8-2.7-3.1 -0.6-1.2-0.9-2.6-1-4.2h-10.1c0 2.9 0.6 5.5 1.7 7.6 1.2 2.3 2.8 4.1 4.8 5.6 2 1.5 4.3 2.5 7 3.2 2.7 0.7 5.4 1 8.2 1 3.5 0 6.6-0.4 9.2-1.2 2.6-0.8 4.8-1.9 6.6-3.4 1.8-1.4 3.1-3.1 4-5.1C188.5 147.2 188.9 145 188.9 142.7z"/><path class="st1" d="M13.6 80.4l6 17.6h0.1l5.6-17.6h7.9v25.5h-5.3V87.8h-0.1l-6.3 18.1h-4.3L11 88h-0.1v17.9H5.7V80.4H13.6zM57.2 103.9c-1.9 1.7-4.6 2.5-8 2.5 -3.5 0-6.1-0.8-8-2.5 -1.9-1.7-2.8-4.2-2.8-7.7V80.3h5.6v15.9c0 0.7 0.1 1.4 0.2 2 0.1 0.7 0.4 1.3 0.8 1.8 0.4 0.5 0.9 0.9 1.6 1.3 0.7 0.3 1.6 0.5 2.7 0.5 2 0 3.4-0.4 4.1-1.3 0.8-0.9 1.1-2.3 1.1-4.2V80.3h5.6v15.9C60.1 99.7 59.1 102.2 57.2 103.9zM69.2 99.6c0.3 0.6 0.7 1.1 1.2 1.4 0.5 0.4 1.1 0.6 1.8 0.8 0.7 0.2 1.4 0.3 2.1 0.3 0.5 0 1 0 1.6-0.1 0.6-0.1 1.1-0.2 1.6-0.5 0.5-0.2 0.9-0.6 1.3-1 0.3-0.4 0.5-1 0.5-1.6 0-0.7-0.2-1.3-0.7-1.7 -0.4-0.4-1-0.8-1.7-1.1 -0.7-0.3-1.5-0.5-2.4-0.8 -0.9-0.2-1.8-0.5-2.8-0.7 -1-0.2-1.9-0.5-2.8-0.9 -0.9-0.3-1.7-0.8-2.4-1.3 -0.7-0.5-1.3-1.2-1.7-2.1 -0.4-0.8-0.7-1.8-0.7-3 0-1.3 0.3-2.4 0.8-3.4 0.6-1 1.3-1.8 2.2-2.4 0.9-0.6 1.9-1.1 3.1-1.4 1.1-0.3 2.3-0.5 3.4-0.5 1.3 0 2.6 0.1 3.8 0.4 1.2 0.3 2.3 0.8 3.3 1.4 1 0.7 1.7 1.5 2.3 2.6 0.6 1 0.8 2.3 0.8 3.8h-5.4c0-0.8-0.2-1.4-0.5-1.9 -0.3-0.5-0.6-0.9-1.1-1.2 -0.5-0.3-1-0.5-1.6-0.6 -0.6-0.1-1.2-0.2-1.9-0.2 -0.5 0-0.9 0-1.4 0.1 -0.5 0.1-0.9 0.3-1.2 0.5 -0.4 0.2-0.7 0.5-0.9 0.9 -0.2 0.4-0.4 0.8-0.4 1.4 0 0.5 0.1 0.9 0.3 1.2 0.2 0.3 0.6 0.6 1.1 0.9 0.6 0.3 1.3 0.5 2.3 0.8 1 0.3 2.3 0.6 3.9 1 0.5 0.1 1.1 0.3 2 0.5 0.8 0.3 1.7 0.7 2.5 1.2 0.8 0.5 1.6 1.3 2.2 2.2 0.6 0.9 0.9 2.1 0.9 3.5 0 1.2-0.2 2.3-0.7 3.3 -0.5 1-1.1 1.9-2 2.6 -0.9 0.7-2 1.3-3.3 1.7 -1.3 0.4-2.9 0.6-4.6 0.6 -1.4 0-2.8-0.2-4.1-0.5 -1.3-0.3-2.5-0.9-3.5-1.6 -1-0.7-1.8-1.7-2.4-2.8 -0.6-1.1-0.9-2.5-0.9-4.1h5.4C68.8 98.2 68.9 99 69.2 99.6zM107.2 80.3V85H93.8v5.5h12.4v4.4H93.8v6.3h13.8v4.7H88.1V80.3H107.2zM115.9 105.2 115.9 105.2c-0.7-0.3-1.3-0.8-1.9-1.2 -1.9-1.7-2.8-4.2-2.8-7.7V80.3h5.6v15.9c0 0.7 0.1 1.4 0.2 2 0.1 0.7 0.4 1.3 0.8 1.8 0.4 0.5 0.9 0.9 1.6 1.3 0.7 0.3 1.6 0.5 2.7 0.5 2 0 3.4-0.4 4.1-1.3 0.8-0.9 1.1-2.3 1.1-4.2V80.3h5.6v15.9c0 3.5-1 6-2.9 7.7 -0.9 0.8-1.9 1.4-3.1 1.8 -0.2 0.1-0.3 0.1-0.5 0.2C123.7 104.3 115.9 105.2 115.9 105.2zM162.5 105.3l-2.4 0.5V87.8H160l-6.3 18.1h-4.3l-6.3-17.9h-0.1v17.9h-5.3V80.3h7.9l6 17.6h0.1l5.7-17.6h7.9v24.7L162.5 105.3zM174.3 99.3c0.3 0.6 0.7 1.1 1.2 1.4 0.5 0.4 1.1 0.6 1.8 0.8 0.7 0.2 1.4 0.3 2.1 0.3 0.5 0 1 0 1.6-0.1 0.6-0.1 1.1-0.2 1.6-0.5 0.5-0.2 0.9-0.6 1.2-1 0.3-0.4 0.5-0.9 0.5-1.6 0-0.7-0.2-1.3-0.7-1.7 -0.4-0.4-1-0.8-1.7-1.1 -0.7-0.3-1.5-0.5-2.4-0.8 -0.9-0.2-1.8-0.5-2.8-0.7 -1-0.2-1.9-0.5-2.8-0.9 -0.9-0.3-1.7-0.8-2.4-1.3 -0.7-0.5-1.3-1.2-1.7-2.1 -0.4-0.8-0.7-1.8-0.7-3 0-1.3 0.3-2.4 0.8-3.4 0.6-1 1.3-1.8 2.2-2.4 0.9-0.6 1.9-1.1 3.1-1.4 1.1-0.3 2.3-0.5 3.4-0.5 1.3 0 2.6 0.1 3.8 0.4 1.2 0.3 2.3 0.8 3.3 1.4 1 0.7 1.7 1.5 2.3 2.6 0.6 1 0.8 2.3 0.8 3.8h-5.4c0-0.8-0.2-1.4-0.5-1.9 -0.3-0.5-0.6-0.9-1.1-1.2 -0.4-0.3-1-0.5-1.6-0.6 -0.6-0.1-1.2-0.2-1.9-0.2 -0.5 0-0.9 0-1.4 0.1 -0.5 0.1-0.9 0.3-1.2 0.5 -0.4 0.2-0.7 0.5-0.9 0.9 -0.2 0.4-0.4 0.8-0.4 1.4 0 0.5 0.1 0.9 0.3 1.2 0.2 0.3 0.6 0.6 1.1 0.9 0.6 0.3 1.3 0.5 2.3 0.8 1 0.3 2.3 0.6 3.9 1 0.5 0.1 1.1 0.3 2 0.5 0.8 0.2 1.7 0.7 2.5 1.2 0.8 0.5 1.6 1.3 2.2 2.2 0.6 0.9 0.9 2.1 0.9 3.5 0 1.2-0.2 2.3-0.7 3.3 -0.5 1-1.1 1.9-2 2.6 -0.9 0.7-2 1.3-3.3 1.7 -1.3 0.4-2.9 0.6-4.6 0.6 -1.4 0-2.8-0.2-4.1-0.5 -1.3-0.3-2.5-0.9-3.5-1.6 -1-0.7-1.8-1.7-2.4-2.8 -0.6-1.1-0.9-2.5-0.9-4.1h5.4C173.9 98 174 98.7 174.3 99.3z"/><path class="st1" d="M15.4 158.5l7.4 21.6h0.1l7-21.6h9.7v31.4h-6.5v-22.3H33l-7.7 22.3h-5.3l-7.7-22.1h-0.1v22.1H5.7v-31.4H15.4zM160.8 158.5v5.8h-16.6v6.7h15.2v5.4h-15.2v7.7h16.9v5.8h-23.9v-31.4H160.8zM128.2 158.5c1.4 0 3.3 0 3.3 0v5.8h-16.6v6.7h15.2v5.4h-15.2v7.7h17v5.8H108v-31.4h5c0 0 9.8 1.9 14.3 0.2C127.9 158.6 128.2 158.5 128.2 158.5zM96.1 189.9C96.1 189.9 96.1 189.9 96.1 189.9c1.7-0.5 3-1.2 4.1-2.1 1.1-0.9 1.9-2 2.5-3.2 0.6-1.2 0.8-2.6 0.8-4 0-1.8-0.4-3.2-1.1-4.3 -0.7-1.1-1.6-2-2.7-2.7 -1-0.7-2.1-1.2-3.1-1.5 -1-0.3-1.9-0.5-2.4-0.6 -2-0.5-3.6-0.9-4.8-1.2 -1.2-0.3-2.2-0.6-2.9-1 -0.7-0.3-1.2-0.7-1.4-1.1 -0.2-0.4-0.4-0.9-0.4-1.5 0-0.7 0.1-1.2 0.4-1.7 0.3-0.4 0.7-0.8 1.1-1.1 0.5-0.3 1-0.5 1.5-0.6 0.6-0.1 1.1-0.2 1.7-0.2 0.9 0 1.6 0.1 2.4 0.2 0.7 0.1 1.4 0.4 1.9 0.7 0.6 0.4 1 0.8 1.3 1.5 0.3 0.6 0.5 1.4 0.6 2.3h6.7c0-1.8-0.3-3.4-1-4.6 -0.7-1.3-1.6-2.3-2.8-3.1 -1.2-0.8-2.5-1.4-4-1.8 -1.5-0.4-3.1-0.5-4.7-0.5 -1.4 0-2.8 0.2-4.2 0.6 -1.4 0.4-2.7 1-3.8 1.8 -1.1 0.8-2 1.8-2.7 3 -0.7 1.2-1 2.6-1 4.2 0 1.4 0.3 2.7 0.8 3.7 0.5 1 1.3 1.9 2.1 2.5 0.9 0.7 1.9 1.2 3 1.7 1.1 0.4 2.3 0.8 3.4 1.1 1.1 0.3 2.3 0.6 3.4 0.9 1.1 0.3 2.1 0.6 3 0.9 0.9 0.3 1.6 0.8 2.1 1.3 0.5 0.5 0.8 1.2 0.8 2.1 0 0.8-0.2 1.4-0.6 2 -0.4 0.5-0.9 0.9-1.5 1.2 -0.6 0.3-1.3 0.5-2 0.6 -0.7 0.1-1.4 0.2-2 0.2 -0.9 0-1.8-0.1-2.6-0.3 -0.9-0.2-1.6-0.6-2.2-1 -0.6-0.5-1.1-1-1.5-1.8 -0.4-0.7-0.6-1.6-0.6-2.7h-6.7c0 1.9 0.3 3.6 1.1 5 0.7 1.4 1.7 2.6 3 3.5 1.2 0.9 2.5 1.5 4 1.9M85.2 189.9h10.9M65.2 189.9c1.7-0.5 3.2-1.3 4.4-2.4 2.4-2.1 3.6-5.2 3.6-9.5v-19.5h-6.9v19.5c0 2.3-0.5 4.1-1.4 5.2 -0.9 1.1-2.6 1.6-5.1 1.6 -1.4 0-2.5-0.2-3.4-0.6 -0.8-0.4-1.5-0.9-2-1.5 -0.5-0.6-0.8-1.4-0.9-2.2 -0.1-0.8-0.2-1.7-0.2-2.5v-19.5h-6.9v19.5c0 4.3 1.2 7.5 3.5 9.5 1.2 1.1 2.7 1.8 4.4 2.3M54.2 189.9h11M182.5 189.9C182.5 189.9 182.5 189.9 182.5 189.9c1.7-0.5 3-1.2 4.1-2.1 1.1-0.9 1.9-2 2.5-3.2 0.6-1.2 0.8-2.6 0.8-4 0-1.8-0.4-3.2-1.1-4.3 -0.7-1.1-1.6-2-2.7-2.7 -1-0.7-2.1-1.2-3.1-1.5 -1-0.3-1.9-0.5-2.4-0.6 -2-0.5-3.6-0.9-4.8-1.2 -1.2-0.3-2.2-0.6-2.9-1 -0.7-0.3-1.2-0.7-1.4-1.1 -0.2-0.4-0.4-0.9-0.4-1.5 0-0.7 0.1-1.2 0.4-1.7 0.3-0.4 0.7-0.8 1.1-1.1 0.5-0.3 1-0.5 1.5-0.6 0.6-0.1 1.1-0.2 1.7-0.2 0.9 0 1.6 0.1 2.4 0.2 0.7 0.1 1.4 0.4 1.9 0.7 0.6 0.4 1 0.8 1.3 1.5 0.3 0.6 0.5 1.4 0.6 2.3h6.7c0-1.8-0.3-3.4-1-4.6 -0.7-1.3-1.6-2.3-2.8-3.1 -1.2-0.8-2.5-1.4-4-1.8 -1-0.2-2-0.4-3-0.5l-8.5 1.5c-0.4 0.2-0.8 0.5-1.2 0.7 -1.1 0.8-2 1.8-2.7 3 -0.7 1.2-1 2.6-1 4.2 0 1.4 0.3 2.7 0.8 3.7 0.5 1 1.3 1.9 2.1 2.5 0.9 0.7 1.9 1.2 3 1.7 1.1 0.4 2.3 0.8 3.4 1.1 1.1 0.3 2.3 0.6 3.4 0.9 1.1 0.3 2.1 0.6 3 0.9 0.9 0.4 1.6 0.8 2.1 1.3 0.5 0.5 0.8 1.2 0.8 2.1 0 0.8-0.2 1.4-0.6 2 -0.4 0.5-0.9 0.9-1.5 1.2 -0.6 0.3-1.3 0.5-2 0.6 -0.7 0.1-1.4 0.2-2 0.2 -0.9 0-1.8-0.1-2.6-0.3 -0.9-0.2-1.6-0.6-2.2-1 -0.6-0.5-1.1-1.1-1.5-1.8 -0.4-0.7-0.6-1.6-0.6-2.7h-6.7c0 1.9 0.3 3.6 1.1 5 0.7 1.4 1.7 2.6 3 3.5 1.2 0.9 2.5 1.5 4 1.9M171.5 189.9h10.9"/><path class="st1" d="M5.7 158.7v-53.1h24v0.5 0.5h-23v51.1h10.4V139h12.5c3.2 0 5.9-0.5 8.1-1.4l0 0c2.2-0.9 4-2.1 5.4-3.6l0 0c1.4-1.5 2.4-3.2 3-5.2l0 0c0.6-2 1-4 1-6l0 0c0-2.1-0.3-4.1-1-6l0 0c-0.6-1.9-1.6-3.6-3-5.1l0 0c-1.4-1.5-3.2-2.7-5.4-3.6l0 0c-2.2-0.9-4.9-1.4-8.1-1.4l0 0v-0.5 -0.5c3.3 0 6.1 0.5 8.5 1.5l0 0c2.3 1 4.3 2.3 5.8 3.9l0 0c1.5 1.6 2.6 3.4 3.2 5.5l0 0c0.7 2 1 4.2 1 6.4l0 0c0 2.1-0.3 4.3-1 6.3l0 0c-0.7 2.1-1.8 3.9-3.2 5.5l0 0c-1.5 1.6-3.4 2.9-5.8 3.9l0 0c-2.4 1-5.2 1.5-8.5 1.5l0 0H18.1v18.7H5.7L5.7 158.7zM17.1 131.2v-16.6l9.4 0c1.3 0 2.6 0.1 3.9 0.3l0 0c1.3 0.2 2.4 0.6 3.4 1.2l0 0c1 0.6 1.8 1.5 2.4 2.6l0 0c0.6 1.1 0.9 2.5 0.9 4.3l0 0c0 1.7-0.3 3.1-0.9 4.2l0 0c-0.6 1.1-1.4 2-2.4 2.6l0 0c-1 0.6-2.1 1-3.4 1.2l0 0c-1.2 0.2-2.5 0.3-3.9 0.3l0 0v-0.5 -0.5c1.3 0 2.5-0.1 3.7-0.3l0 0c1.2-0.2 2.2-0.5 3-1.1l0 0c0.8-0.5 1.5-1.2 2-2.2l0 0c0.5-0.9 0.8-2.2 0.8-3.8l0 0c0-1.6-0.3-2.9-0.8-3.8l0 0c-0.5-1-1.2-1.7-2-2.2l0 0c-0.9-0.5-1.9-0.9-3-1.1l0 0c-1.2-0.2-2.4-0.3-3.7-0.3l0 0 -8.4 0v14.6h8.4v0.5 0.5H17.1L17.1 131.2zM83.2 158.7l-3.9-11.6H60.6l-4.1 11.6H43.9l20.1-53.1H76v0.5 -0.5h0.3l19.8 53.1H83.2L83.2 158.7zM80 146.1l3.9 11.6h10.8l-19.1-51.1h-11l-19.3 51.1h10.4l4.1-11.6H80L80 146.1zM62.5 138.5l7.1-20.1H70h0.5l6.7 19.4 -0.5 0.2v-0.5 0.5l0.5-0.2 0.2 0.7H62.5L62.5 138.5zM63.9 137.6H76L70 120.3 63.9 137.6 63.9 137.6zM112.1 158.8c-2.8-0.7-5.2-1.9-7.3-3.4l0 0c-2.1-1.6-3.8-3.5-5.1-5.9l0 0c-1.2-2.3-1.8-5.1-1.8-8.2l0 0c0-0.1 0-0.3 0-0.4l0 0 0-0.5H110v0.5c0 1.7 0.3 3.1 0.9 4.2l0 0 -0.4 0.2 0.4-0.2c0.6 1.2 1.4 2.1 2.4 2.8l0 0c1 0.7 2.2 1.2 3.5 1.6l0 0c1.4 0.4 2.8 0.5 4.2 0.5l0 0c1 0 2.1-0.1 3.2-0.3l0 0c1.1-0.2 2.2-0.5 3.1-0.9l0 0c1-0.5 1.7-1.1 2.4-1.9l0 0c0.6-0.7 0.9-1.7 0.9-2.9l0 0c0-1.3-0.4-2.3-1.2-3.1l0 0c-0.8-0.8-2-1.5-3.4-2.1l0 0c-1.4-0.6-3.1-1.1-4.9-1.5l0 0c-1.9-0.4-3.7-0.9-5.6-1.5l0 0c-2-0.5-3.9-1.1-5.7-1.8l0 0c-1.9-0.7-3.6-1.7-5.1-2.8l0 0c-1.5-1.2-2.7-2.6-3.7-4.4l0 0c-1-1.8-1.4-3.9-1.4-6.3l0 0c0-2.7 0.6-5.2 1.8-7.2l0 0c1.2-2 2.7-3.7 4.6-5.1l0 0c1.9-1.4 4-2.3 6.4-3l0 0c2.4-0.6 4.8-1 7.1-1l0 0c2.8 0 5.4 0.3 8 0.9l0 0c2.6 0.6 4.8 1.6 6.8 3l0 0c2 1.4 3.6 3.2 4.8 5.4l0 0c1.2 2.2 1.8 4.9 1.8 7.9l0 0v0.5H129l0-0.5c-0.1-1.5-0.4-2.7-0.9-3.7l0 0c-0.5-1-1.2-1.7-2-2.2l0 0c-0.9-0.5-1.9-0.9-3-1.2l0 0c-1.2-0.2-2.4-0.4-3.8-0.4l0 0c-0.9 0-1.8 0.1-2.7 0.3l0 0c-0.9 0.2-1.6 0.5-2.3 1l0 0c-0.7 0.4-1.3 1-1.7 1.7l0 0c-0.4 0.6-0.6 1.5-0.6 2.5l0 0c0 1 0.2 1.7 0.5 2.2l0 0c0.3 0.5 1 1 2.1 1.6l0 0c1.1 0.5 2.7 1 4.7 1.6l0 0c2 0.5 4.6 1.2 7.9 2l0 0c1 0.2 2.4 0.6 4.1 1.1l0 0c1.8 0.5 3.5 1.4 5.3 2.5l0 0c1.8 1.2 3.3 2.7 4.5 4.6l0 0c1.3 2 1.9 4.5 1.9 7.5l0 0c0 2.4-0.5 4.7-1.4 6.8l0 0c-1 2.1-2.4 3.9-4.3 5.5l0 0c-1.9 1.5-4.2 2.7-6.9 3.5l0 0c-2.8 0.8-5.9 1.3-9.5 1.3l0 0c0 0 0 0 0 0l0 0C117.7 159.8 114.9 159.5 112.1 158.8L112.1 158.8zM100.6 149c1.2 2.3 2.8 4.1 4.8 5.6l0 0c2 1.5 4.3 2.5 7 3.2l0 0c2.7 0.7 5.4 1 8.2 1l0 0c3.5 0 6.6-0.4 9.2-1.2l0 0c2.6-0.8 4.8-1.9 6.6-3.4l0 0c1.8-1.4 3.1-3.1 4-5.1l0 0c0.9-2 1.3-4.1 1.3-6.4l0 0c0-2.8-0.6-5.1-1.8-6.9l0 0c-1.2-1.8-2.6-3.3-4.3-4.3l0 0c-1.7-1.1-3.3-1.9-5-2.4l0 0c-1.7-0.5-3.1-0.9-4-1l0 0c-3.3-0.8-5.9-1.5-7.9-2l0 0c-2-0.5-3.6-1.1-4.8-1.6l0 0c-1.2-0.6-2-1.2-2.5-1.9l0 0c-0.5-0.7-0.7-1.7-0.7-2.7l0 0c0-1.2 0.3-2.2 0.8-3.1l0 0c0.5-0.8 1.2-1.4 2-2l0 0c0.8-0.5 1.7-0.9 2.7-1.1l0 0c1-0.2 1.9-0.3 2.9-0.3l0 0c1.4 0 2.8 0.1 4 0.4l0 0c1.2 0.3 2.4 0.7 3.3 1.3l0 0c1 0.6 1.8 1.5 2.4 2.6l0 0c0.6 1 0.9 2.2 1 3.6l0 0H140c-0.1-2.7-0.6-5-1.6-7l0 0c-1.1-2-2.6-3.7-4.5-5l0 0c-1.9-1.3-4.1-2.3-6.5-2.9l0 0c-2.5-0.6-5-0.9-7.7-0.9l0 0c-2.3 0-4.6 0.3-6.9 0.9l0 0c-2.3 0.6-4.3 1.6-6.1 2.8l0 0c-1.8 1.3-3.2 2.9-4.3 4.8l0 0c-1.1 1.9-1.6 4.1-1.6 6.7l0 0c0 2.3 0.4 4.3 1.3 5.8l0 0c0.9 1.6 2 3 3.4 4l0 0c1.4 1.1 3 2 4.8 2.7l0 0c1.8 0.7 3.7 1.3 5.6 1.8l0 0c1.9 0.5 3.8 1 5.6 1.5l0 0c1.9 0.4 3.5 1 5 1.6l0 0c1.5 0.6 2.7 1.4 3.7 2.3l0 0c1 1 1.5 2.3 1.5 3.8l0 0c0 1.4-0.4 2.6-1.1 3.6l0 0c-0.7 0.9-1.6 1.6-2.7 2.1l0 0c-1.1 0.5-2.2 0.8-3.4 1l0 0c-1.2 0.2-2.3 0.3-3.4 0.3l0 0c-1.5 0-3-0.2-4.5-0.6l0 0c-1.5-0.4-2.8-1-3.9-1.8l0 0c-1.1-0.8-2-1.9-2.7-3.1l0 0 0 0c-0.6-1.2-0.9-2.6-1-4.2l0 0H98.9C99 144.3 99.5 146.8 100.6 149L100.6 149zM159.3 158.8c-2.8-0.7-5.2-1.9-7.3-3.4l0 0c-2.1-1.5-3.8-3.5-5.1-5.9l0 0c-1.2-2.3-1.8-5-1.8-8.1l0 0c0-0.1 0-0.3 0-0.4l0 0 0-0.5h12.1v0.5c0 1.7 0.3 3.1 0.9 4.2l0 0 0 0c0.6 1.2 1.4 2.1 2.4 2.8l0 0c1 0.7 2.2 1.2 3.5 1.6l0 0c1.4 0.4 2.8 0.5 4.2 0.5l0 0c1 0 2.1-0.1 3.2-0.2l0 0c1.1-0.2 2.2-0.5 3.1-0.9l0 0c1-0.5 1.7-1.1 2.4-1.9l0 0c0.6-0.8 0.9-1.7 0.9-2.9l0 0c0-1.3-0.4-2.3-1.2-3.1l0 0c-0.8-0.8-2-1.5-3.4-2.1l0 0c-1.4-0.6-3.1-1.1-4.9-1.5l0 0c-1.9-0.4-3.7-0.9-5.6-1.5l0 0c-2-0.5-3.9-1.1-5.7-1.8l0 0c-1.9-0.7-3.6-1.7-5.1-2.8l0 0c-1.5-1.2-2.7-2.6-3.7-4.4l0 0c-0.9-1.8-1.4-3.9-1.4-6.3l0 0c0-2.7 0.6-5.2 1.8-7.2l0 0c1.2-2 2.7-3.7 4.6-5.1l0 0c1.9-1.4 4-2.3 6.4-3l0 0c2.4-0.6 4.7-1 7.1-1l0 0c2.8 0 5.4 0.3 8 0.9l0 0c2.6 0.6 4.8 1.6 6.8 3l0 0c2 1.4 3.6 3.2 4.8 5.4l0 0c1.2 2.2 1.8 4.9 1.8 7.9l0 0v0.5h-12.1l0-0.5c-0.1-1.5-0.4-2.7-0.9-3.7l0 0c-0.5-1-1.2-1.7-2.1-2.2l0 0c-0.9-0.5-1.9-0.9-3-1.2l0 0c-1.2-0.2-2.4-0.4-3.8-0.4l0 0c-0.9 0-1.8 0.1-2.7 0.3l0 0c-0.9 0.2-1.6 0.5-2.3 1l0 0c-0.7 0.5-1.3 1-1.7 1.7l0 0c-0.4 0.6-0.6 1.4-0.6 2.5l0 0c0 1 0.2 1.7 0.5 2.2l0 0c0.3 0.5 1 1.1 2.1 1.6l0 0c1.1 0.5 2.6 1 4.7 1.6l0 0c2 0.5 4.6 1.2 7.9 2l0 0c1 0.2 2.3 0.6 4.1 1.1l0 0c1.8 0.5 3.5 1.4 5.3 2.5l0 0c1.8 1.2 3.3 2.7 4.6 4.6l0 0c1.3 2 1.9 4.5 1.9 7.5l0 0c0 2.4-0.5 4.7-1.4 6.8l0 0c-1 2.1-2.4 3.9-4.3 5.5l0 0c-1.9 1.5-4.2 2.7-6.9 3.5l0 0c-2.8 0.8-5.9 1.3-9.5 1.3l0 0C164.9 159.8 162 159.5 159.3 158.8L159.3 158.8zM147.8 149c1.2 2.3 2.8 4.1 4.8 5.6l0 0c2 1.5 4.3 2.5 7 3.2l0 0c2.7 0.7 5.4 1 8.2 1l0 0c3.5 0 6.6-0.4 9.2-1.2l0 0c2.6-0.8 4.8-1.9 6.6-3.4l0 0c1.8-1.4 3.1-3.1 4-5.1l0 0c0.9-2 1.3-4.1 1.3-6.4l0 0c0-2.8-0.6-5.1-1.8-6.9l0 0c-1.2-1.8-2.6-3.3-4.3-4.3l0 0c-1.7-1.1-3.3-1.9-5-2.4l0 0c-1.7-0.5-3.1-0.9-4-1.1l0 0c-3.3-0.8-5.9-1.5-7.9-2l0 0c-2-0.5-3.6-1.1-4.8-1.6l0 0c-1.2-0.6-2-1.2-2.5-1.9l0 0c-0.5-0.7-0.7-1.7-0.7-2.7l0 0c0-1.2 0.3-2.2 0.8-3l0 0c0.5-0.8 1.2-1.4 2-2l0 0c0.8-0.5 1.7-0.9 2.7-1.1l0 0c1-0.2 1.9-0.3 2.9-0.3l0 0c1.4 0 2.8 0.1 4 0.4l0 0c1.2 0.3 2.4 0.7 3.3 1.3l0 0c1 0.6 1.8 1.5 2.4 2.6l0 0c0.5 1 0.9 2.2 1 3.6l0 0h10.1c-0.1-2.7-0.6-5-1.6-7l0 0c-1.1-2-2.6-3.7-4.5-5l0 0c-1.9-1.3-4.1-2.3-6.5-2.9l0 0c-2.5-0.6-5-0.9-7.7-0.9l0 0c-2.3 0-4.6 0.3-6.9 0.9l0 0c-2.3 0.6-4.3 1.6-6.1 2.8l0 0c-1.8 1.3-3.2 2.9-4.3 4.8l0 0c-1.1 1.9-1.6 4.1-1.6 6.7l0 0c0 2.3 0.4 4.3 1.3 5.8l0 0c0.9 1.6 2 3 3.4 4l0 0c1.4 1.1 3 2 4.8 2.7l0 0c1.8 0.7 3.7 1.3 5.6 1.8l0 0c1.9 0.5 3.7 1 5.6 1.5l0 0c1.9 0.4 3.5 1 5 1.6l0 0c1.5 0.6 2.7 1.4 3.7 2.3l0 0c1 1 1.5 2.3 1.5 3.8l0 0c0 1.4-0.4 2.6-1.1 3.6l0 0c-0.7 0.9-1.6 1.6-2.7 2.1l0 0c-1.1 0.5-2.2 0.8-3.4 1l0 0c-1.2 0.2-2.3 0.3-3.4 0.3l0 0c-1.5 0-3-0.2-4.5-0.6l0 0c-1.5-0.4-2.8-1-3.8-1.8l0 0c-1.1-0.8-2-1.8-2.7-3.1l0 0 0.4-0.2 -0.4 0.2c-0.6-1.2-0.9-2.6-1-4.2l0 0h-10.1C146.1 144.3 146.7 146.8 147.8 149L147.8 149z"/></svg>