<svg width="688" height="250" viewBox="0 0 688 250" fill="none" xmlns="http://www.w3.org/2000/svg">
<path d="M17.749 97.4502C17.4826 78.5604 22.8275 60.0158 33.1078 44.1615C43.3881 28.3072 58.1422 15.8554 75.5042 8.38051C92.8662 0.905651 112.056 -1.25646 130.648 2.16758C149.24 5.59162 166.398 14.448 179.953 27.6169C193.507 40.7857 202.85 57.6755 206.799 76.1504C210.749 94.6253 209.127 113.856 202.139 131.409C195.152 148.963 183.112 164.052 167.543 174.768C151.974 185.485 133.574 191.346 114.672 191.613C102.12 191.79 89.6574 189.494 77.9939 184.858C66.3305 180.222 55.6951 173.335 46.695 164.591C37.695 155.847 30.5064 145.418 25.5398 133.897C20.5733 122.377 17.926 109.993 17.749 97.4502Z" fill="#313A76"/>
<path d="M98.502 1.85724C92.096 2.81096 85.8056 4.42292 79.7309 6.66751C86.1428 22.6956 113.184 95.8155 113.184 95.8155L98.502 1.85724Z" fill="#FAB625"/>
<path d="M78.0583 0C67.7761 3.76939 58.1684 9.16882 49.6041 15.9909C62.9484 32.2604 113.222 95.8526 113.222 95.8526L78.0583 0Z" fill="#F28C1C"/>
<path d="M28.9189 151.496L113.371 95.9085C113.371 95.9085 44.735 95.9085 12.4151 95.5184C12.4151 96.2799 12.4151 96.7442 12.4151 97.5243C12.6333 116.723 18.3613 135.455 28.9189 151.496Z" fill="#306B2E"/>
<path d="M58.0605 174.024C63.3648 177.784 69.0377 180.995 74.9918 183.608C81.2922 168.248 113.37 95.9642 113.37 95.9642L58.0605 174.024Z" fill="#AFCB29"/>
<path d="M74.3413 183.292C83.7089 187.488 93.6945 190.141 103.911 191.148C105.435 172.316 113.37 95.9084 113.37 95.9084L74.3413 183.292Z" fill="#187DC1"/>
<path d="M102.554 191C106.576 191.457 110.623 191.662 114.671 191.613C134.116 191.345 153.017 185.157 168.851 173.874C184.684 162.591 196.697 146.75 203.286 128.466L113.37 95.9828L102.554 191Z" fill="#3BBFED"/>
<path d="M33.4536 148.58C40.3305 158.976 49.1682 167.934 59.473 174.953L113.37 95.927L113.055 96.1313L33.4536 148.58Z" fill="#4BA434"/>
<path d="M106.438 96.1313L113.222 95.8713L43.3038 7.07623C29.884 17.5926 19.0181 31.0057 11.519 46.3119C4.02 61.618 0.0820912 78.4208 0 95.4627C39.8098 95.7599 88.6892 96.0385 106.438 96.1313Z" fill="#ED6F1D"/>
<path d="M18.102 97.4506C17.8429 78.6321 23.1734 60.1592 33.4195 44.3678C43.6656 28.5764 58.3672 16.1755 75.6654 8.73307C92.9637 1.29063 112.082 -0.859144 130.603 2.55555C149.123 5.97025 166.215 14.7961 179.717 27.9171C193.219 41.0382 202.524 57.8652 206.456 76.2708C210.389 94.6763 208.772 113.834 201.81 131.321C194.848 148.808 182.853 163.84 167.343 174.516C151.833 185.191 133.503 191.031 114.671 191.297C102.164 191.474 89.7434 189.187 78.1204 184.566C66.4975 179.945 55.8994 173.081 46.9316 164.366C37.9638 155.651 30.802 145.256 25.8554 133.774C20.9087 122.293 18.2741 109.95 18.102 97.4506Z" fill="#313B77"/>
<path d="M98.502 1.85724C92.096 2.81096 85.8056 4.42292 79.7309 6.66751C86.1428 22.6956 113.184 95.8155 113.184 95.8155L98.502 1.85724Z" fill="#FAB725"/>
<path d="M78.0583 0C67.7761 3.76939 58.1684 9.16882 49.6041 15.9909C62.9484 32.2604 113.222 95.8526 113.222 95.8526L78.0583 0Z" fill="#F28C1C"/>
<path d="M28.9189 151.496L113.371 95.9085C113.371 95.9085 44.735 95.9085 12.4151 95.5184C12.4151 96.2799 12.4151 96.7442 12.4151 97.5243C12.6333 116.723 18.3613 135.455 28.9189 151.496Z" fill="#316B2E"/>
<path d="M58.0605 174.024C63.3648 177.784 69.0377 180.995 74.9918 183.608C81.2922 168.248 113.37 95.9642 113.37 95.9642L58.0605 174.024Z" fill="#AFCB2B"/>
<path d="M74.3413 183.292C83.7089 187.488 93.6945 190.141 103.911 191.148C105.435 172.316 113.37 95.9084 113.37 95.9084L74.3413 183.292Z" fill="#1B7DC2"/>
<path d="M102.554 191C106.576 191.457 110.623 191.662 114.671 191.613C134.116 191.345 153.017 185.157 168.851 173.874C184.684 162.591 196.697 146.75 203.286 128.466L113.37 95.9828L102.554 191Z" fill="#3BBFED"/>
<path d="M33.4536 148.58C40.3305 158.976 49.1682 167.934 59.473 174.953L113.37 95.927L113.055 96.1313L33.4536 148.58Z" fill="#4EA433"/>
<path d="M106.438 96.1313L113.222 95.8713L43.3038 7.07623C29.884 17.5926 19.0181 31.0057 11.519 46.3119C4.02 61.618 0.0820912 78.4208 0 95.4627C39.8098 95.7599 88.6892 96.0385 106.438 96.1313Z" fill="#EE701C"/>
<path d="M455.118 48.2886C455.118 47.0768 454.636 45.9147 453.779 45.0579C452.921 44.2011 451.758 43.7197 450.546 43.7197H443.818C442.605 43.7197 441.442 44.2011 440.585 45.0579C439.728 45.9147 439.246 47.0768 439.246 48.2886V118.864C439.243 119.465 439.36 120.06 439.589 120.615C439.818 121.171 440.154 121.675 440.579 122.1C441.005 122.525 441.509 122.861 442.065 123.09C442.621 123.319 443.217 123.435 443.818 123.433H450.546C451.758 123.433 452.921 122.951 453.779 122.095C454.636 121.238 455.118 120.076 455.118 118.864V48.2886Z" fill="#313B77"/>
<path d="M463.722 50.1458V53.4889C463.722 54.1588 463.989 54.8012 464.463 55.2749C464.937 55.7486 465.58 56.0147 466.25 56.0147H512.825C513.337 56.0174 513.845 55.9173 514.317 55.7203C514.79 55.5234 515.219 55.2336 515.577 54.8682C515.936 54.5028 516.218 54.0691 516.406 53.5929C516.594 53.1168 516.684 52.6077 516.672 52.0959V46.4313C516.688 45.9199 516.598 45.4106 516.407 44.9355C516.217 44.4605 515.931 44.0298 515.566 43.6706C515.201 43.3114 514.766 43.0313 514.288 42.848C513.81 42.6647 513.299 42.5821 512.788 42.6054C512.788 42.6054 467.811 47.0071 466.324 47.1742C465.6 47.2357 464.926 47.5721 464.442 48.1145C463.958 48.6568 463.701 49.3638 463.722 50.0901" fill="#313B77"/>
<path d="M426.032 123.303C423.553 123.386 421.083 122.965 418.772 122.066C416.461 121.166 414.357 119.807 412.587 118.07C410.818 116.333 409.42 114.255 408.479 111.962C407.538 109.669 407.073 107.208 407.112 104.73V76.5372H403.822C402.974 76.5372 402.161 76.2007 401.562 75.6016C400.962 75.0025 400.625 74.19 400.625 73.3428V68.7182C400.625 67.871 400.962 67.0585 401.562 66.4594C402.161 65.8603 402.974 65.5238 403.822 65.5238H407.112V48.0842C407.117 46.9052 407.589 45.7762 408.425 44.9443C409.261 44.1124 410.392 43.6453 411.572 43.6454H418.17C419.353 43.6551 420.485 44.1304 421.32 44.9682C422.155 45.8061 422.626 46.9389 422.63 48.1213V65.468H432.89C433.312 65.4704 433.729 65.5567 434.117 65.7221C434.506 65.8874 434.857 66.1284 435.151 66.431C435.446 66.7335 435.676 67.0916 435.831 67.4843C435.985 67.8771 436.059 68.2965 436.049 68.7182V73.4356C436.052 73.8543 435.971 74.2692 435.813 74.6567C435.654 75.0442 435.42 75.3965 435.125 75.6934C434.829 75.9902 434.478 76.2258 434.091 76.3866C433.705 76.5474 433.29 76.6301 432.871 76.6301H422.612V102.632C422.518 103.783 422.674 104.942 423.07 106.027C423.466 107.113 424.093 108.1 424.907 108.92C425.721 109.741 426.703 110.375 427.786 110.781C428.869 111.186 430.027 111.352 431.18 111.268H432.128C433.049 111.268 433.933 111.634 434.585 112.285C435.237 112.936 435.603 113.82 435.603 114.741V119.867C435.603 120.322 435.513 120.773 435.338 121.193C435.163 121.613 434.907 121.995 434.584 122.316C434.261 122.637 433.878 122.891 433.456 123.064C433.035 123.236 432.583 123.324 432.128 123.321H425.957" fill="#313B77"/>
<path d="M317.53 75.4786C320.814 75.3889 324.013 76.5242 326.504 78.6634C328.995 80.8025 330.6 83.7921 331.005 87.0492H304.149C304.533 83.7999 306.118 80.8114 308.594 78.6705C311.07 76.5296 314.258 75.3911 317.53 75.4786V63.4064C298.815 63.4064 288.296 78.0416 288.296 93.4753C288.296 109.931 299.447 124.399 317.642 124.399C330.057 124.399 342.268 117.88 344.572 107.163C344.66 106.768 344.659 106.359 344.57 105.964C344.482 105.57 344.307 105.199 344.058 104.88C343.81 104.561 343.494 104.3 343.133 104.117C342.772 103.934 342.375 103.832 341.97 103.82H333.105C332.381 103.803 331.664 103.964 331.016 104.288C330.368 104.611 329.809 105.088 329.388 105.677C328.108 107.569 326.351 109.09 324.296 110.088C322.24 111.085 319.958 111.524 317.679 111.361C314.199 111.369 310.85 110.036 308.33 107.638C305.809 105.241 304.312 101.964 304.149 98.4899H341.803C342.488 98.5736 343.183 98.4987 343.834 98.2711C344.485 98.0435 345.075 97.6692 345.558 97.1773C346.042 96.6854 346.405 96.0889 346.621 95.4341C346.837 94.7793 346.899 94.0837 346.802 93.401C346.802 78.3573 337.881 63.3322 317.642 63.3322V75.4043" fill="#313B77"/>
<path d="M489.073 75.4786C492.36 75.38 495.566 76.5118 498.062 78.6521C500.558 80.7925 502.164 83.7872 502.566 87.0493H475.784C476.168 83.8033 477.751 80.8174 480.223 78.677C482.694 76.5366 485.877 75.3959 489.147 75.4786V63.4065C470.432 63.4065 459.95 78.0417 459.95 93.4754C459.95 109.931 471.212 124.399 489.296 124.399C501.674 124.399 513.884 117.88 516.189 107.163C516.278 106.762 516.275 106.347 516.182 105.947C516.089 105.547 515.908 105.173 515.651 104.852C515.394 104.531 515.069 104.272 514.699 104.094C514.329 103.915 513.923 103.822 513.512 103.82H504.629C503.903 103.794 503.182 103.95 502.533 104.274C501.883 104.599 501.326 105.081 500.912 105.678C499.621 107.586 497.852 109.122 495.781 110.133C493.71 111.143 491.409 111.592 489.11 111.435C485.634 111.43 482.293 110.092 479.775 107.697C477.258 105.302 475.756 102.033 475.58 98.5643H513.234C513.921 98.6503 514.618 98.5775 515.272 98.3513C515.926 98.1251 516.52 97.7517 517.007 97.2598C517.493 96.768 517.861 96.1709 518.08 95.5147C518.299 94.8585 518.364 94.1608 518.27 93.4754C518.27 78.4317 509.368 63.4065 489.073 63.4065V75.4786Z" fill="#313B77"/>
<path d="M394.492 44.4253H272.498C271.84 44.4253 271.188 44.5551 270.58 44.8074C269.973 45.0596 269.421 45.4293 268.956 45.8952C268.492 46.361 268.124 46.914 267.874 47.5223C267.623 48.1306 267.496 48.7822 267.498 49.4399L267.926 97.3012C267.926 97.3012 241.609 49.867 240.271 47.4526C239.459 46.0771 238.293 44.9446 236.894 44.1736C235.494 43.4025 233.914 43.0212 232.316 43.0695H222.28C220.945 43.0695 219.663 43.5998 218.719 44.5437C217.774 45.4876 217.244 46.7678 217.244 48.1027V118.27C217.241 118.928 217.369 119.581 217.619 120.19C217.868 120.799 218.236 121.353 218.7 121.821C219.165 122.288 219.716 122.66 220.324 122.914C220.932 123.168 221.584 123.3 222.243 123.303H228.711C229.369 123.3 230.02 123.168 230.627 122.914C231.234 122.659 231.784 122.287 232.247 121.82C232.71 121.352 233.076 120.798 233.324 120.189C233.572 119.579 233.697 118.927 233.692 118.27L233.301 69.071C233.301 69.071 259.934 117.007 261.086 118.864C261.874 120.248 263.023 121.392 264.411 122.174C265.799 122.956 267.374 123.346 268.967 123.303H278.148C278.81 123.305 279.466 123.177 280.078 122.925C280.69 122.672 281.247 122.302 281.715 121.834C282.183 121.366 282.554 120.81 282.806 120.199C283.058 119.587 283.187 118.931 283.184 118.27V56.3117H394.492C395.394 56.3117 396.259 55.9536 396.897 55.3162C397.535 54.6788 397.893 53.8143 397.893 52.9129V47.8426C397.895 47.3947 397.809 46.9508 397.639 46.5363C397.47 46.1218 397.22 45.7449 396.903 45.4273C396.587 45.1098 396.212 44.8577 395.798 44.6858C395.384 44.5138 394.94 44.4253 394.492 44.4253Z" fill="#313B77"/>
<path d="M374.736 74.9028C380.033 74.9028 384.028 76.7601 385.404 80.1403C386.11 81.7375 387.448 81.9975 389.251 81.9975H396.555C397.236 81.9784 397.882 81.6972 398.36 81.2127C398.838 80.7281 399.11 80.0777 399.12 79.3974C399.12 70.9283 389.028 63.3507 374.736 63.3507C359.868 63.3507 350.185 70.4083 350.185 81.6446C350.185 90.2251 356.987 95.3511 365.313 97.5241C369.123 98.527 375.647 100.124 378.806 100.96C381.966 101.796 385.255 102.817 385.255 105.807C385.255 110.432 380.423 111.992 375.07 111.992C370.089 111.992 365.053 109.745 363.622 106.16C362.785 104.08 361.317 103.783 359.143 103.783H351.709C350.969 103.797 350.263 104.097 349.74 104.62C349.217 105.143 348.916 105.848 348.902 106.588V107.535C348.902 115.725 359.923 124.25 375.089 124.25C385.85 124.25 400.848 119.774 400.848 105.343C400.848 96.9855 395.273 91.1909 386.166 88.8879L372.19 85.4334C368.9 84.5791 365.778 83.5762 365.778 80.6603C365.778 76.3515 369.774 74.9028 374.736 74.9028Z" fill="#313B77"/>
<path d="M157.38 151.013C157.38 144.68 161.432 141.132 166.896 141.132C170.006 141.421 172.877 142.922 174.888 145.311L215.106 198.949H215.348V151.013C215.348 144.68 219.418 141.132 224.864 141.132C230.309 141.132 234.379 144.68 234.379 151.013V223.037C234.379 229.37 230.328 232.918 224.864 232.918C221.762 232.601 218.901 231.104 216.872 228.739L176.653 175.751H176.412V223.037C176.412 229.37 172.342 232.918 166.896 232.918C161.451 232.918 157.38 229.37 157.38 223.037V151.013Z" fill="#313B77"/>
<path d="M246.07 174.099C246.07 168.007 249.787 163.958 255.195 163.958C260.603 163.958 264.339 168.007 264.339 174.099V206.675C264.276 208.262 264.534 209.845 265.098 211.33C265.663 212.814 266.521 214.17 267.622 215.315C268.724 216.46 270.045 217.371 271.507 217.993C272.969 218.615 274.542 218.936 276.131 218.936C277.721 218.936 279.293 218.615 280.756 217.993C282.218 217.371 283.539 216.46 284.64 215.315C285.742 214.17 286.6 212.814 287.164 211.33C287.728 209.845 287.987 208.262 287.924 206.675V174.099C287.924 168.007 291.734 163.958 297.068 163.958C302.402 163.958 306.193 168.007 306.193 174.099V207.065C306.193 223.297 295.414 233.679 276.122 233.679C256.83 233.679 246.07 223.297 246.07 207.065V174.099Z" fill="#313B77"/>
<path d="M322.567 180.692H318.515C317.445 180.776 316.368 180.626 315.361 180.255C314.353 179.883 313.438 179.298 312.678 178.539C311.919 177.78 311.333 176.865 310.961 175.858C310.589 174.851 310.44 173.776 310.524 172.706C310.498 171.65 310.688 170.6 311.08 169.62C311.473 168.639 312.06 167.749 312.808 167.002C313.555 166.255 314.446 165.668 315.427 165.275C316.408 164.883 317.459 164.694 318.515 164.719H322.567V153.817C322.567 147.726 326.377 143.658 331.711 143.658C337.045 143.658 340.836 147.726 340.836 153.817V164.719H346.04C350.724 164.719 354.794 166.874 354.794 172.706C354.794 178.537 350.724 180.692 346.04 180.692H340.836V222.87C340.836 228.962 337.119 233.01 331.711 233.01C326.303 233.01 322.567 228.962 322.567 222.87V180.692Z" fill="#313B77"/>
<path d="M358.344 173.077C358.322 171.851 358.552 170.634 359.02 169.501C359.487 168.368 360.182 167.342 361.061 166.487C361.941 165.633 362.986 164.968 364.133 164.532C365.28 164.097 366.504 163.902 367.729 163.958C372.562 163.958 376.613 165.815 376.613 171.554H376.873C380.293 166.484 383.973 163.958 389.679 163.958C394.12 163.958 398.562 167.115 398.562 173.708C398.562 179.67 393.117 180.06 387.653 182.586C382.189 185.112 376.613 187.526 376.613 194.751V222.87C376.613 228.962 372.896 233.01 367.488 233.01C362.079 233.01 358.344 228.962 358.344 222.87V173.077Z" fill="#313B77"/>
<path d="M421.534 146.593C421.554 149.345 420.485 151.994 418.56 153.963C416.635 155.931 414.01 157.061 411.256 157.105C408.523 156.996 405.936 155.846 404.025 153.892C402.114 151.937 401.024 149.325 400.978 146.593C400.978 143.869 402.061 141.256 403.989 139.33C405.916 137.404 408.53 136.322 411.256 136.322C413.982 136.322 416.596 137.404 418.523 139.33C420.451 141.256 421.534 143.869 421.534 146.593ZM402.112 174.099C402.112 168.007 405.829 163.958 411.256 163.958C416.683 163.958 420.381 168.007 420.381 174.099V222.87C420.381 228.962 416.664 233.011 411.256 233.011C405.848 233.011 402.112 228.962 402.112 222.87V174.099Z" fill="#313B77"/>
<path d="M468.09 151.774C468.09 145.831 471.64 141.894 477.996 141.894H500.447C519.033 141.894 532.916 154.059 532.916 172.186C532.916 190.758 518.586 202.236 501.209 202.236H487.122V223.037C487.122 229.37 483.07 232.918 477.606 232.918C472.142 232.918 468.09 229.37 468.09 223.037V151.774ZM487.122 185.502H500.131C508.123 185.502 513.141 179.67 513.141 172.074C513.141 164.478 508.067 158.628 500.131 158.628H487.122V185.502Z" fill="#313B77"/>
<path d="M537.618 173.077C537.596 171.851 537.826 170.634 538.294 169.501C538.761 168.368 539.456 167.342 540.335 166.487C541.215 165.633 542.26 164.968 543.407 164.532C544.554 164.097 545.778 163.902 547.003 163.958C551.836 163.958 555.887 165.815 555.887 171.554H556.147C559.567 166.484 563.247 163.958 568.953 163.958C573.395 163.958 577.836 167.115 577.836 173.708C577.836 179.67 572.391 180.06 566.927 182.586C561.463 185.112 555.887 187.526 555.887 194.751V222.87C555.887 228.962 552.077 233.01 546.762 233.01C541.446 233.01 537.618 228.962 537.618 222.87V173.077Z" fill="#313B77"/>
<path d="M642.16 198.559C642.16 217.577 629.15 233.679 609.431 233.679C589.712 233.679 576.703 217.577 576.703 198.559C576.703 179.986 590.14 163.271 609.431 163.271C628.723 163.271 642.16 180.153 642.16 198.559ZM594.972 198.559C594.972 207.306 599.525 216.945 609.431 216.945C619.337 216.945 623.891 207.306 623.891 198.559C623.891 189.811 619.449 179.986 609.431 179.986C599.414 179.986 594.972 189.811 594.972 198.559Z" fill="#313B77"/>
<path d="M649.368 229.596C649.368 225.932 650.212 222.531 651.9 219.393C653.606 216.256 655.957 213.789 658.951 211.993C661.964 210.18 665.213 209.273 668.698 209.273C672.182 209.273 675.422 210.18 678.417 211.993C681.412 213.789 683.753 216.256 685.441 219.393C687.147 222.531 688 225.932 688 229.596C688 233.169 687.183 236.515 685.55 239.635C683.916 242.754 681.593 245.266 678.58 247.171C675.586 249.057 672.291 250 668.698 250C665.122 250 661.828 249.066 658.815 247.198C655.821 245.312 653.497 242.809 651.846 239.689C650.194 236.569 649.368 233.205 649.368 229.596ZM652.499 229.596C652.499 232.715 653.225 235.608 654.677 238.274C656.129 240.922 658.098 242.999 660.585 244.504C663.089 246.01 665.794 246.763 668.698 246.763C671.62 246.763 674.333 246.001 676.838 244.477C679.343 242.936 681.303 240.85 682.718 238.22C684.152 235.59 684.869 232.715 684.869 229.596C684.869 226.494 684.152 223.638 682.718 221.026C681.303 218.396 679.343 216.328 676.838 214.823C674.333 213.299 671.62 212.538 668.698 212.538C665.794 212.538 663.089 213.29 660.585 214.796C658.08 216.283 656.102 218.351 654.65 220.999C653.216 223.647 652.499 226.512 652.499 229.596ZM664.696 231.636V240.832H660.857V217.734H668.371C671.148 217.734 673.299 218.332 674.823 219.53C676.366 220.708 677.137 222.431 677.137 224.699C677.137 226.929 675.976 228.634 673.653 229.813C675.867 230.72 676.983 232.57 677.001 235.363V237.023C677.001 238.583 677.156 239.707 677.464 240.396V240.832H673.517C673.262 240.179 673.135 239.018 673.135 237.349C673.135 235.663 673.108 234.665 673.054 234.357C672.763 232.615 671.574 231.709 669.487 231.636H664.696ZM664.696 228.154H668.943C670.25 228.117 671.302 227.8 672.101 227.202C672.899 226.603 673.299 225.814 673.299 224.835C673.299 223.511 672.945 222.577 672.237 222.032C671.529 221.47 670.268 221.189 668.453 221.189H664.696V228.154Z" fill="#313B77"/>
</svg>
