<svg aria-hidden="true" viewBox="0 0 125 64" fill="none" xmlns="http://www.w3.org/2000/svg"><path d="M23.727 23.31a10.433 10.433 0 00-6.025-2.116c-1.87 0-3.748 1.12-3.748 2.614 0 2.246 4.154 2.86 8.225 4.231 4.07 1.372 8.217 3.488 8.217 8.792 0 6.784-7.16 10.839-15.545 10.839-5.366 0-10.578-1.87-14.074-5.113l5.205-5.166c2.2 1.863 5.128 3.549 8.432 3.549 2.53 0 4.56-1.31 4.56-3.304 0-2.675-3.993-3.296-7.979-4.599-3.986-1.303-7.972-3.12-7.972-8.033 0-5.734 5.205-9.911 12.694-9.911 4.231 0 9.604.996 12.854 3.173l-4.875 5.052m8.677 23.409V16.833a8.654 8.654 0 004.737 1.288 8.025 8.025 0 004.6-1.288v29.894h-9.337zM89.525 0h-9.352v46.643h9.352V0zM61.67 14.71c-3.134-.108-6.19.99-8.54 3.066V.069h-8.676v30.83c0 9.635 7.02 17.177 15.99 17.177 9.696 0 17.583-7.489 17.583-16.702A16.55 16.55 0 0061.67 14.709zm.184 25.532a8.83 8.83 0 010-17.63c4.223 0 7.925 4.124 7.925 8.823 0 4.699-3.702 8.83-7.925 8.83m62.778-10.172v-13.59h-8.57v14.564c-.062 4.339-3.35 7.841-7.382 7.841s-7.32-3.549-7.32-7.933V16.503h-9.122v15.438a16.212 16.212 0 0032.386-.414v-.56l.008-.873z" fill="#004A9A"/><path d="M37.068 4.354h-.184a5.477 5.477 0 000 10.953h.184a5.477 5.477 0 000-10.953z" fill="url(#paint0_radial_1682_2713)"/><path d="M80.1 51.855h-2.382l-1.353 4.728-1.245-4.728h-2.418l1.949 6.082c.216.661.45 1.125.704 1.39.252.252.607.378 1.064.378.277 0 .523-.06.74-.18.229-.12.415-.283.56-.487a1.62 1.62 0 00.216-.397c.06-.145.144-.38.253-.704l1.912-6.082zm3.001 0H80.9v7.742h2.2v-7.742zm-1.173-3.302a1.2 1.2 0 00-.884.361 1.174 1.174 0 00-.343.866c0 .35.12.644.361.884.24.241.53.361.866.361.337 0 .626-.12.867-.36.252-.253.378-.548.378-.885 0-.349-.12-.637-.36-.866a1.206 1.206 0 00-.885-.36zm5.068 11.044V47.56h-2.202v12.036h2.202zm3.894 0V47.56h-2.2v12.036h2.201zm9.29 0v-3.393c0-.65-.06-1.185-.18-1.606-.12-.42-.33-.83-.632-1.227a3.957 3.957 0 00-1.425-1.173 3.806 3.806 0 00-1.787-.433 3.86 3.86 0 00-1.57.325 3.954 3.954 0 00-1.263.848c-.36.361-.65.782-.866 1.263a3.88 3.88 0 00-.307 1.534c0 .53.103 1.035.307 1.516.205.47.475.884.812 1.245.349.361.746.65 1.191.866a3.327 3.327 0 002.454.163 4.99 4.99 0 001.047-.56v.632h2.219zm-4.024-5.684c.241 0 .47.048.686.144.217.096.403.235.56.415.168.168.3.367.397.596.096.216.144.45.144.703 0 .253-.048.487-.144.704a1.92 1.92 0 01-.398.578c-.156.168-.342.3-.559.397a1.549 1.549 0 01-.668.144c-.252 0-.487-.048-.703-.145a1.902 1.902 0 01-.578-.396 2.015 2.015 0 01-.379-.596 1.842 1.842 0 01-.144-.722c0-.252.042-.487.126-.704.096-.228.223-.42.38-.577.168-.169.36-.3.577-.397a1.71 1.71 0 01.703-.144zm5.41 6.424c.06.385.12.685.18.902.06.229.139.445.235.65a3.646 3.646 0 001.425 1.533A3.978 3.978 0 00105.5 64a3.78 3.78 0 001.714-.397 3.943 3.943 0 001.371-1.1c.157-.193.283-.392.379-.596.109-.193.193-.41.253-.65a4.59 4.59 0 00.126-.794c.024-.3.036-.65.036-1.047v-3.41c0-.566-.06-1.047-.18-1.444a3.431 3.431 0 00-.578-1.173 3.828 3.828 0 00-1.407-1.227 3.95 3.95 0 00-1.823-.433c-.565 0-1.094.108-1.588.325a3.958 3.958 0 00-1.263.848 4.22 4.22 0 00-.866 1.263 3.936 3.936 0 00-.307 1.552c0 .541.103 1.053.307 1.534.205.481.481.902.83 1.263a4.3 4.3 0 001.209.848 3.71 3.71 0 001.498.307c.168 0 .325-.012.469-.036.144-.012.289-.042.433-.09a3.16 3.16 0 00.487-.199 7.92 7.92 0 00.578-.325v.686c0 .722-.144 1.275-.433 1.66-.277.385-.68.578-1.209.578-.457 0-.842-.139-1.155-.415-.301-.277-.505-.674-.614-1.191h-2.201zm3.825-6.46c.506 0 .927.18 1.264.54.336.35.505.795.505 1.336 0 .505-.175.933-.523 1.282a1.685 1.685 0 01-1.264.523 1.71 1.71 0 01-.703-.145 2.093 2.093 0 01-.578-.378 2.02 2.02 0 01-.379-.596 2.076 2.076 0 01-.126-.722c0-.252.042-.493.126-.722a1.798 1.798 0 011.678-1.119zm10.336 3.212a2.008 2.008 0 01-.596.433 1.602 1.602 0 01-.649.126c-.722 0-1.252-.36-1.588-1.083h3.735c.529 0 .95-.12 1.263-.36.313-.253.469-.584.469-.993 0-.445-.108-.872-.324-1.281a3.432 3.432 0 00-.849-1.101 4.485 4.485 0 00-1.245-.758 3.68 3.68 0 00-1.443-.289 3.87 3.87 0 00-1.534.307 3.752 3.752 0 00-1.245.848 3.881 3.881 0 00-.83 1.245 3.79 3.79 0 00-.307 1.534c0 .553.102 1.07.307 1.552a4.1 4.1 0 00.83 1.263c.361.361.776.644 1.245.848.481.205.998.307 1.552.307.854 0 1.606-.228 2.255-.686.65-.457 1.131-1.094 1.444-1.912h-2.49zm-2.906-2.13a1.69 1.69 0 01.614-.812 1.704 1.704 0 011.01-.307c.746 0 1.27.373 1.57 1.12h-3.194zm11.27-2.905a7.86 7.86 0 00-1.047-.343 3.81 3.81 0 00-.848-.09c-.433 0-.836.066-1.209.198-.361.12-.673.301-.938.542a2.543 2.543 0 00-.632.83 2.43 2.43 0 00-.216 1.028c0 .674.216 1.227.649 1.66.169.169.355.307.56.416.216.096.517.192.902.288.445.109.728.205.848.289.12.084.181.21.181.379 0 .168-.085.3-.253.397-.168.096-.409.144-.722.144-.325 0-.631-.048-.92-.144-.289-.096-.668-.277-1.137-.541v2.183a6 6 0 001.101.38 5.23 5.23 0 001.173.125c.445 0 .848-.06 1.209-.18.373-.12.685-.295.938-.523.265-.229.469-.5.614-.812.144-.313.216-.662.216-1.047 0-.361-.066-.704-.198-1.029a2.357 2.357 0 00-.56-.83 2.088 2.088 0 00-.577-.379 8.015 8.015 0 00-.939-.342c-.324-.097-.547-.187-.667-.271a.395.395 0 01-.163-.325c0-.325.307-.487.921-.487.288 0 .565.042.83.126.276.072.571.193.884.361v-2.003z" fill="#E6007F"/><defs><radialGradient id="paint0_radial_1682_2713" cx="0" cy="0" r="1" gradientUnits="userSpaceOnUse" gradientTransform="matrix(8.27841 0 0 8.14044 34.81 8.737)"><stop stop-color="#fff"/><stop offset=".09" stop-color="#FEF5FA"/><stop offset=".23" stop-color="#FBD9EC"/><stop offset=".42" stop-color="#F7ADD5"/><stop offset=".65" stop-color="#F16FB6"/><stop offset=".9" stop-color="#E9218F"/><stop offset="1" stop-color="#E6007E"/></radialGradient></defs></svg>